<?xml version="1.0" encoding="UTF-8"?>
<svg width="79px" height="82px" viewBox="0 0 79 82" version="1.1" xmlns="http://www.w3.org/2000/svg" xmlns:xlink="http://www.w3.org/1999/xlink">
    <!-- Generator: Sketch 58 (84663) - https://sketch.com -->
    <title>Group 500</title>
    <desc>Created with Sketch.</desc>
    <defs>
        <linearGradient x1="-9.10300716%" y1="54.1733567%" x2="114.111756%" y2="7.51317889%" id="linearGradient-1">
            <stop stop-color="#003C5C" offset="0%"></stop>
            <stop stop-color="#76B2D6" offset="100%"></stop>
        </linearGradient>
    </defs>
    <g id="Page-1" stroke="none" stroke-width="1" fill="none" fill-rule="evenodd">
        <g id="Artboard-Copy" transform="translate(-544.000000, -259.000000)">
            <g id="Group-500" transform="translate(545.000000, 260.000000)">
                <path d="M37.4258433,0.286119816 C37.4811429,0.289806452 37.5327558,0.298285714 37.584,0.307870968 C37.786765,0.34916129 37.9758894,0.413677419 38.1635392,0.481142857 C38.908977,0.759483871 39.6193917,1.10381567 40.3275945,1.4518341 C41.0339539,1.80280184 41.7322028,2.16851613 42.4230783,2.54971429 L42.4547834,2.56704147 L42.4621567,2.60095853 C42.5997032,3.22977198 42.721588,3.86064319 42.8315033,4.49338116 L43.3208111,4.59907834 L43.4608894,8.34568475 L43.7914839,13.6481106 L45.7548894,14.2916847 L45.8092903,11.5003502 L46.0076313,11.4358341 L46.0073733,4.5795023 L46.3407834,4.44268475 L46.341235,4.07336406 L48.306212,3.13585253 L50.5121106,4.81776959 L50.5121106,5.08173272 L50.9593733,5.43491244 L51.647447,11.4669493 L51.4633364,11.4731797 L51.4762396,11.6040553 L51.7988894,14.8836847 L52.2412535,6.4521659 L54.4188894,5.65668475 L54.4850507,4.15815668 L55.4944516,4.87741935 L55.6138894,7.62168475 L56.4101751,8.22934562 L56.4101751,8.463447 L56.8065991,8.7764424 L57.4168111,14.1239078 L57.2534194,14.1294747 L57.2648479,14.245235 L57.2637834,14.2446847 L57.3847834,15.4756847 L58.3508571,15.6431705 L58.5368479,16.8991336 L58.5438525,16.9459539 L58.6601659,17.7331244 L58.5458894,17.8256847 L60.2568894,17.5826847 L60.3772903,15.094341 L60.6309309,15.0335115 L60.6310046,15.0336959 L60.8433548,15.6287189 L60.8938894,16.4286847 L61.3734194,12.6980645 L62.940977,8.61917051 L64.4086267,8.67483871 L64.4138894,8.68568475 L64.4087373,7.2 L66.5989677,11.2235945 L67.0358894,17.4516847 L67.3608848,15.5382488 L69.4788894,16.4956847 L69.5678157,15.0610138 L69.8789677,17.0226728 L70.1034839,17.3135484 L70.5163871,26.9463594 L71.4228894,27.8746847 L75.2277972,25.5876498 L76.6464147,26.8787097 L76.6545406,28.3040708 C76.7228655,29.0015104 76.7306392,29.9027955 76.6778618,31.0079263 L76.6688894,31.0076847 L76.6777512,32.4234101 L76.6777512,32.4823963 L76.6568611,32.482627 C76.1981528,43.2434683 72.5199057,52.9381994 65.6221198,61.5668203 C59.1477412,69.6657899 50.8222693,75.5929444 40.6457042,79.3482837 C39.191538,79.8848977 37.5861252,79.8379333 36.1658149,79.2172299 L36.1658149,79.2172299 L35.4351309,78.8947485 C24.536495,74.0371438 16.4114207,68.2611677 11.0599078,61.5668203 C5.24091536,54.2876903 1.5683255,44.5055705 0.0421382488,32.2204608 L0.0828894009,32.5416847 L0.0631889401,32.5417512 L0.0578894009,32.3466847 L0.0421382488,32.2204608 L0.0548894009,32.2196847 L0.000147465438,29.9717972 L0.0168894009,29.9736847 L-0.000110599078,28.4973272 L3.4277235,28.9865438 L5.70274654,28.9865438 L7.05500461,19.4672811 L8.12007373,19.2634101 L8.0118894,20.7586847 L8.11996313,20.7378802 L9.27609217,13.3918894 L11.1818894,13.2306847 L11.3425622,11.7434101 L11.3418894,13.4416847 L11.9848894,12.8186847 L12.258212,7.65253456 L13.8468894,7.17668475 L13.9073548,5.75852535 L14.9562028,5.37105991 L14.9028894,6.86168475 L14.9560922,6.84589862 L14.9338894,7.40168475 L15.5067834,8.78768475 L15.9064332,8.82429493 L16.1637604,12.3063226 L17.0983226,13.6247005 L17.0797834,14.4586847 L17.5027834,14.4026847 L17.5030415,14.3998525 L17.6718894,14.3814194 L17.7797834,14.3666847 L17.7917834,14.1236847 L17.7917834,14.1066847 L17.7927834,14.0956847 L17.7937834,14.0756847 L17.7947834,14.0526847 L17.7947834,14.0506847 L18.0686452,8.37592627 L18.4133456,8.29334562 L18.7018986,9.10197235 L19.0808894,15.0436847 L19.5888894,14.9496847 L19.5903779,6.98879263 L19.8947834,6.94368475 L19.8673917,6.94731797 L20.3827834,5.25957604 L21.1391705,4.48486636 L23.0370507,4.12726267 L23.9637972,4.95933641 L24.3571613,6.66440553 L24.6768664,6.72840553 L24.8827834,13.0916847 L24.883871,13.0944516 L24.9108894,13.9716847 L24.9758894,13.9596847 L25.5402396,9.79262673 L25.7037834,9.69468475 L26.4918894,9.22768475 L26.5406083,8.47354839 L27.2705622,4.01861751 L29.4025438,3.31705069 L29.4128894,3.38168475 L29.4026544,1.84258065 L29.8369401,4.4040553 L29.8968894,5.88268475 L30.5361843,5.92718894 L30.5848894,6.33668475 L31.1724551,6.00719895 C31.2289149,5.95064301 31.286209,5.911725 31.3442149,5.89128588 C31.4218595,5.81942476 31.4927575,5.77674958 31.5646946,5.76245888 L31.6188387,5.75708756 C32.3562909,5.75708756 32.9921159,8.74153219 33.2839705,13.0466529 L34.3968894,11.3296847 L34.38678,11.1137972 C34.3706221,10.68647 34.3723502,10.2587281 34.3933641,9.83181567 C34.4232258,9.26259908 34.4862673,8.69559447 34.5810138,8.13485714 C34.6517682,7.71583711 34.739998,7.29928421 34.85599,6.89103266 L34.9757834,6.50368475 L34.9463258,6.61363372 L34.9567199,6.57938543 C34.9735011,6.52482624 34.984578,6.49177055 34.9879989,6.48170472 C34.9888505,6.47927449 34.9891613,6.47837788 34.9891613,6.47837788 L35.0317834,6.37668475 L35.0885802,6.24605633 C35.2602824,5.8475652 35.4160032,5.49996583 35.5707506,5.16089437 L35.934894,3.93105991 L35.9510293,3.89536952 C36.0247757,3.73253355 36.3403435,3.03882289 36.669656,2.36095422 L37.0407834,1.04868475 L37.0509124,0.938285714 L37.0870415,0.643723502 L37.105106,0.496258065 L37.1102673,0.45681106 C37.1139539,0.434691244 37.1216959,0.410359447 37.1353364,0.388239631 C37.1629862,0.342894009 37.2064885,0.317824885 37.2411429,0.305290323 C37.3130323,0.280958525 37.3701751,0.283907834 37.4258433,0.286119816 Z M23.4546728,6.48339171 L23.4517834,6.48268475 L23.6967834,6.53168475 L23.4546728,6.48339171 Z M23.5177834,4.82868475 L20.7107834,5.21368475 L23.5195945,4.82975115 L23.5177834,4.82868475 Z M41.1986456,2.08745624 L41.1628057,2.2256563 C41.6461182,2.40758754 41.9852089,2.53635849 42.0074619,2.54481098 L42.1157834,2.56568475 L41.651916,2.32156614 L41.1986456,2.08745624 Z M40.4077031,1.68834689 L40.3230694,1.91075938 C40.5888132,2.01000082 40.8432242,2.10543953 41.0702201,2.19081857 L41.0885885,2.03119155 C40.8621558,1.91566917 40.6351692,1.8013337 40.4077031,1.68834689 Z M39.1834656,1.10451724 L39.1317977,1.46944294 C39.4843374,1.59869911 39.8586481,1.73750369 40.2166092,1.87102541 L40.2764938,1.62334942 C40.2674759,1.61889438 40.2584572,1.61444149 40.2494378,1.60999078 C39.8961149,1.43784968 39.541407,1.26653961 39.1834656,1.10451724 Z M36.9957834,1.59968475 L36.9151647,1.86503168 C36.9401105,1.81576119 36.9647972,1.76740459 36.9891187,1.72021615 L36.9957834,1.59968475 Z M37.7863885,0.551863641 L37.7857474,0.990596357 C38.0644003,1.08264865 38.5143395,1.24361538 39.0188342,1.42808112 L39.0399792,1.04016459 C38.7296963,0.902339365 38.4168112,0.772302284 38.100129,0.655520737 C37.9961125,0.618611634 37.8912609,0.582656867 37.7863885,0.551863641 Z M37.3063963,0.482986175 L37.2971797,0.487410138 L37.2931244,0.521327189 L37.2757972,0.667317972 L37.2404055,0.958562212 L37.2145991,1.25091244 L37.210247,1.30728232 C37.3466891,1.06536432 37.4527765,0.90875576 37.498765,0.90875576 C37.5167702,0.90875576 37.5672626,0.921706859 37.6443195,0.945304793 L37.6211652,0.508206359 C37.5968313,0.502578628 37.5725193,0.497349362 37.5482396,0.492571429 C37.5025253,0.483723502 37.4571797,0.477087558 37.4140461,0.474506912 C37.3720184,0.471557604 37.3285161,0.474138249 37.3063963,0.482986175 Z" id="Combined-Shape" stroke="#014167" stroke-width="2" fill="url(#linearGradient-1)" stroke-linejoin="round"></path>
                <g id="Group-2" transform="translate(15.000000, 23.000000)">
                    <path d="M12.0596416,1.03340502 C12.8395738,1.03340502 13.5025062,1.14389376 14.0484588,1.36487455 C14.5944113,1.58585535 15.127357,1.89782355 15.6473118,2.30078853 C15.7902994,2.41777836 15.9137868,2.4762724 16.0177778,2.4762724 C16.2777552,2.4762724 16.446738,2.08631214 16.5247312,1.30637993 L16.97319,1.30637993 L16.9628032,1.49909056 C16.9177323,2.41052339 16.8951971,3.91912926 16.8951971,6.02494624 L16.4467384,6.02494624 C16.3297485,5.06302984 16.1737644,4.32860469 15.9787814,3.82164875 C15.7837983,3.31469281 15.4523321,2.87273785 14.9843728,2.49577061 C14.659401,2.18379772 14.2824394,1.9465719 13.8534767,1.78408602 C13.424514,1.62160014 12.9760597,1.54035842 12.5081004,1.54035842 C11.1952145,1.54035842 10.2203138,2.18054318 9.58336918,3.4609319 C8.94642453,4.74132062 8.62795699,6.33690801 8.62795699,8.24774194 C8.62795699,10.145577 8.95942321,11.7314154 9.62236559,13.0053047 C10.285308,14.2791939 11.2732073,14.916129 12.5860932,14.916129 C13.0280548,14.916129 13.4667601,14.8348873 13.9022222,14.6724014 C14.3376844,14.5099156 14.704897,14.2726897 15.003871,13.9607168 C15.4848292,13.5967485 15.8195451,13.1417948 16.0080287,12.5958423 C16.1965123,12.0498897 16.3427474,11.2504712 16.4467384,10.1975627 L16.8951971,10.1975627 L16.8975156,11.3507661 C16.9049346,13.0938764 16.9301592,14.3473154 16.97319,15.1111111 L16.5247312,15.1111111 L16.4993835,14.875962 C16.4629868,14.5816687 16.4161914,14.3643305 16.3589964,14.2239427 C16.2875026,14.0484579 16.1867629,13.9607168 16.0567742,13.9607168 C15.9527832,13.9607168 15.8162971,14.0127115 15.6473118,14.1167025 C15.0623627,14.5326664 14.5034196,14.8478842 13.9704659,15.0623656 C13.4375123,15.276847 12.7940778,15.384086 12.0401434,15.384086 C10.6622631,15.384086 9.45663599,15.1046145 8.42322581,14.5456631 C7.38981562,13.9867117 6.58714742,13.1775441 6.01519713,12.1181362 C5.44324684,11.0587283 5.15727599,9.79460711 5.15727599,8.32573477 C5.15727599,6.89585904 5.44974618,5.6284882 6.03469534,4.52358423 C6.6196445,3.41868026 7.43531137,2.56076769 8.48172043,1.94982079 C9.52812949,1.33887389 10.7207579,1.03340502 12.0596416,1.03340502 Z M28.6331183,5.03053763 L30.9339068,5.03053763 L30.9339068,5.42050179 L28.6331183,5.42050179 L28.6331183,13.2977778 C28.6331183,13.6877439 28.7013613,13.9639657 28.8378495,14.1264516 C28.9743376,14.2889375 29.1920654,14.3701792 29.4910394,14.3701792 C30.0499908,14.3701792 30.4919458,13.980219 30.8169176,13.2002867 L31.1483871,13.3757706 C30.65443,14.7146542 29.7640208,15.384086 28.4771326,15.384086 C27.6192072,15.384086 26.9692734,15.1631085 26.5273118,14.721147 C26.2543356,14.4481707 26.0691044,14.1069555 25.9716129,13.697491 C25.8741214,13.2880266 25.8253763,12.7258339 25.8253763,12.0108961 L25.8253763,5.42050179 L24.1875269,5.42050179 L24.1875269,5.03053763 L25.8253763,5.03053763 L25.8253763,2.45677419 C26.9042826,2.45677419 27.8401872,2.24879539 28.6331183,1.83283154 L28.6331183,5.03053763 Z M39.5716129,5.08903226 L39.8841269,5.08740742 C40.3842205,5.08199129 40.7805003,5.06303481 41.0729749,5.03053763 L41.0729749,5.42050179 C40.7999986,5.49849501 40.5562735,5.66422812 40.3417921,5.91770609 C40.1273108,6.17118406 39.9225816,6.56439399 39.7275986,7.09734767 L36.2374194,16.9049462 C35.9774419,17.5808875 35.6914711,18.0423405 35.3794982,18.289319 C35.002531,18.6142908 34.4370886,18.7767742 33.6831541,18.7767742 C33.1372016,18.7767742 32.6465016,18.6435378 32.2110394,18.3770609 C31.7755773,18.1105841 31.5578495,17.7238735 31.5578495,17.2169176 C31.5578495,16.8139526 31.7008349,16.4922354 31.98681,16.2517563 C32.2727852,16.0112772 32.6497468,15.8910394 33.1177061,15.8910394 C33.5596677,15.8910394 33.9138816,15.9982785 34.1803584,16.2127599 C34.4468353,16.4272412 34.5800717,16.7294604 34.5800717,17.1194265 C34.5800717,17.3924028 34.4955803,17.6426273 34.326595,17.8701075 C34.1576097,18.0975878 33.9171342,18.2698202 33.6051613,18.38681 C33.6961534,18.3998089 33.8456381,18.4063082 34.0536201,18.4063082 C34.85955,18.4063082 35.4509898,17.8928606 35.827957,16.8659498 L36.1399283,15.9300358 L32.0063082,6.53189964 C31.7983263,6.08993805 31.5968469,5.79746786 31.4018638,5.65448029 C31.2068807,5.51149271 31.0054013,5.44 30.7974194,5.44 L30.7974194,5.03053763 C31.6553448,5.10853086 32.545754,5.14752688 33.4686738,5.14752688 C34.2356072,5.14752688 35.1390151,5.10853086 36.1789247,5.03053763 L36.1789247,5.44 C35.7629609,5.44 35.4542423,5.46924702 35.2527599,5.52774194 C35.0512774,5.58623685 34.9505376,5.73897129 34.9505376,5.98594982 C34.9505376,6.12893739 34.996033,6.31091885 35.0870251,6.53189964 L37.4658065,12.283871 L38.8111828,8.54021505 C39.0191647,7.92926815 39.1231541,7.40932114 39.1231541,6.98035842 C39.1231541,6.03144089 38.6422031,5.51149388 37.6802867,5.42050179 L37.6802867,5.03053763 C38.2912336,5.06953425 38.9216726,5.08903226 39.5716129,5.08903226 Z M6.94136201,26.4274996 C8.63121514,26.5574883 9.87258863,26.9474485 10.6655197,27.597392 C11.4584508,28.2473356 11.8549104,29.0142574 11.8549104,29.8981806 C11.8549104,31.1070755 11.3804587,32.0397305 10.4315412,32.6961734 C9.48262369,33.3526164 8.16325815,33.6808329 6.47340502,33.6808329 L6.16461648,33.6792412 C5.91923103,33.6765884 5.70369098,33.6706196 5.51799283,33.6613347 C4.87454875,33.6418364 4.24207955,33.6296501 3.6205746,33.6247755 L3.00272401,33.6223383 C1.66384038,33.6223383 0.662942383,33.6418363 -5.68434189e-14,33.6808329 L-5.68434189e-14,33.2908687 C0.428962718,33.264871 0.744180594,33.2128763 0.945663082,33.1348831 C1.14714557,33.0568899 1.28363166,32.9074051 1.35512545,32.6864243 C1.4201198,32.4855327 1.45557082,32.1718454 1.46147932,31.7453543 L1.46236559,21.9429118 C1.46236559,21.4489547 1.42661923,21.0914911 1.35512545,20.8705103 C1.28363166,20.6495295 1.14714557,20.5000448 0.945663082,20.4220515 C0.744180594,20.3440583 0.428962718,20.2920636 -5.68434189e-14,20.2660659 L-5.68434189e-14,19.8761017 L0.381328958,19.8949253 C1.02173342,19.9213728 1.88252745,19.9345963 2.9637276,19.9345963 L5.12802867,19.9150981 C5.38800608,19.9020993 5.68697561,19.8955999 6.02494624,19.8955999 C7.58481067,19.8955999 8.77743912,20.1750715 9.60286738,20.7340229 C10.4282956,21.2929743 10.8410036,22.0338988 10.8410036,22.9568186 C10.8410036,23.710753 10.512787,24.4126815 9.85634409,25.062625 C9.19990114,25.7125685 8.22825016,26.1545235 6.94136201,26.3885032 L6.94136201,26.4274996 Z M5.77146953,20.2660659 C5.42050004,20.2660659 5.1637762,20.3115612 5.00129032,20.4025533 C4.83880444,20.4935454 4.72506604,20.6560289 4.66007168,20.8900085 C4.59507733,21.1239882 4.56258065,21.4749524 4.56258065,21.9429118 L4.56258065,26.3495067 L5.40100358,26.3495067 C6.24593015,26.3495067 6.83736988,26.0602862 7.1753405,25.4818365 C7.51331113,24.9033868 7.68229391,24.1332153 7.68229391,23.1712989 C7.68229391,22.1963836 7.52955947,21.4684578 7.22408602,20.9874996 C6.91861257,20.5065414 6.43441192,20.2660659 5.77146953,20.2660659 Z M5.90795699,33.2323741 C7.71479995,33.2323741 8.61820789,32.09499 8.61820789,29.8201877 C8.61820789,28.793277 8.35823438,28.0133565 7.83827957,27.4804028 C7.31832476,26.9474491 6.49940822,26.6809763 5.38150538,26.6809763 L4.56258065,26.6809763 L4.56258065,31.6140229 C4.56258065,32.0819822 4.59507733,32.4264471 4.66007168,32.6474279 C4.72506604,32.8684087 4.85180312,33.0211431 5.04028674,33.1056358 C5.22877036,33.1901284 5.51799088,33.2323741 5.90795699,33.2323741 Z M15.4815771,33.8173204 C14.6496494,33.8173204 14.0289626,33.6028422 13.6194982,33.1738795 C13.2100338,32.7449168 13.0053047,32.1794744 13.0053047,31.4775354 C13.0053047,30.8925863 13.1580391,30.4083856 13.4635125,30.0249189 C13.768986,29.6414523 14.1394482,29.3457324 14.5749104,29.1377505 C14.9668263,28.9505667 15.4561296,28.7528566 16.0428322,28.5446152 L16.2420072,28.4748114 C16.956945,28.2278329 17.4801417,28.0036057 17.8116129,27.8021232 C18.1430841,27.6006407 18.3088172,27.3244189 18.3088172,26.9734494 L18.3088172,25.4525892 C18.3088172,24.9066366 18.1820801,24.48093 17.9286022,24.1754566 C17.6751242,23.8699831 17.2819143,23.7172487 16.7489606,23.7172487 C16.1250148,23.7172487 15.6505632,23.8732328 15.3255914,24.1852057 C15.6895598,24.3151944 15.972281,24.5101745 16.1737634,24.7701519 C16.3752459,25.0301293 16.4759857,25.3355982 16.4759857,25.6865677 C16.4759857,26.1285293 16.3265009,26.4794935 16.0275269,26.7394709 C15.7285529,26.9994483 15.36459,27.1294351 14.9356272,27.1294351 C14.4806668,27.1294351 14.1297025,26.9864496 13.882724,26.7004745 C13.6357455,26.4144993 13.5122581,26.0570358 13.5122581,25.6280731 C13.5122581,25.2641047 13.5999991,24.9553861 13.7754839,24.7019082 C13.9509686,24.4484302 14.2206911,24.2112044 14.5846595,23.9902236 C14.935629,23.7822417 15.3678349,23.6197582 15.8812903,23.5027684 C16.3947457,23.3857786 16.9569384,23.3272845 17.5678853,23.3272845 C18.2048299,23.3272845 18.7572736,23.3922779 19.225233,23.5222666 C19.6931923,23.6522553 20.0831526,23.8732328 20.3951254,24.1852057 C20.6811006,24.4711808 20.8728311,24.822145 20.9703226,25.2381089 C21.0678141,25.6540727 21.1165591,26.2195151 21.1165591,26.934453 L21.1165591,32.2379655 C21.1165591,32.5499384 21.1458062,32.7709159 21.2043011,32.9009046 C21.262796,33.0308933 21.3765344,33.0958867 21.5455197,33.0958867 C21.7405028,33.0958867 21.9744789,32.9853979 22.2474552,32.7644171 L22.4424373,33.0958867 C21.8574881,33.5768449 21.142561,33.8173204 20.2976344,33.8173204 C19.5826965,33.8173204 19.0822475,33.6743349 18.7962724,33.3883598 C18.5102973,33.1023846 18.3608125,32.7189237 18.3478136,32.2379655 C17.6978701,33.290874 16.7424675,33.8173204 15.4815771,33.8173204 Z M16.9829391,32.5694351 C17.489895,32.5694351 17.93185,32.3029622 18.3088172,31.7700085 L18.3088172,27.7728759 C18.1528308,28.0328533 17.8213645,28.3188242 17.3144086,28.6307971 C16.8074527,28.9557688 16.4239917,29.2807357 16.1640143,29.6057075 C15.9040369,29.9306792 15.7740502,30.3986315 15.7740502,31.0095784 C15.7740502,31.5425321 15.8845389,31.935742 16.1055197,32.18922 C16.3265005,32.442698 16.6189707,32.5694351 16.9829391,32.5694351 Z M44.5729032,18.4137361 L44.5729032,31.53603 C44.5729032,32.1339781 44.663894,32.5694337 44.8458781,32.84241 C45.0278623,33.1153862 45.3528292,33.2518723 45.8207885,33.2518723 L45.8207885,33.6613347 C45.4178236,33.6223381 45.0148646,33.6028401 44.6118996,33.6028401 C43.4550002,33.6028401 42.5060969,33.6938308 41.7651613,33.875815 L41.7651613,32.1989691 C41.3231997,33.3688674 40.4782858,33.9538078 39.2303943,33.9538078 C38.0085005,33.9538078 37.0368495,33.5086032 36.3154122,32.6181806 C35.5939749,31.727758 35.239761,30.3856447 35.2527599,28.5918006 C35.2527599,27.4479001 35.437991,26.4827484 35.8084588,25.6963168 C36.1789266,24.9098851 36.6923743,24.3184454 37.3488172,23.9219799 C38.0052602,23.5255143 38.7559336,23.3272845 39.6008602,23.3272845 C40.5497777,23.3272845 41.2712042,23.5742593 41.7651613,24.0682164 L41.7651613,20.7535211 C41.7651613,20.155573 41.6709209,19.7201174 41.4824373,19.4471412 C41.2939537,19.1741649 40.9722364,19.0376788 40.517276,19.0376788 L40.517276,18.6282164 C40.9332398,18.667213 41.3361988,18.686711 41.7261649,18.686711 C42.8570666,18.686711 43.8059699,18.5957203 44.5729032,18.4137361 Z M30.2612186,23.3272845 C31.2491328,23.3272845 31.9640599,23.5807587 32.4060215,24.0877146 C32.6270023,24.3346932 32.7829864,24.6531607 32.8739785,25.0431268 C32.9649706,25.4330929 33.0104659,25.9595393 33.0104659,26.6224817 L33.0104659,31.8674996 C33.0104659,32.4004533 33.1047063,32.7676658 33.29319,32.9691483 C33.4816736,33.1706308 33.8033908,33.2713705 34.2583513,33.2713705 L34.2583513,33.6808329 L33.2934292,33.6440924 C32.7158954,33.6234661 32.2698561,33.6105748 31.955307,33.6054183 L31.6845878,33.6028401 C31.2946217,33.6028401 30.4497078,33.6288374 29.1498208,33.6808329 L29.1498208,33.2713705 C29.5397869,33.2713705 29.8127591,33.1706308 29.9687455,32.9691483 C30.124732,32.7676658 30.202724,32.4004533 30.202724,31.8674996 L30.202724,25.8035569 C30.202724,25.2706032 30.114983,24.8676443 29.9394982,24.594668 C29.7640135,24.3216918 29.4487956,24.1852057 28.9938351,24.1852057 C28.4608814,24.1852057 28.0059278,24.4029335 27.6289606,24.8383956 C27.2519933,25.2738578 27.0635125,25.8100531 27.0635125,26.4469978 L27.0635125,31.8674996 C27.0635125,32.4004533 27.1415046,32.7676658 27.297491,32.9691483 C27.4534775,33.1706308 27.7264497,33.2713705 28.1164158,33.2713705 L28.1164158,33.6808329 L27.0040409,33.6357919 C26.496438,33.6172036 26.106801,33.6064797 25.8351258,33.60362 L25.5286377,33.6040587 C25.0765233,33.6097456 24.2362785,33.6353369 23.0078853,33.6808329 L23.0078853,33.2713705 C23.4758446,33.2713705 23.8008115,33.1706308 23.9827957,32.9691483 C24.1647799,32.7676658 24.2557706,32.4004533 24.2557706,31.8674996 L24.2557706,25.7255641 C24.2557706,25.1276161 24.1647799,24.6921604 23.9827957,24.4191842 C23.8008115,24.1462079 23.4758446,24.0097218 23.0078853,24.0097218 L23.0078853,23.6002594 C23.4238492,23.639256 23.8268081,23.6587541 24.2167742,23.6587541 C25.3736736,23.6587541 26.3225769,23.5677633 27.0635125,23.3857791 L27.0635125,25.1406179 C27.6484617,23.9317229 28.7143531,23.3272845 30.2612186,23.3272845 Z M40.3417921,23.8927325 C39.652852,23.8927325 39.1199063,24.2891921 38.7429391,25.0821232 C38.3659718,25.8750543 38.1839904,27.0579338 38.1969892,28.6307971 C38.1839904,30.2166592 38.3367248,31.3605427 38.6551971,32.0624817 C38.9736695,32.7644206 39.4318728,33.1153849 40.0298208,33.1153849 C40.4587835,33.1153849 40.8389948,32.9594008 41.1704659,32.6474279 C41.5019371,32.335455 41.7001669,31.9129981 41.7651613,31.3800444 L41.7651613,31.3800444 L41.7651613,24.5556716 C41.4401895,24.11371 40.9657379,23.8927325 40.3417921,23.8927325 Z" id="CityBand" fill="#FFFFFF" fill-rule="nonzero"></path>
                    <path d="M21.0678136,-1.79412041e-13 C21.6137662,-1.79412041e-13 22.0459721,0.133236422 22.3644444,0.399713262 C22.6829168,0.666190102 22.8421505,1.03340268 22.8421505,1.50136201 C22.8421505,1.96932134 22.6829168,2.33653391 22.3644444,2.60301075 C22.0459721,2.86948759 21.6137662,3.00272401 21.0678136,3.00272401 C20.5218611,3.00272401 20.0896551,2.86948759 19.7711828,2.60301075 C19.4527105,2.33653391 19.2934767,1.96932134 19.2934767,1.50136201 C19.2934767,1.03340268 19.4527105,0.666190102 19.7711828,0.399713262 C20.0896551,0.133236422 20.5218611,-1.79412041e-13 21.0678136,-1.79412041e-13 Z" id="Path" fill="#FF2727"></path>
                    <path d="M22.5886738,13.2977778 C22.5886738,13.8307315 22.6829142,14.197944 22.8713978,14.3994265 C23.0598815,14.600909 23.3815987,14.7016487 23.8365591,14.7016487 L23.8365591,15.1111111 L22.8701868,15.0743706 C22.2907193,15.0537444 21.8408126,15.040853 21.5204624,15.0356965 L21.2432975,15.0331183 C20.8403325,15.0331183 19.9369246,15.0591156 18.5330466,15.1111111 L18.5330466,14.7016487 C19.0010059,14.7016487 19.3259728,14.600909 19.507957,14.3994265 C19.6899412,14.197944 19.7809319,13.8307315 19.7809319,13.2977778 L19.7809319,7.15584229 C19.7809319,6.55789426 19.6899412,6.12243864 19.507957,5.84946237 C19.3259728,5.57648609 19.0010059,5.44 18.5330466,5.44 L18.5330466,5.03053763 C18.9490104,5.06953425 19.3519694,5.08903226 19.7419355,5.08903226 C20.8988349,5.08903226 21.8477382,4.99804153 22.5886738,4.81605735 L22.5886738,13.2977778 Z" id="Path" fill="#FFFFFF"></path>
                </g>
            </g>
        </g>
    </g>
</svg>