<svg xmlns="http://www.w3.org/2000/svg" width="14" height="12" viewBox="0 0 14 12">
    <defs>
        <style>
            .cls-1{fill:#fff}
        </style>
    </defs>
    <path id="volume_up" d="M10.786 4.75v10.5a.765.765 0 0 1-.779.75h-.459A.794.794 0 0 1 9 15.782L6.021 12.91a2.382 2.382 0 0 0-1.651-.66A1.346 1.346 0 0 1 3 10.93V9.07a1.346 1.346 0 0 1 1.37-1.32 2.382 2.382 0 0 0 1.651-.66L9 4.218A.794.794 0 0 1 9.548 4h.459a.765.765 0 0 1 .779.75zm4.672 1.3a.459.459 0 0 0-.28-.127.4.4 0 0 0-.288.112l-.553.532a.365.365 0 0 0 0 .51 4.375 4.375 0 0 1 0 5.85.365.365 0 0 0 0 .51l.553.532a.4.4 0 0 0 .288.112.443.443 0 0 0 .28-.127 5.835 5.835 0 0 0 0-7.9zM13 8.05a.421.421 0 0 0-.3.112l-.553.54a.365.365 0 0 0-.055.472 1.454 1.454 0 0 1 0 1.65.365.365 0 0 0 .055.472l.553.54a.416.416 0 0 0 .592-.037 2.912 2.912 0 0 0 0-3.6A.449.449 0 0 0 13 8.05z" class="cls-1" transform="translate(-3 -4)"/>
</svg>
