<?xml version="1.0" standalone="no"?>
<!DOCTYPE svg PUBLIC "-//W3C//DTD SVG 1.1//EN" "http://www.w3.org/Graphics/SVG/1.1/DTD/svg11.dtd" >
<svg>
<metadata>
Created by FontForge 20090914 at Sun Oct 13 23:58:10 2019
 By www-data
a_Bighaus *Arsenal Company &#194;&#169;1996*  FAX: (095)924-3775; e-Mail: arsenal@itco.msk.su; Phone: (095)924-5811 (Design and Featuring W.Chufarofsky)
</metadata>
<defs>
<font id="a_BighausTitul-ExtraBold" horiz-adv-x="638" >
  <font-face 
    font-family="a_BighausTitul"
    font-weight="800"
    font-stretch="normal"
    units-per-em="1000"
    panose-1="4 3 9 5 2 11 2 2 12 4"
    ascent="800"
    descent="-200"
    x-height="562"
    cap-height="720"
    bbox="-25 -163.998 1324 940"
    underline-thickness="90"
    underline-position="-165"
    unicode-range="U+0020-U+203A"
  />
<missing-glyph horiz-adv-x="635" 
d="M40 0v734h555v-734h-555zM80 40h475v654h-475v-654z" />
    <glyph glyph-name=".notdef" horiz-adv-x="635" 
d="M40 0v734h555v-734h-555zM80 40h475v654h-475v-654z" />
    <glyph glyph-name="space" unicode=" " horiz-adv-x="256" 
 />
    <glyph glyph-name="exclam" unicode="!" horiz-adv-x="290" 
d="M146 -7c-30 0 -56 10.667 -78 32s-33 47.333 -33 78c0 30 11.167 55.833 33.5 77.5s48.5 32.5 78.5 32.5c14 0 27.5 -3 40.5 -9s24.5 -14 34.5 -24s18 -21.667 24 -35s9 -27.333 9 -42c0 -29.333 -10.667 -55 -32 -77s-47 -33 -77 -33zM255 720l-34 -452h-151l-35 452
h220z" />
    <glyph glyph-name="quotedbl" unicode="&#x22;" horiz-adv-x="387" 
d="M150 545h-79l-42 192h121v-192zM318 545h-79v192h120z" />
    <glyph glyph-name="numbersign" unicode="#" 
d="M344 684l-36 -159h95l36 159h121l-35 -159h106l-27 -119h-105l-22 -92h109l-29 -119h-106l-35 -159h-121l35 159h-95l-35 -159h-122l36 159h-108l29 119h105l22 92h-109l27 119h107l35 159h122zM283 406l-21 -92h95l20 92h-94z" />
    <glyph glyph-name="dollar" unicode="$" 
d="M498 724v-214c-10 4 -21.167 7.5 -33.5 10.5s-22.166 4.5 -29.499 4.5c-12.667 0 -23.167 -4 -31.5 -12s-12.5 -17 -12.5 -27c0 -16 4.5 -34.5 13.5 -55.5s19 -42.833 30 -65.5s21 -45.334 30 -68.001s13.5 -44 13.5 -64c0 -98.667 -31 -168 -93 -208v-97h-135v56h-33
c-8 0 -17.333 0.833008 -28 2.5s-27.334 4.83398 -50.001 9.50098v214c10 -4 22.167 -7.33301 36.5 -10s25.833 -4 34.5 -4c14 0 24.5 3.83301 31.5 11.5s10.5 16.5 10.5 26.5c0 12 -4.5 27.833 -13.5 47.5l-29 64c-10.333 23 -20 47 -29 72s-13.5 49.167 -13.5 72.5
c0 92.667 27.667 159.667 83 201v99h135v-53h29c12.667 0 26.167 -1 40.5 -3s28.833 -5.33301 43.5 -10z" />
    <glyph glyph-name="percent" unicode="%" horiz-adv-x="906" 
d="M637 178c0 -14.667 5.33105 -27.334 15.998 -38.001s23.334 -16 38.001 -16c15.333 0 28.333 5.33301 39 16s16 23.334 16 38.001c0 15.333 -5.16699 28.333 -15.5 39s-23.5 16 -39.5 16c-15.333 0 -28.166 -5.33301 -38.499 -16s-15.5 -23.667 -15.5 -39zM497.998 178
c0 26.667 5 51.6689 15 75.002s23.833 43.833 41.5 61.5s38.167 31.5 61.5 41.5s48.333 15 75 15c27.333 0 52.666 -5 75.999 -15s43.833 -23.833 61.5 -41.5s31.5 -38.167 41.5 -61.5s15 -48.333 15 -75s-5 -51.667 -15 -75s-23.833 -43.833 -41.5 -61.5
s-38.167 -31.5 -61.5 -41.5s-48.666 -15 -75.999 -15c-26.667 0 -51.667 5.16699 -75 15.5s-43.833 24.166 -61.5 41.499s-31.5 37.666 -41.5 60.999s-15 48.333 -15 75zM21.998 538.002c0 26.667 5 51.833 15 75.5s23.667 44.167 41 61.5s37.666 31.166 60.999 41.499
s48.333 15.5 75 15.5s51.667 -5.16699 75 -15.5s43.666 -24.166 60.999 -41.499s30.833 -37.833 40.5 -61.5s14.5 -48.834 14.5 -75.501s-4.83301 -51.667 -14.5 -75s-23.167 -43.666 -40.5 -60.999s-37.666 -31.166 -60.999 -41.499s-48.333 -15.5 -75 -15.5
s-51.667 5.16699 -75 15.5s-43.666 24.166 -60.999 41.499s-31 37.833 -41 61.5s-15 48.5 -15 74.5zM158.998 538.001c0 -14.667 5.5 -27.667 16.5 -39s23.833 -17 38.5 -17c15.333 0 28.333 5.66699 39 17s16 24.333 16 39c0 16 -5.16699 29.333 -15.5 40
s-23.5 16 -39.5 16c-15.333 0 -28.333 -5.5 -39 -16.5s-16 -24.167 -16 -39.5zM254.998 0.000976562h-106l500 720h106z" />
    <glyph glyph-name="ampersand" unicode="&#x26;" horiz-adv-x="663" 
d="M367 312l201.997 0.00585938v-14c0 -22.667 -1 -44.334 -3 -65.001s-6.33301 -40 -13 -58l104 -175h-234l-13 22c-22 -10.667 -42.5 -18 -61.5 -22s-35.833 -6 -50.5 -6c-41.333 0 -79.166 6.5 -113.499 19.5s-64.166 31.167 -89.499 54.5s-45 51 -59 83
s-21 66.667 -21 104s8.83301 71 26.5 101s43.167 60.667 76.5 92c-7.33301 13.333 -13.333 28.5 -18 45.5s-7 32.167 -7 45.5c0 29.333 5.5 56.833 16.5 82.5s26.167 48.167 45.5 67.5s41.833 34.666 67.5 45.999s53.167 17 82.5 17c30.667 0 59 -5.66699 85 -17
s48.667 -26.666 68 -45.999s34.5 -42.333 45.5 -69s16.5 -55.334 16.5 -86.001c0 -81.333 -34.667 -143.333 -104 -186l-89 146c15.333 16.667 23 30 23 40c0 11.333 -4.16699 21.333 -12.5 30s-18.5 13 -30.5 13c-11.333 0 -21.166 -3.83301 -29.499 -11.5
s-12.5 -16.834 -12.5 -27.501c0 -12.667 5.33301 -27.334 16 -44.001l73 -122c-25.333 -10.667 -45.833 -21.334 -61.5 -32.001s-27.667 -21 -36 -31s-14 -19.333 -17 -28s-4.5 -16.334 -4.5 -23.001c0 -17.333 6.33301 -32.333 19 -45s28.334 -19 47.001 -19
c23.333 0 40.166 11 50.499 33s15.5 50.333 15.5 85z" />
    <glyph glyph-name="quotesingle" unicode="'" horiz-adv-x="177" 
d="M127 545h-76l-22 192h120z" />
    <glyph glyph-name="parenleft" unicode="(" horiz-adv-x="347" 
d="M173 845l200.001 -0.000976562l-61.5 -132.5c-17.667 -39.667 -32.334 -78.167 -44.001 -115.5s-20.5 -75.333 -26.5 -114s-9 -81.667 -9 -129c0 -161.333 46.667 -320.666 140 -477.999h-199c-47.333 72.667 -83.833 151 -109.5 235s-38.5 163.333 -38.5 238
c0 168.667 49.333 334 148 496z" />
    <glyph glyph-name="parenright" unicode=")" horiz-adv-x="347" 
d="M174 845c98.667 -162 148.002 -327.333 148.002 -496c0 -74.667 -12.833 -154 -38.5 -238s-62.167 -162.333 -109.5 -235h-198c92.667 156.667 139 316 139 478c0 47.333 -2.83301 90.333 -8.5 129s-14.334 76.667 -26.001 114s-26.334 75.833 -44.001 115.5l-61.5 132.5
h199z" />
    <glyph glyph-name="asterisk" unicode="*" horiz-adv-x="410" 
d="M303 558l61 -39l-46 -77l-67 38v-78h-92v78l-65 -38l-49 77l70 41l-67 42l46 77l65 -39v80h92v-83l67 37l46 -76z" />
    <glyph glyph-name="plus" unicode="+" 
d="M224 462v152h190v-152h152v-177h-152v-152h-190v152h-152v177h152z" />
    <glyph glyph-name="comma" unicode="," horiz-adv-x="291" 
d="M175 -110l-119.001 -0.000976562c28 50.667 46 88 54 112c-49.333 22.667 -74 57.334 -74 104.001c0 30.667 10.833 56.5 32.5 77.5s47.834 31.5 78.501 31.5c30 0 55.5 -10.5 76.5 -31.5s31.5 -46.167 31.5 -75.5c0 -32 -7.33301 -67 -22 -105s-34 -75.667 -58 -113z
" />
    <glyph glyph-name="hyphen" unicode="-" horiz-adv-x="327" 
d="M291 462v-177h-255v177h255z" />
    <glyph glyph-name="period" unicode="." horiz-adv-x="290" 
d="M145 -7c-29.333 0 -54.999 10.833 -76.999 32.5s-33 47.5 -33 77.5c0 31.333 11 57.5 33 78.5s48.333 31.5 79 31.5c29.333 0 54.666 -10.833 75.999 -32.5s32 -47.5 32 -77.5s-10.667 -55.833 -32 -77.5s-47.333 -32.5 -78 -32.5z" />
    <glyph glyph-name="slash" unicode="/" horiz-adv-x="324" 
d="M116 0h-106l199 720h106z" />
    <glyph glyph-name="zero" unicode="0" 
d="M393 288v144c0 19.333 -7.5 36.333 -22.5 51s-32.167 22 -51.5 22s-36.5 -7.33301 -51.5 -22s-22.5 -31.667 -22.5 -51v-144c0 -19.333 7.5 -36.333 22.5 -51s32.167 -22 51.5 -22s36.5 7.33301 51.5 22s22.5 31.667 22.5 51zM23 285v150c0 42 7.5 81.333 22.5 118
s35.667 68.667 62 96s57.666 48.833 93.999 64.5s75.5 23.5 117.5 23.5s81 -7.83301 117 -23.5s67.167 -37.167 93.5 -64.5s47 -59.333 62 -96s22.5 -76 22.5 -118v-150c0 -42 -7.5 -81.333 -22.5 -118s-35.667 -68.667 -62 -96s-57.5 -48.833 -93.5 -64.5
s-75 -23.5 -117 -23.5s-81.167 7.83301 -117.5 23.5s-67.666 37.167 -93.999 64.5s-47 59.333 -62 96s-22.5 76 -22.5 118z" />
    <glyph glyph-name="one" unicode="1" 
d="M147 514l0.000976562 206h68c83.333 0 141.666 -15.833 174.999 -47.5s50 -84.5 50 -158.5v-305h105v-209h-453v209h123v253c0 16 -3.5 28.667 -10.5 38s-20.167 14 -39.5 14h-18z" />
    <glyph glyph-name="two" unicode="2" 
d="M579 207v-206.999h-487l242 420c6 11.333 10.833 21.5 14.5 30.5s5.5 16.833 5.5 23.5c0 12 -4 21.5 -12 28.5s-19 10.5 -33 10.5c-12 0 -22 -4 -30 -12s-12 -18 -12 -30c0 -7.33301 1.5 -13.333 4.5 -18s7.83301 -9.33398 14.5 -14.001l7 -5l-116 -201l-24 17
c-74.667 52.667 -112 126.334 -112 221.001c0 36.667 6.66699 71.667 20 105s32 62.5 56 87.5s52.5 44.833 85.5 59.5s68.833 22 107.5 22c38 0 73.333 -7.33301 106 -22s61.167 -34.667 85.5 -60s43.333 -54.5 57 -87.5s20.5 -68.167 20.5 -105.5
c0 -26.667 -3.5 -51.334 -10.5 -74.001s-18.833 -49.667 -35.5 -81l-59 -108h105z" />
    <glyph glyph-name="three" unicode="3" 
d="M542 720l-105.002 -252c43.333 -22 73.333 -48.5 90 -79.5s25 -75.833 25 -134.5c0 -40 -6.16699 -76.667 -18.5 -110s-30.666 -61.833 -54.999 -85.5s-54.666 -42.167 -90.999 -55.5s-78.166 -20 -125.499 -20c-24.667 0 -49.667 2.5 -75 7.5s-55 13.167 -89 24.5v213
c34 -14.667 61.167 -24.834 81.5 -30.501s38.5 -8.5 54.5 -8.5c41.333 0 70.166 7.16699 86.499 21.5s24.5 31.166 24.5 50.499c0 24.667 -9.83301 47.334 -29.5 68.001s-49.5 31 -89.5 31c-8 0 -17.333 -0.666992 -28 -2s-19.667 -2.66602 -27 -3.99902l63 157h-114v209
h422z" />
    <glyph glyph-name="four" unicode="4" horiz-adv-x="598" 
d="M522 0l-222.002 -0.00195312v133h-290c0 62 3.33301 118.5 10 169.5s17.5 99.333 32.5 145s34.333 90.5 58 134.5s52.834 90 87.501 138h300c-29.333 -23.333 -59.666 -50.666 -90.999 -81.999s-60 -65.166 -86 -101.499s-47.5 -74.333 -64.5 -114
s-25.5 -79.167 -25.5 -118.5h69v104l222 166v-270h65v-171h-65v-133z" />
    <glyph glyph-name="five" unicode="5" 
d="M493 720l-0.000976562 -207.001h-183l-3 -33c17.333 0 38.166 -4.33301 62.499 -13s47.5 -22.334 69.5 -41.001s40.833 -42.167 56.5 -70.5s23.5 -62.5 23.5 -102.5c0 -43.333 -7 -81.666 -21 -114.999s-33 -61.5 -57 -84.5s-52.167 -40.5 -84.5 -52.5
s-67.166 -18 -104.499 -18c-27.333 0 -55.666 3.5 -84.999 10.5s-56 17.167 -80 30.5v214c20.667 -14 43.667 -25.833 69 -35.5s54.333 -14.5 87 -14.5c19.333 0 35.333 5.33301 48 16s19 24.334 19 41.001c0 17.333 -2.5 33 -7.5 47s-15.333 26 -31 36
s-38.167 17.667 -67.5 23s-68.333 8 -117 8l44 361h362z" />
    <glyph glyph-name="six" unicode="6" horiz-adv-x="618" 
d="M303 364l97.001 211.002c66 -24 117.5 -61.333 154.5 -112s55.5 -109.334 55.5 -176.001c0 -42 -7.66699 -81.5 -23 -118.5s-36.5 -69.167 -63.5 -96.5s-58.667 -49 -95 -65s-75.5 -24 -117.5 -24c-40 0 -78 8.16699 -114 24.5s-67.667 38.5 -95 66.5s-49 60.333 -65 97
s-24 75.334 -24 116.001c0 23.333 3.5 49.166 10.5 77.499s18.167 58.833 33.5 91.5l116 264h247l-163 -372c-11.333 -26 -17 -46 -17 -60c0 -19.333 6.66699 -36.333 20 -51s29.666 -22 48.999 -22s36.333 7.33301 51 22s22 31.667 22 51
c0 21.333 -6.83301 38.666 -20.5 51.999s-33.167 21.333 -58.5 24z" />
    <glyph glyph-name="seven" unicode="7" 
d="M78 511l0.00195312 209.003h521c-31.333 -64.667 -58.333 -126.834 -81 -186.501s-41.334 -118.834 -56.001 -177.501s-25.334 -117.167 -32.001 -175.5s-10 -118.5 -10 -180.5h-267c0 41.333 3 84.166 9 128.499s15 88.5 27 132.5s27 87.167 45 129.5s39 82.5 63 120.5
h-219z" />
    <glyph glyph-name="eight" unicode="8" horiz-adv-x="542" 
d="M496 399c32.667 -50.667 49.001 -103.333 49.001 -158c0 -36 -6.83301 -70 -20.5 -102s-32.334 -60 -56.001 -84s-51.5 -42.833 -83.5 -56.5s-66.333 -20.5 -103 -20.5c-38 0 -73.333 6.83301 -106 20.5s-61.334 32.667 -86.001 57s-44 53.333 -58 87s-21 70.5 -21 110.5
c0 54 15.333 102.667 46 146c-15.333 35.333 -23 70 -23 104s6 65.667 18 95s28.667 54.833 50 76.5s46.5 38.667 75.5 51s60.5 18.5 94.5 18.5c34.667 0 67 -6.66699 97 -20s56 -31.333 78 -54s39.167 -49.167 51.5 -79.5s18.5 -62.5 18.5 -96.5
c0 -14.667 -1.66699 -30 -5 -46s-8.66602 -32.333 -15.999 -49zM277.001 534.001c-8.66699 0 -16.167 -3 -22.5 -9s-9.5 -13.333 -9.5 -22s3.16699 -16.167 9.5 -22.5s13.833 -9.5 22.5 -9.5s16 3.16699 22 9.5s9 13.833 9 22.5c0 8 -3 15 -9 21s-13.333 9.33301 -22 10z
M281.001 304.001c-16.667 0 -30.668 -5.5 -42.001 -16.5s-17 -24.5 -17 -40.5c0 -16.667 5.5 -30.667 16.5 -42s24.833 -17 41.5 -17c14.667 0 27.834 5.66699 39.501 17s17.5 25 17.5 41s-5.5 29.333 -16.5 40s-24.167 16.667 -39.5 18z" />
    <glyph glyph-name="nine" unicode="9" horiz-adv-x="618" 
d="M320 356l-96.999 -211.001c-66 24 -117.5 61.333 -154.5 112s-55.5 109.334 -55.5 176.001c0 42 7.66699 81.5 23 118.5s36.5 69.167 63.5 96.5s58.667 49 95 65s75.166 24 116.499 24c40 0 78.167 -8.16699 114.5 -24.5s68.166 -38.5 95.499 -66.5s49 -60.333 65 -97
s24 -75.334 24 -116.001c0 -46.667 -14.667 -103 -44 -169l-116 -264h-247l163 372c11.333 26 17 46 17 60c0 19.333 -6.66699 36.333 -20 51s-29.666 22 -48.999 22c-20 0 -37.167 -7.33301 -51.5 -22s-21.5 -31.667 -21.5 -51c0 -21.333 6.83301 -38.666 20.5 -51.999
s33.167 -21.333 58.5 -24z" />
    <glyph glyph-name="colon" unicode=":" horiz-adv-x="291" 
d="M144 384c-30 0 -55.832 11 -77.499 33s-32.5 48 -32.5 78c0 30.667 11 56.667 33 78s48.333 32 79 32c29.333 0 54.666 -11 75.999 -33s32 -47.667 32 -77c0 -30 -10.667 -56 -32 -78s-47.333 -33 -78 -33zM144.001 -10c-30 0 -55.832 11 -77.499 33s-32.5 48 -32.5 78
c0 31.333 11 57.5 33 78.5s48.333 31.5 79 31.5c29.333 0 54.666 -11 75.999 -33s32 -47.667 32 -77c0 -30 -10.667 -56 -32 -78s-47.333 -33 -78 -33z" />
    <glyph glyph-name="semicolon" unicode=";" horiz-adv-x="291" 
d="M144 384c-30 0 -55.832 11 -77.499 33s-32.5 48 -32.5 78c0 30.667 11 56.667 33 78s48.333 32 79 32c29.333 0 54.666 -11 75.999 -33s32 -47.667 32 -77c0 -30 -10.667 -56 -32 -78s-47.333 -33 -78 -33zM173.001 -110l-118.999 -0.000976562c28 50.667 46 88 54 112
c-49.333 22.667 -74 57.334 -74 104.001c0 30.667 10.667 56.5 32 77.5s47.666 31.5 78.999 31.5c30 0 55.667 -10.5 77 -31.5s32 -46.167 32 -75.5c0 -32 -7.5 -67 -22.5 -105s-34.5 -75.667 -58.5 -113z" />
    <glyph glyph-name="less" unicode="&#x3c;" 
d="M67 397l485 214v-95l-354 -155l354 -155v-96l-485 215v72z" />
    <glyph glyph-name="equal" unicode="=" 
d="M577 552v-152h-517v152h517zM577 321v-152h-517v152h517z" />
    <glyph glyph-name="greater" unicode="&#x3e;" 
d="M571 397v-72l-485 -215v96l353 155l-353 155v95z" />
    <glyph glyph-name="question" unicode="?" horiz-adv-x="496" 
d="M136 99c0 30 11.001 55.5 33.001 76.5s48.333 31.5 79 31.5c29.333 0 54.666 -10.667 75.999 -32s32 -47.333 32 -78c0 -29.333 -10.667 -55 -32 -77s-47.333 -33 -78 -33c-30 0 -55.833 11.167 -77.5 33.5s-32.5 48.5 -32.5 78.5zM345.001 253h-201.999
c0 40.667 6.5 73.667 19.5 99s27.5 46.333 43.5 63s30.5 31.167 43.5 43.5s19.5 26.166 19.5 41.499c0 14.667 -7.33301 22 -22 22c-18 0 -27 -11.333 -27 -34h-163l-2 7v-7h-43c0 34.667 6 67 18 97s28.5 56.333 49.5 79s45.667 40.5 74 53.5s59.166 19.5 92.499 19.5
c38.667 0 72.667 -5.83301 102 -17.5s53.833 -28 73.5 -49s34.5 -45.667 44.5 -74s15 -59.166 15 -92.499c0 -38.667 -7.16699 -68.5 -21.5 -89.5s-29.833 -39 -46.5 -54s-32.167 -30 -46.5 -45s-21.5 -35.833 -21.5 -62.5z" />
    <glyph glyph-name="at" unicode="@" horiz-adv-x="1006" 
d="M943 127l-387.004 0.00292969v182c0 15.333 -4.16699 28.333 -12.5 39s-21.5 16 -39.5 16c-14.667 0 -26.667 -5 -36 -15s-14 -22.667 -14 -38s5 -27.5 15 -36.5s22.333 -13.5 37 -13.5c8 0 16 1.33301 24 4v-138c-12 -2 -22.333 -3 -31 -3
c-25.333 0 -49.333 5.16699 -72 15.5s-42.334 24.166 -59.001 41.499s-29.834 37.5 -39.501 60.5s-14.5 47.167 -14.5 72.5c0 26 4.83301 50.5 14.5 73.5s23 43 40 60s36.833 30.333 59.5 40s47.334 14.5 74.001 14.5c32.667 0 61.167 -5 85.5 -15s44.5 -23.5 60.5 -40.5
s28 -36.667 36 -59s12 -45.833 12 -70.5v-56h141c2.66699 12.667 4 30 4 52c0 52.667 -8.5 100 -25.5 142s-40.667 77.5 -71 106.5s-66.166 51.167 -107.499 66.5s-86.333 23 -135 23c-51.333 0 -97.666 -8.16699 -138.999 -24.5s-76.666 -39.5 -105.999 -69.5
s-52 -65.667 -68 -107s-24 -87 -24 -137s8.16699 -95.833 24.5 -137.5s39.333 -77.334 69 -107.001s64.834 -52.667 105.501 -69s85 -24.5 133 -24.5c76 0 142.333 17.667 199 53v-150c-30.667 -13.333 -62.667 -23.666 -96 -30.999s-67.666 -11 -102.999 -11
c-62.667 0 -122.5 12.667 -179.5 38s-107.167 59.666 -150.5 102.999s-77.833 94 -103.5 152s-38.5 119.333 -38.5 184c0 64 12.5 124.833 37.5 182.5s59 108.5 102 152.5s93.5 78.833 151.5 104.5s120 38.5 186 38.5c61.333 0 120.833 -12 178.5 -36
s108.667 -57.167 153 -99.5s80 -92.833 107 -151.5s40.5 -122.334 40.5 -191.001c0 -66 -12.667 -128 -38 -186z" />
    <glyph glyph-name="A" unicode="A" horiz-adv-x="667" 
d="M632 0l-220.999 0.000976562v159h-154v-159h-222v410c0 45.333 7 87.833 21 127.5s34 74.167 60 103.5s57.667 52.666 95 69.999s79.666 26 126.999 26s89.333 -8.33301 126 -25s67.5 -39.834 92.5 -69.501s43.833 -64.667 56.5 -105s19 -84.166 19 -131.499v-406z
M257.001 349.001l153.999 -0.000976562v64c0 32.667 -5.33301 57.167 -16 73.5s-29.667 24.5 -57 24.5c-25.333 0 -45.166 -8.16699 -59.499 -24.5s-21.5 -41.166 -21.5 -74.499v-63z" />
    <glyph glyph-name="B" unicode="B" horiz-adv-x="661" 
d="M300 308l-0.00390625 128.001h16c29.333 0 49 3.33301 59 10s15 15.334 15 26.001c0 13.333 -5 23.666 -15 30.999s-29.667 11 -59 11h-52v-308h36c22.667 0 40.834 1.16699 54.501 3.5s24.334 5.66602 32.001 9.99902s12.834 9.5 15.501 15.5s4 12.667 4 20
c0 15.333 -5.66699 28 -17 38s-35.666 15 -72.999 15h-16zM38.9961 0.000976562v720h290c94 0 165.667 -19 215 -57s74 -92.333 74 -163c0 -22 -3.83301 -43.333 -11.5 -64s-20.834 -40 -39.501 -58c20.667 -16.667 37.834 -38.834 51.501 -66.501s20.5 -54.5 20.5 -80.5
c0 -81.333 -27.833 -140.166 -83.5 -176.499s-137.167 -54.5 -244.5 -54.5h-272z" />
    <glyph glyph-name="C" unicode="C" horiz-adv-x="528" 
d="M503 224v-222.002c-16.667 -6.66699 -35.334 -11.334 -56.001 -14.001s-42.667 -4 -66 -4c-51.333 0 -99 9.5 -143 28.5s-82.5 45.333 -115.5 79s-58.833 73.334 -77.5 119.001s-28 95.5 -28 149.5c0 52 9.83301 100.833 29.5 146.5s46.834 85.5 81.501 119.5
s75.667 61 123 81s98.333 30 153 30c39.333 0 72.333 -5.66699 99 -17v-219c-18 8.66699 -35.667 14.834 -53 18.501s-34.333 5.5 -51 5.5c-47.333 0 -84.833 -15.667 -112.5 -47s-41.5 -70.666 -41.5 -117.999s13.667 -86.5 41 -117.5s62.666 -46.5 105.999 -46.5
c14.667 0 31.334 2 50.001 6s39 11.333 61 22z" />
    <glyph glyph-name="D" unicode="D" horiz-adv-x="698" 
d="M263 511v-302.001h51c41.333 0 75.166 11.333 101.499 34s39.5 61.334 39.5 116.001c0 50.667 -13.167 88.667 -39.5 114s-60.166 38 -101.499 38h-51zM39 -0.000976562v720.003h275c52 0 100.5 -8.16699 145.5 -24.5s83.833 -40 116.5 -71s58.334 -68.833 77.001 -113.5
s28 -95.334 28 -152.001s-9.33301 -107.334 -28 -152.001s-44.334 -82.334 -77.001 -113.001s-71.5 -54 -116.5 -70s-93.5 -24 -145.5 -24h-275z" />
    <glyph glyph-name="E" unicode="E" horiz-adv-x="539" 
d="M507 439l-0.00292969 -129.005h-190c-19.333 0 -35.333 -4.16699 -48 -12.5s-19 -20.166 -19 -35.499c0 -35.333 30.667 -53 92 -53h165v-209h-197c-93.333 0 -164.166 18.833 -212.499 56.5s-72.5 95.5 -72.5 173.5c0 28 3 53 9 75s20 45.667 42 71
c-17.333 18.667 -30.166 38.334 -38.499 59.001s-12.5 40.667 -12.5 60c0 42 7.5 77.333 22.5 106s35.333 51.834 61 69.501s55.834 30.334 90.501 38.001s71.667 11.5 111 11.5h197v-207h-187c-26 0 -44.167 -2.66699 -54.5 -8s-15.5 -14.666 -15.5 -27.999
s5.5 -23 16.5 -29s29.167 -9 54.5 -9h186z" />
    <glyph glyph-name="F" unicode="F" horiz-adv-x="639" 
d="M253 0h-220.999v410c0 45.333 7 87.833 21 127.5s34 74.167 60 103.5s57.667 52.666 95 69.999s79.666 26 126.999 26s89.333 -8.16699 126 -24.5s67.5 -39 92.5 -68s43.833 -63.5 56.5 -103.5s19 -83.667 19 -131v-20h-221v20c0 32.667 -5.33301 57.667 -16 75
s-29.667 26 -57 26c-24.667 0 -44.5 -8.16699 -59.5 -24.5s-22.5 -41.166 -22.5 -74.499v-63h235v-190h-235v-159z" />
    <glyph glyph-name="G" unicode="G" horiz-adv-x="636" 
d="M604 718l-0.000976562 -215c-34.667 7.33301 -66.167 12.833 -94.5 16.5s-53.833 5.5 -76.5 5.5c-55.333 0 -100.666 -14.833 -135.999 -44.5s-53 -69.834 -53 -120.501c0 -54 12.5 -95 37.5 -123s58.5 -42 100.5 -42v224h222v-414
c-27.333 -7.33301 -58 -12.833 -92 -16.5s-64.333 -5.5 -91 -5.5c-54.667 0 -106.5 8.83301 -155.5 26.5s-91.833 42.834 -128.5 75.501s-65.667 72.167 -87 118.5s-32 98.5 -32 156.5c0 56.667 10.667 108.167 32 154.5s50.333 86 87 119s79.667 58.5 129 76.5
s102 27 158 27c33.333 0 65 -1.5 95 -4.5s58.333 -7.83301 85 -14.5z" />
    <glyph glyph-name="H" unicode="H" horiz-adv-x="676" 
d="M412 720h225v-720h-225v285h-148v-285h-225v720h225v-258h148v258z" />
    <glyph glyph-name="I" unicode="I" horiz-adv-x="303" 
d="M39 720h225v-720h-225v720z" />
    <glyph glyph-name="J" unicode="J" horiz-adv-x="365" 
d="M110 720h224.001v-443c0 -46 -3.5 -87.167 -10.5 -123.5s-19 -66.833 -36 -91.5s-40.167 -43.5 -69.5 -56.5s-66 -19.5 -110 -19.5c-13.333 0 -28.333 1 -45 3s-35.334 5.66699 -56.001 11v208c8 -3.33301 17.333 -6 28 -8s19 -3 25 -3c15.333 0 27.5 7.5 36.5 22.5
s13.5 38.167 13.5 69.5v431z" />
    <glyph glyph-name="K" unicode="K" horiz-adv-x="659" 
d="M396 720l221.997 0.00292969v-177c0 -40.667 -5 -73.334 -15 -98.001s-27.333 -47.334 -52 -68.001c28.667 -18.667 48.334 -41.5 59.001 -68.5s16 -64.167 16 -111.5v-197h-222v185c0 21.333 -1.66699 38.666 -5 51.999s-8.66602 23.5 -15.999 30.5
s-17.166 11.667 -29.499 14s-27.5 3.5 -45.5 3.5h-47v-285h-222v720h222v-276h44c38 0 62.667 8.16699 74 24.5s17 44.5 17 84.5v167z" />
    <glyph glyph-name="L" unicode="L" horiz-adv-x="367" 
d="M361 206v-206.001h-61c-50.667 0 -93 4.66699 -127 14s-61.5 24.666 -82.5 45.999s-36 49.833 -45 85.5s-13.5 79.5 -13.5 131.5v443h225v-421c0 -20 1.16699 -36.167 3.5 -48.5s6.5 -21.666 12.5 -27.999s14.5 -10.666 25.5 -12.999s25.167 -3.5 42.5 -3.5h20z" />
    <glyph glyph-name="M" unicode="M" horiz-adv-x="987" 
d="M32 0l-0.00195312 396c0 44.667 5.66699 87.5 17 128.5s28.5 77.333 51.5 109s52.333 56.834 88 75.501s77.834 28 126.501 28c36 0 68.833 -5.16699 98.5 -15.5s56.167 -24.833 79.5 -43.5c47.333 39.333 107 59 179 59c48.667 0 90.834 -9.33301 126.501 -28
s65 -43.834 88 -75.501s40.167 -68 51.5 -109s17 -83.833 17 -128.5v-396h-224v390c0 28 -1 50.833 -3 68.5s-5.33301 31.5 -10 41.5s-11 16.667 -19 20s-18.333 5 -31 5c-12 0 -21.833 -1.66699 -29.5 -5s-14 -9.66602 -19 -18.999s-8.5 -22.333 -10.5 -39
s-3 -38.334 -3 -65.001v-397h-225v397c0 26.667 -1.16699 48.334 -3.5 65.001s-6 29.667 -11 39s-11.333 15.666 -19 18.999s-17.167 5 -28.5 5c-12 0 -21.833 -1.66699 -29.5 -5s-14 -10 -19 -20s-8.5 -23.833 -10.5 -41.5s-3 -40.5 -3 -68.5v-390h-225z" />
    <glyph glyph-name="N" unicode="N" horiz-adv-x="664" 
d="M264 0l-225 -0.000976562v720h337c45.333 0 84.166 -4.16699 116.499 -12.5s58.833 -22.666 79.5 -42.999s35.834 -47.333 45.501 -81s14.5 -75.5 14.5 -125.5v-458h-224v422c0 38 -4.66699 62.333 -14 73s-26.333 16 -51 16h-79v-511z" />
    <glyph glyph-name="O" unicode="O" horiz-adv-x="788" 
d="M394 -17c-50 0 -97.833 9.66797 -143.5 29.001s-85.667 46 -120 80s-61.833 73.833 -82.5 119.5s-31 94.834 -31 147.501c0 52 10.333 101 31 147s48.167 86 82.5 120s74.333 61 120 81s93.5 30 143.5 30c52 0 101 -10 147 -30s86 -47.167 120 -81.5
s60.833 -74.833 80.5 -121.5s29.5 -96.334 29.5 -149.001c0 -51.333 -9.83301 -99.5 -29.5 -144.5s-46.5 -84.333 -80.5 -118s-74 -60.334 -120 -80.001s-95 -29.5 -147 -29.5zM393 195.001c20 0 39 4.16699 57 12.5s34 19.666 48 33.999s25 31.5 33 51.5s12 42 12 66
s-3.83301 46 -11.5 66s-18.334 37.5 -32.001 52.5s-29.5 26.667 -47.5 35s-37.333 12.5 -58 12.5c-21.333 0 -41 -4.16699 -59 -12.5s-33.667 -20 -47 -35s-23.833 -32.5 -31.5 -52.5s-11.5 -42 -11.5 -66s3.83301 -46 11.5 -66s18.334 -37.167 32.001 -51.5
s29.5 -25.666 47.5 -33.999s37 -12.5 57 -12.5z" />
    <glyph glyph-name="P" unicode="P" horiz-adv-x="621" 
d="M303 203v208.997c21.333 0 38.833 3.33301 52.5 10s20.5 19.334 20.5 38.001c0 14.667 -6 26.834 -18 36.501s-30.333 14.5 -55 14.5h-39v-511h-225v720h268c44 0 84.5 -5.5 121.5 -16.5s69 -27.333 96 -49s48.167 -48.167 63.5 -79.5s23 -67.666 23 -108.999
c0 -90.667 -27.167 -157.167 -81.5 -199.5s-129.833 -63.5 -226.5 -63.5z" />
    <glyph glyph-name="Q" unicode="Q" horiz-adv-x="788" 
d="M394 -17c-50 0 -97.833 9.66797 -143.5 29.001s-85.667 46 -120 80s-61.833 73.833 -82.5 119.5s-31 94.834 -31 147.501c0 52 10.333 101 31 147s48.167 86 82.5 120s74.333 61 120 81s93.5 30 143.5 30c52 0 101 -10 147 -30s86 -47.167 120 -81.5
s60.833 -74.833 80.5 -121.5s29.5 -96.334 29.5 -149.001c0 -62 -15 -119.333 -45 -172l51 -52l-160 -156l-51 50c-26 -12.667 -53.5 -22.834 -82.5 -30.501s-58.833 -11.5 -89.5 -11.5zM393 195.001c20 0 39 4.16699 57 12.5s34 19.666 48 33.999s25 31.5 33 51.5
s12 42 12 66s-3.83301 46 -11.5 66s-18.334 37.5 -32.001 52.5s-29.5 26.667 -47.5 35s-37.333 12.5 -58 12.5c-21.333 0 -41 -4.16699 -59 -12.5s-33.667 -20 -47 -35s-23.833 -32.5 -31.5 -52.5s-11.5 -42 -11.5 -66s3.83301 -46 11.5 -66s18.334 -37.167 32.001 -51.5
s29.5 -25.666 47.5 -33.999s37 -12.5 57 -12.5z" />
    <glyph glyph-name="R" unicode="R" horiz-adv-x="641" 
d="M262 0l-222.999 0.00195312v720h262c42 0 81.5 -4.16699 118.5 -12.5s69.5 -21.833 97.5 -40.5s50 -42.834 66 -72.501s24 -65.834 24 -108.501c0 -28.667 -4.83301 -57.5 -14.5 -86.5s-26.834 -52.5 -51.501 -70.5c29.333 -22 48.333 -46.833 57 -74.5
s13 -62.167 13 -103.5v-151h-228v151c0 31.333 -4.83301 53 -14.5 65s-26.5 18 -50.5 18h-17v161h17c22 0 37.5 4.83301 46.5 14.5s13.5 24.167 13.5 43.5c0 20 -5 34.5 -15 43.5s-30.667 13.5 -62 13.5h-39v-510z" />
    <glyph glyph-name="S" unicode="S" horiz-adv-x="391" 
d="M375 726l0.00292969 -214.002c-10 4 -21.333 7.5 -34 10.5s-22.667 4.5 -30 4.5c-12.667 0 -23.167 -4 -31.5 -12s-12.5 -17 -12.5 -27c0 -16 4.5 -34.5 13.5 -55.5s19.167 -42.667 30.5 -65s21.5 -45 30.5 -68s13.5 -44.5 13.5 -64.5
c0 -81.333 -21.833 -143.166 -65.5 -185.499s-108.834 -63.5 -195.501 -63.5c-8.66699 0 -18.334 0.833008 -29.001 2.5s-27 4.83398 -49 9.50098v214c10 -4 22.167 -7.33301 36.5 -10s25.833 -4 34.5 -4c13.333 0 23.666 3.83301 30.999 11.5s11 16.5 11 26.5
c0 12 -4.5 27.833 -13.5 47.5l-29.5 64c-10.667 23 -20.5 47 -29.5 72s-13.5 49.167 -13.5 72.5c0 80 20.833 141.167 62.5 183.5s103.167 63.5 184.5 63.5c26.667 0 55 -4.33301 85 -13z" />
    <glyph glyph-name="T" unicode="T" horiz-adv-x="551" 
d="M544 720v-209h-156v-511h-225v511h-156v209h537z" />
    <glyph glyph-name="U" unicode="U" horiz-adv-x="657" 
d="M400 720l224.998 -0.000976562v-397c0 -49.333 -6.83301 -94.833 -20.5 -136.5s-33.334 -77.5 -59.001 -107.5s-57.167 -53.5 -94.5 -70.5s-79.666 -25.5 -126.999 -25.5c-48.667 0 -91.167 9.33301 -127.5 28s-66.666 43.834 -90.999 75.501s-42.666 68 -54.999 109
s-18.5 83.833 -18.5 128.5v396h225v-390c0 -28 1.33301 -50.833 4 -68.5s7 -31.5 13 -41.5s13.5 -16.667 22.5 -20s19.5 -5 31.5 -5c12.667 0 23.5 1.66699 32.5 5s16.5 10 22.5 20s10.333 23.833 13 41.5s4 40.5 4 68.5v390z" />
    <glyph glyph-name="V" unicode="V" horiz-adv-x="633" 
d="M317 209c12.667 30 23.6689 61.333 33.002 94s17 69.167 23 109.5s10.5 85.5 13.5 135.5s4.5 107.333 4.5 172h226c0 -90 -3.83301 -170.167 -11.5 -240.5s-18.834 -134 -33.501 -191s-33.334 -108.667 -56.001 -155s-49 -90.833 -79 -133.5h-241
c-30 42.667 -56.167 87.167 -78.5 133.5s-41 98 -56 155s-26.167 120.667 -33.5 191s-11 150.5 -11 240.5h226c0 -64.667 1.5 -122 4.5 -172s7.5 -95.167 13.5 -135.5s13.667 -76.833 23 -109.5s20.333 -64 33 -94z" />
    <glyph glyph-name="W" unicode="W" horiz-adv-x="987" 
d="M955 720l0.000976562 -396c0 -44.667 -5.66699 -87.5 -17 -128.5s-28.5 -77.333 -51.5 -109s-52.333 -56.834 -88 -75.501s-77.834 -28 -126.501 -28c-36 0 -68.833 5.16699 -98.5 15.5s-56.167 24.833 -79.5 43.5c-47.333 -39.333 -107 -59 -179 -59
c-48.667 0 -90.834 9.33301 -126.501 28s-65 43.834 -88 75.501s-40.167 68 -51.5 109s-17 83.833 -17 128.5v396h225v-390c0 -28 0.833008 -50.833 2.5 -68.5s4.83398 -31.5 9.50098 -41.5s11 -16.667 19 -20s18.333 -5 31 -5c12 0 21.833 1.66699 29.5 5
s14 9.66602 19 18.999s8.5 22.333 10.5 39s3 38.334 3 65.001v397h225v-397c0 -26.667 1.16699 -48.334 3.5 -65.001s6 -29.667 11 -39s11.5 -15.666 19.5 -18.999s17.333 -5 28 -5c12 0 22 1.66699 30 5s14.5 10 19.5 20s8.5 23.833 10.5 41.5s3 40.5 3 68.5v390h224z" />
    <glyph glyph-name="X" unicode="X" horiz-adv-x="663" 
d="M331 441c26 0 45 6.66699 57 20s18 39.333 18 78v181h222v-183c0 -24 -1.33301 -43.833 -4 -59.5s-7 -29 -13 -40s-13.833 -21 -23.5 -30s-21.5 -19.167 -35.5 -30.5c27.333 -23.333 46.833 -48 58.5 -74s17.5 -60.333 17.5 -103v-200h-222v200
c0 31.333 -6 53.333 -18 66s-31 19 -57 19c-25.333 0 -44 -6.33301 -56 -19s-18 -34.667 -18 -66v-200h-222v200c0 42.667 5.83301 77 17.5 103s31.167 50.667 58.5 74c-14 11.333 -25.833 21.5 -35.5 30.5s-17.5 19 -23.5 30s-10.333 24.333 -13 40s-4 35.5 -4 59.5v183
h222v-181c0 -38.667 6 -64.667 18 -78s30.667 -20 56 -20z" />
    <glyph glyph-name="Y" unicode="Y" horiz-adv-x="627" 
d="M388 720l221.999 -0.000976562v-213c0 -68 -15.667 -127.167 -47 -177.5s-77.666 -87.166 -138.999 -110.499v-219h-221v219c-124 48.667 -186 147.334 -186 296.001v205h222v-208c0 -32.667 6 -56.334 18 -71.001s31 -22 57 -22c49.333 0 74 30 74 90v211z" />
    <glyph glyph-name="Z" unicode="Z" horiz-adv-x="598" 
d="M576 209v-209h-555l221 511h-234v209h581l-228 -511h215z" />
    <glyph glyph-name="bracketleft" unicode="[" horiz-adv-x="374" 
d="M336 -120h-268v960h268v-181h-72v-598h72v-181z" />
    <glyph glyph-name="backslash" unicode="\" horiz-adv-x="324" 
d="M208 0l-198 720h105l200 -720h-107z" />
    <glyph glyph-name="bracketright" unicode="]" horiz-adv-x="374" 
d="M38 -120v181h72v598h-72v181h268v-960h-268z" />
    <glyph glyph-name="asciicircum" unicode="^" horiz-adv-x="541" 
d="M269 669l-137 -207h-76l182 275h65l182 -275h-76z" />
    <glyph glyph-name="underscore" unicode="_" horiz-adv-x="512" 
d="M-12 -153v90h536v-90h-536z" />
    <glyph glyph-name="grave" unicode="`" horiz-adv-x="541" 
d="M215 731l81 -137h-119l-84 137h122z" />
    <glyph glyph-name="a" unicode="a" horiz-adv-x="520" 
d="M493 0l-171.999 0.00195312v124h-121v-124h-173v320c0 34.667 5.33301 67.5 16 98.5s26.334 58.167 47.001 81.5s45.5 41.666 74.5 54.999s62.167 20 99.5 20s70.166 -6.5 98.499 -19.5s52.166 -31 71.499 -54s34 -50.333 44 -82s15 -65.834 15 -102.501v-317z
M200.001 272.002h120.999v50c0 25.333 -4.16699 44.5 -12.5 57.5s-23.166 19.5 -44.499 19.5c-19.333 0 -34.833 -6.5 -46.5 -19.5s-17.5 -32.5 -17.5 -58.5v-49z" />
    <glyph glyph-name="b" unicode="b" horiz-adv-x="516" 
d="M234 240v100h12c22.667 0 38 2.5 46 7.5s12 11.833 12 20.5c0 10 -4 18 -12 24s-23.333 9 -46 9h-40v-240h28c34.667 0 57.167 3.5 67.5 10.5s15.5 16.167 15.5 27.5c0 12 -4.5 21.833 -13.5 29.5s-28.167 11.5 -57.5 11.5h-12zM30 0l-0.00195312 562.001h227
c72.667 0 128.334 -15 167.001 -45s58 -72.333 58 -127c0 -17.333 -3 -34 -9 -50s-16.333 -31 -31 -45c16 -12.667 29.333 -29.834 40 -51.501s16 -42.834 16 -63.501c0 -63.333 -21.667 -109.166 -65 -137.499s-106.666 -42.5 -189.999 -42.5h-213z" />
    <glyph glyph-name="c" unicode="c" horiz-adv-x="412" 
d="M392 175l0.00488281 -173.001c-13.333 -5.33301 -27.833 -9 -43.5 -11s-32.834 -3 -51.501 -3c-40 0 -77.167 7.33301 -111.5 22s-64.333 35.167 -90 61.5s-45.834 57.333 -60.501 93s-22 74.5 -22 116.5c0 40 7.66699 77.833 23 113.5s36.5 66.834 63.5 93.501
s59 47.834 96 63.501s76.833 23.5 119.5 23.5c29.333 0 55 -4.33301 77 -13v-171c-27.333 12.667 -54.333 19 -81 19c-36.667 0 -65.834 -12.333 -87.501 -37s-32.5 -55.334 -32.5 -92.001s10.667 -67.167 32 -91.5s49 -36.5 83 -36.5c11.333 0 24.166 1.5 38.499 4.5
s30.166 8.83301 47.499 17.5z" />
    <glyph glyph-name="d" unicode="d" horiz-adv-x="544" 
d="M205 399v-236.001h40c32 0 58.333 8.83301 79 26.5s31 47.834 31 90.501c0 39.333 -10.333 69 -31 89s-47 30 -79 30h-40zM30 -0.000976562v562.001h215c40.667 0 78.5 -6.33301 113.5 -19s65.167 -31.167 90.5 -55.5s45.333 -54 60 -89s22 -74.5 22 -118.5
c0 -44.667 -7.33301 -84.334 -22 -119.001s-34.667 -64 -60 -88s-55.5 -42.167 -90.5 -54.5s-72.833 -18.5 -113.5 -18.5h-215z" />
    <glyph glyph-name="e" unicode="e" horiz-adv-x="420" 
d="M395 342l-0.000976562 -100h-148c-14.667 0 -27 -3.16699 -37 -9.5s-15 -15.833 -15 -28.5c0 -27.333 24 -41 72 -41h128v-163h-153c-72.667 0 -127.834 14.667 -165.501 44s-56.5 74.333 -56.5 135c0 22 2.33301 41.5 7 58.5s15.334 35.5 32.001 55.5
c-13.333 14.667 -23.166 30.167 -29.499 46.5s-9.5 31.833 -9.5 46.5c0 32.667 5.83301 60.167 17.5 82.5s27.5 40.5 47.5 54.5s43.5 24 70.5 30s55.833 9 86.5 9h153v-162h-145c-20.667 0 -35 -2 -43 -6s-12 -11.333 -12 -22c0 -20 18.333 -30 55 -30h145z" />
    <glyph glyph-name="f" unicode="f" horiz-adv-x="498" 
d="M197 0l-172 0.00195312v320c0 34.667 5.33301 67.5 16 98.5s26.167 58.167 46.5 81.5s45.166 41.666 74.499 54.999s62.333 20 99 20c37.333 0 70.333 -6.33301 99 -19s52.667 -30.334 72 -53.001s34 -49.5 44 -80.5s15 -65.167 15 -102.5v-16h-173v16
c0 25.333 -4.16699 44.833 -12.5 58.5s-23.166 20.5 -44.499 20.5c-19.333 0 -34.833 -6.5 -46.5 -19.5s-17.5 -32.5 -17.5 -58.5v-49h184v-148h-184v-124z" />
    <glyph glyph-name="g" unicode="g" horiz-adv-x="496" 
d="M471 560l-0.000976562 -168.002c-27.333 5.33301 -52 9.66602 -74 12.999s-41.667 5 -59 5c-43.333 0 -78.833 -11.667 -106.5 -35s-41.5 -54.666 -41.5 -93.999c0 -42 9.66699 -74 29 -96s45.666 -33 78.999 -33v175h173v-323c-21.333 -6 -45.166 -10.333 -71.499 -13
s-50.166 -4 -71.499 -4c-42.667 0 -83 6.83301 -121 20.5s-71.333 33.334 -100 59.001s-51.334 56.667 -68.001 93s-25 76.833 -25 121.5c0 44 8.33301 84.167 25 120.5s39.334 67.333 68.001 93s62.167 45.5 100.5 59.5s79.5 21 123.5 21c26 0 50.667 -1.16699 74 -3.5
s45.333 -6.16602 66 -11.499z" />
    <glyph glyph-name="h" unicode="h" horiz-adv-x="527" 
d="M321 562h176v-562h-176v222h-115v-222h-176v562h176v-202h115v202z" />
    <glyph glyph-name="i" unicode="i" horiz-adv-x="236" 
d="M30 562h176v-562h-176v562z" />
    <glyph glyph-name="j" unicode="j" horiz-adv-x="285" 
d="M86 562h175.001v-346c0 -36 -2.83301 -68 -8.5 -96s-15.167 -51.833 -28.5 -71.5s-31.333 -34.5 -54 -44.5s-51.334 -15 -86.001 -15c-10.667 0 -22.5 0.833008 -35.5 2.5s-27.5 4.5 -43.5 8.5v162c6.66699 -2.66699 14.167 -4.66699 22.5 -6s14.833 -2 19.5 -2
c26 0 39 23.667 39 71v337z" />
    <glyph glyph-name="k" unicode="k" horiz-adv-x="514" 
d="M309 562l173 0.00195312v-138c0 -32 -4 -57.5 -12 -76.5s-21.333 -36.833 -40 -53.5c22 -14.667 37.167 -32.334 45.5 -53.001s12.5 -49.667 12.5 -87v-154h-173v144c0 33.333 -5.5 54.666 -16.5 63.999s-30.5 14 -58.5 14h-36v-222h-174v562h174v-216h34
c29.333 0 48.5 6.33301 57.5 19s13.5 34.667 13.5 66v131z" />
    <glyph glyph-name="l" unicode="l" horiz-adv-x="286" 
d="M282 161l0.000976562 -161.003h-48c-39.333 0 -72.333 3.66699 -99 11s-48.167 19.333 -64.5 36s-28 38.834 -35 66.501s-10.5 61.834 -10.5 102.501v346h175v-329c0 -31.333 4.16699 -51.166 12.5 -59.499s26.166 -12.5 53.499 -12.5h16z" />
    <glyph glyph-name="m" unicode="m" horiz-adv-x="770" 
d="M25 0l0.00195312 309c0 34.667 4.33301 68 13 100s22.167 60.333 40.5 85s41.333 44.334 69 59.001s60.5 22 98.5 22c28 0 53.667 -4 77 -12s44 -19.333 62 -34c17.333 14.667 37.833 26 61.5 34s49.5 12 77.5 12c38 0 70.833 -7.33301 98.5 -22
s50.667 -34.334 69 -59.001s31.833 -53 40.5 -85s13 -65.333 13 -100v-309h-175v304c0 44 -3.33301 72.667 -10 86s-19.667 20 -39 20c-18.667 0 -31.334 -6.33301 -38.001 -19s-10 -39.667 -10 -81v-310h-176v310c0 41.333 -3.83301 68.333 -11.5 81s-19.834 19 -36.501 19
c-18.667 0 -31.5 -6.66699 -38.5 -20s-10.5 -42 -10.5 -86v-304h-175z" />
    <glyph glyph-name="n" unicode="n" horiz-adv-x="518" 
d="M206 0h-175.999v562h263c35.333 0 65.666 -3.33301 90.999 -10s46 -17.834 62 -33.501s27.833 -36.667 35.5 -63s11.5 -59.166 11.5 -98.499v-357h-175v329c0 29.333 -3.66699 48.333 -11 57s-20.333 13 -39 13h-62v-399z" />
    <glyph glyph-name="o" unicode="o" horiz-adv-x="615" 
d="M307 -13c-39.333 0 -76.666 7.49707 -111.999 22.4971s-66.5 35.833 -93.5 62.5s-48.5 57.667 -64.5 93s-24 73.666 -24 114.999c0 40.667 8 78.834 24 114.501s37.5 66.834 64.5 93.501s58.167 47.834 93.5 63.501s72.666 23.5 111.999 23.5
c40.667 0 78.834 -7.83301 114.501 -23.5s66.834 -37 93.501 -64s47.667 -58.5 63 -94.5s23 -74.667 23 -116c0 -40 -7.66699 -77.5 -23 -112.5s-36.333 -65.667 -63 -92s-57.834 -47.166 -93.501 -62.499s-73.834 -23 -114.501 -23zM307 151.997c31.333 0 58.667 12 82 36
s35 54.667 35 92s-11.5 68.333 -34.5 93s-50.5 37 -82.5 37c-32.667 0 -60.167 -12.333 -82.5 -37s-33.5 -55.667 -33.5 -93s11.333 -68 34 -92s50 -36 82 -36z" />
    <glyph glyph-name="p" unicode="p" horiz-adv-x="484" 
d="M236 158v163c17.333 0 31.166 2.5 41.499 7.5s15.5 15.167 15.5 30.5c0 11.333 -4.66699 20.833 -14 28.5s-23.666 11.5 -42.999 11.5h-30v-399h-176v562h209c34 0 65.667 -4.33301 95 -13s54.5 -21.5 75.5 -38.5s37.5 -37.833 49.5 -62.5s18 -53 18 -85
c0 -70.667 -21.167 -122.5 -63.5 -155.5s-101.5 -49.5 -177.5 -49.5z" />
    <glyph glyph-name="q" unicode="q" horiz-adv-x="615" 
d="M307 -13c-39.333 0 -76.668 7.5 -112.001 22.5s-66.5 35.833 -93.5 62.5s-48.5 57.667 -64.5 93s-24 73.666 -24 114.999c0 40.667 8 78.834 24 114.501s37.5 66.834 64.5 93.501s58.167 47.834 93.5 63.501s72.666 23.5 111.999 23.5
c40.667 0 78.834 -7.83301 114.501 -23.5s66.834 -37 93.501 -64s47.667 -58.5 63 -94.5s23 -74.667 23 -116c0 -48.667 -11.667 -93.334 -35 -134.001l40 -41l-125 -122l-40 40c-20 -10.667 -41.167 -18.834 -63.5 -24.501s-45.833 -8.5 -70.5 -8.5zM306.998 152
c31.333 0 58.667 12 82 36s35 54.667 35 92s-11.5 68.333 -34.5 93s-50.5 37 -82.5 37c-32.667 0 -60.167 -12.333 -82.5 -37s-33.5 -55.667 -33.5 -93s11.333 -68 34 -92s50 -36 82 -36z" />
    <glyph glyph-name="r" unicode="r" horiz-adv-x="500" 
d="M204 0l-173.999 -0.00292969v562h205c32.667 0 63.5 -3.33301 92.5 -10s54.167 -17.167 75.5 -31.5s38.333 -33.166 51 -56.499s19 -51.666 19 -84.999c0 -22 -3.66699 -44.333 -11 -67s-20.666 -41 -39.999 -55c22.667 -17.333 37.5 -36.666 44.5 -57.999
s10.5 -48.333 10.5 -81v-118h-178v118c0 24.667 -3.83301 41.667 -11.5 51s-20.834 14 -39.501 14h-13v125h13c31.333 0 47 15 47 45c0 16 -3.83301 27.5 -11.5 34.5s-23.834 10.5 -48.501 10.5h-31v-398z" />
    <glyph glyph-name="s" unicode="s" horiz-adv-x="305" 
d="M292 566l-0.00195312 -166.998c-7.33301 3.33301 -16 6.16602 -26 8.49902s-17.667 3.5 -23 3.5c-10.667 0 -19.167 -3.16699 -25.5 -9.5s-9.5 -13.166 -9.5 -20.499c0 -12.667 3.66699 -27.167 11 -43.5l23.5 -51c8.33301 -17.667 16.166 -35.334 23.499 -53.001
s11 -34.5 11 -50.5c0 -129.333 -68 -194 -204 -194c-6.66699 0 -14.167 0.666992 -22.5 2s-21.166 3.66602 -38.499 6.99902v167c8 -3.33301 17.667 -6 29 -8s20.333 -3 27 -3c10.667 0 18.834 3 24.501 9s8.5 13 8.5 21c0 9.33301 -3.5 21.666 -10.5 36.999l-23 50
c-8.33301 18 -16 36.667 -23 56s-10.5 38.333 -10.5 57c0 62.667 16.333 110.334 49 143.001s80.334 49 143.001 49c21.333 0 43.333 -3.33301 66 -10z" />
    <glyph glyph-name="t" unicode="t" horiz-adv-x="430" 
d="M424 562v-163h-121v-399h-176v399h-122v163h419z" />
    <glyph glyph-name="u" unicode="u" horiz-adv-x="512" 
d="M312 562h175.002v-310c0 -38.667 -5.33301 -74.167 -16 -106.5s-26 -60.333 -46 -84s-44.5 -42 -73.5 -55s-61.833 -19.5 -98.5 -19.5c-38 0 -71.333 7.33301 -100 22s-52.334 34.167 -71.001 58.5s-32.834 52.5 -42.501 84.5s-14.5 65.667 -14.5 101v309h175v-305
c0 -44 4.66699 -72.5 14 -85.5s23.333 -19.5 42 -19.5c19.333 0 33.5 6.5 42.5 19.5s13.5 41.5 13.5 85.5v305z" />
    <glyph glyph-name="v" unicode="v" horiz-adv-x="494" 
d="M247 163c10 23.333 18.5029 47.833 25.5029 73.5s13 54.167 18 85.5s8.66699 66.5 11 105.5s3.5 83.833 3.5 134.5h176c0 -70 -3 -132.5 -9 -187.5s-14.833 -104.667 -26.5 -149s-26.167 -84.666 -43.5 -120.999s-37.666 -71.166 -60.999 -104.499h-188
c-23.333 33.333 -43.833 68.166 -61.5 104.499s-32.334 76.666 -44.001 120.999s-20.334 94 -26.001 149s-8.5 117.5 -8.5 187.5h177c0 -50.667 1.16699 -95.5 3.5 -134.5s5.66602 -74.167 9.99902 -105.5s10.166 -59.833 17.499 -85.5s16 -50.167 26 -73.5z" />
    <glyph glyph-name="w" unicode="w" horiz-adv-x="770" 
d="M745 562l-0.000976562 -309c0 -35.333 -4.33301 -69 -13 -101s-22.167 -60.167 -40.5 -84.5s-41.333 -43.833 -69 -58.5s-60.5 -22 -98.5 -22c-28 0 -53.5 4 -76.5 12s-43.833 19.333 -62.5 34c-36.667 -30.667 -83 -46 -139 -46c-38 0 -70.833 7.33301 -98.5 22
s-50.667 34.167 -69 58.5s-31.833 52.5 -40.5 84.5s-13 65.667 -13 101v309h175v-305c0 -44 3.33301 -72.5 10 -85.5s19.667 -19.5 39 -19.5c18 0 30.5 6.16699 37.5 18.5s10.5 39.5 10.5 81.5v310h176v-310c0 -42 3.83301 -69.167 11.5 -81.5s19.834 -18.5 36.501 -18.5
c18.667 0 31.5 6.5 38.5 19.5s10.5 41.5 10.5 85.5v305h175z" />
    <glyph glyph-name="x" unicode="x" horiz-adv-x="517" 
d="M258 344c20.667 0 35.6699 5.16699 45.0029 15.5s14 30.5 14 60.5v142h173v-143c0 -18.667 -1.16699 -34.167 -3.5 -46.5s-5.83301 -22.833 -10.5 -31.5s-10.667 -16.5 -18 -23.5s-16.333 -14.833 -27 -23.5c20.667 -18 35.667 -37.167 45 -57.5s14 -47.166 14 -80.499
v-156h-173v156c0 24.667 -4.66699 41.834 -14 51.501s-24.333 14.5 -45 14.5c-20 0 -34.667 -4.83301 -44 -14.5s-14 -26.834 -14 -51.501v-156h-173v156c0 33.333 4.66699 60.166 14 80.499s24.666 39.5 45.999 57.5c-10.667 8.66699 -19.834 16.5 -27.501 23.5
s-13.834 14.833 -18.501 23.5s-8.16699 19.167 -10.5 31.5s-3.5 27.833 -3.5 46.5v143h173v-142c0 -30 4.66699 -50.167 14 -60.5s24 -15.5 44 -15.5z" />
    <glyph glyph-name="y" unicode="y" horiz-adv-x="489" 
d="M303 562h173v-167c0 -52.667 -12.333 -98.667 -37 -138s-60.667 -68 -108 -86v-171h-173v171c-96.667 37.333 -145 114.333 -145 231v160h173v-163c0 -48 19.667 -72 59 -72c38.667 0 58 23.333 58 70v165z" />
    <glyph glyph-name="z" unicode="z" horiz-adv-x="466" 
d="M449 163v-163h-433l173 399h-183v163h453l-177 -399h167z" />
    <glyph glyph-name="braceleft" unicode="{" horiz-adv-x="374" 
d="M336 842v-180.003h-21c-30 -1.33301 -45 -16 -45 -44v-194c0 -18 -1.5 -30.833 -4.5 -38.5s-9.83301 -16.167 -20.5 -25.5c10.667 -9.33301 17.5 -18.166 20.5 -26.499s4.5 -21.166 4.5 -38.499v-194c0 -28.667 15 -43 45 -43h21v-182h-51
c-143.333 0 -215 72.667 -215 218v194c0 28 -11.333 52 -34 72c22.667 18.667 34 42.667 34 72v194c0 72.667 18.5 126.834 55.5 162.501s90.167 53.5 159.5 53.5h51z" />
    <glyph glyph-name="bar" unicode="|" horiz-adv-x="434" 
d="M329 -105h-224v930h224v-930z" />
    <glyph glyph-name="braceright" unicode="}" horiz-adv-x="374" 
d="M38 842l51 0.00195312c69.333 0 122.5 -17.833 159.5 -53.5s55.5 -89.834 55.5 -162.501v-194c0 -29.333 11.333 -53.333 34 -72c-22.667 -20 -34 -44 -34 -72v-194c0 -145.333 -71.667 -218 -215 -218h-51v182h21c29.333 0 44 14.333 44 43v194
c0 17.333 1.66699 30.166 5 38.499s10.333 17.166 21 26.499c-10.667 9.33301 -17.667 17.833 -21 25.5s-5 20.5 -5 38.5v194c0 28.667 -14.667 43.334 -44 44.001h-21v180z" />
    <glyph glyph-name="asciitilde" unicode="~" 
d="M586 522l0.00195312 -158.001c-53.333 -47.333 -102.333 -71 -147 -71c-11.333 0 -28.166 3.5 -50.499 10.5l-70 23l-69 23c-21.667 7 -37.5 10.5 -47.5 10.5c-22.667 0 -46 -6.5 -70 -19.5s-51 -33.833 -81 -62.5v157c31.333 26.667 59.666 45.834 84.999 57.501
s50.666 17.5 75.999 17.5c13.333 0 30.333 -3.5 51 -10.5s42.167 -14.833 64.5 -23.5s43.666 -16.5 63.999 -23.5s36.5 -10.5 48.5 -10.5c43.333 0 92 26.667 146 80z" />
    <glyph glyph-name="quotesinglbase" horiz-adv-x="288" 
d="M173 -110l-118.999 -0.000976562c28 50.667 46 88 54 112c-49.333 22.667 -74 57.334 -74 104.001c0 30.667 10.667 56.5 32 77.5s47.666 31.5 78.999 31.5c30 0 55.5 -10.5 76.5 -31.5s31.5 -46.167 31.5 -75.5c0 -32 -7.33301 -67 -22 -105s-34 -75.667 -58 -113z" />
    <glyph glyph-name="quotesinglbase" unicode="&#x201a;" horiz-adv-x="288" 
d="M173 -110l-118.999 -0.000976562c28 50.667 46 88 54 112c-49.333 22.667 -74 57.334 -74 104.001c0 30.667 10.667 56.5 32 77.5s47.666 31.5 78.999 31.5c30 0 55.5 -10.5 76.5 -31.5s31.5 -46.167 31.5 -75.5c0 -32 -7.33301 -67 -22 -105s-34 -75.667 -58 -113z" />
    <glyph glyph-name="quotedblbase" horiz-adv-x="541" 
d="M425 -110l-119.001 -0.000976562c29.333 50 47.333 87.333 54 112c-49.333 22.667 -74 57.334 -74 104.001c0 30.667 10.833 56.5 32.5 77.5s47.834 31.5 78.501 31.5c30 0 55.667 -10.5 77 -31.5s32 -46.167 32 -75.5c0 -32 -7.5 -67 -22.5 -105
s-34.5 -75.667 -58.5 -113zM172.999 -110.001l-118.999 -0.000976562c28 50.667 46 88 54 112c-49.333 22.667 -74 57.334 -74 104.001c0 30.667 10.667 56.5 32 77.5s47.666 31.5 78.999 31.5c30 0 55.5 -10.5 76.5 -31.5s31.5 -46.167 31.5 -75.5
c0 -32 -7.33301 -67 -22 -105s-34 -75.667 -58 -113z" />
    <glyph glyph-name="quotedblbase" unicode="&#x201e;" horiz-adv-x="541" 
d="M425 -110l-119.001 -0.000976562c29.333 50 47.333 87.333 54 112c-49.333 22.667 -74 57.334 -74 104.001c0 30.667 10.833 56.5 32.5 77.5s47.834 31.5 78.501 31.5c30 0 55.667 -10.5 77 -31.5s32 -46.167 32 -75.5c0 -32 -7.5 -67 -22.5 -105
s-34.5 -75.667 -58.5 -113zM172.999 -110.001l-118.999 -0.000976562c28 50.667 46 88 54 112c-49.333 22.667 -74 57.334 -74 104.001c0 30.667 10.667 56.5 32 77.5s47.666 31.5 78.999 31.5c30 0 55.5 -10.5 76.5 -31.5s31.5 -46.167 31.5 -75.5
c0 -32 -7.33301 -67 -22 -105s-34 -75.667 -58 -113z" />
    <glyph glyph-name="ellipsis" unicode="&#x85;" horiz-adv-x="854" 
d="M144 -9c-29.333 0 -54.999 10.833 -76.999 32.5s-33 47.5 -33 77.5c0 31.333 11 57.5 33 78.5s48.333 31.5 79 31.5c29.333 0 54.666 -10.833 75.999 -32.5s32 -47.5 32 -77.5s-10.667 -55.833 -32 -77.5s-47.333 -32.5 -78 -32.5zM426.001 -9
c-29.333 0 -54.999 10.833 -76.999 32.5s-33 47.5 -33 77.5c0 31.333 11 57.5 33 78.5s48.333 31.5 79 31.5c29.333 0 54.666 -10.833 75.999 -32.5s32 -47.5 32 -77.5s-10.667 -55.833 -32 -77.5s-47.333 -32.5 -78 -32.5zM710.002 -9
c-29.333 0 -54.999 10.833 -76.999 32.5s-33 47.5 -33 77.5c0 31.333 11 57.5 33 78.5s48.333 31.5 79 31.5c29.333 0 54.666 -10.833 75.999 -32.5s32 -47.5 32 -77.5s-10.667 -55.833 -32 -77.5s-47.333 -32.5 -78 -32.5z" />
    <glyph glyph-name="ellipsis" unicode="&#x2026;" horiz-adv-x="854" 
d="M144 -9c-29.333 0 -54.999 10.833 -76.999 32.5s-33 47.5 -33 77.5c0 31.333 11 57.5 33 78.5s48.333 31.5 79 31.5c29.333 0 54.666 -10.833 75.999 -32.5s32 -47.5 32 -77.5s-10.667 -55.833 -32 -77.5s-47.333 -32.5 -78 -32.5zM426.001 -9
c-29.333 0 -54.999 10.833 -76.999 32.5s-33 47.5 -33 77.5c0 31.333 11 57.5 33 78.5s48.333 31.5 79 31.5c29.333 0 54.666 -10.833 75.999 -32.5s32 -47.5 32 -77.5s-10.667 -55.833 -32 -77.5s-47.333 -32.5 -78 -32.5zM710.002 -9
c-29.333 0 -54.999 10.833 -76.999 32.5s-33 47.5 -33 77.5c0 31.333 11 57.5 33 78.5s48.333 31.5 79 31.5c29.333 0 54.666 -10.833 75.999 -32.5s32 -47.5 32 -77.5s-10.667 -55.833 -32 -77.5s-47.333 -32.5 -78 -32.5z" />
    <glyph glyph-name="dagger" 
d="M428 0h-217v360h-151v210h151v150h217v-150h151v-210h-151v-360z" />
    <glyph glyph-name="dagger" unicode="&#x2020;" 
d="M428 0h-217v360h-151v210h151v150h217v-150h151v-210h-151v-360z" />
    <glyph glyph-name="perthousand" horiz-adv-x="1346" 
d="M637 178c0 -14.667 5.33105 -27.334 15.998 -38.001s23.334 -16 38.001 -16c15.333 0 28.333 5.33301 39 16s16 23.334 16 38.001c0 15.333 -5.16699 28.333 -15.5 39s-23.5 16 -39.5 16c-15.333 0 -28.166 -5.33301 -38.499 -16s-15.5 -23.667 -15.5 -39zM497.998 178
c0 26.667 5 51.6689 15 75.002s23.833 43.833 41.5 61.5s38.167 31.5 61.5 41.5s48.333 15 75 15c27.333 0 52.666 -5 75.999 -15s43.833 -23.833 61.5 -41.5s31.5 -38.167 41.5 -61.5s15 -48.333 15 -75s-5 -51.667 -15 -75s-23.833 -43.833 -41.5 -61.5
s-38.167 -31.5 -61.5 -41.5s-48.666 -15 -75.999 -15c-26.667 0 -51.667 5.16699 -75 15.5s-43.833 24.166 -61.5 41.499s-31.5 37.666 -41.5 60.999s-15 48.333 -15 75zM21.998 538.002c0 26.667 5 51.833 15 75.5s23.667 44.167 41 61.5s37.666 31.166 60.999 41.499
s48.333 15.5 75 15.5s51.667 -5.16699 75 -15.5s43.666 -24.166 60.999 -41.499s30.833 -37.833 40.5 -61.5s14.5 -48.834 14.5 -75.501s-4.83301 -51.667 -14.5 -75s-23.167 -43.666 -40.5 -60.999s-37.666 -31.166 -60.999 -41.499s-48.333 -15.5 -75 -15.5
s-51.667 5.16699 -75 15.5s-43.666 24.166 -60.999 41.499s-31 37.833 -41 61.5s-15 48.5 -15 74.5zM158.998 538.001c0 -14.667 5.5 -27.667 16.5 -39s23.833 -17 38.5 -17c15.333 0 28.333 5.66699 39 17s16 24.333 16 39c0 16 -5.16699 29.333 -15.5 40
s-23.5 16 -39.5 16c-15.333 0 -28.333 -5.5 -39 -16.5s-16 -24.167 -16 -39.5zM254.998 0.000976562h-106l500 720h106zM1076 178.001c0 -14.667 5.33301 -27.334 16 -38.001s23.667 -16 39 -16s28.333 5.33301 39 16s16 23.334 16 38.001c0 15.333 -5.33301 28.333 -16 39
s-23.667 16 -39 16s-28.333 -5.33301 -39 -16s-16 -23.667 -16 -39zM936.998 178.001c0 26.667 5.16699 51.6689 15.5 75.002s24.166 43.833 41.499 61.5s37.833 31.5 61.5 41.5s48.834 15 75.501 15s51.667 -5 75 -15s43.833 -23.833 61.5 -41.5s31.5 -38.167 41.5 -61.5
s15 -48.333 15 -75s-5 -51.667 -15 -75s-23.833 -43.833 -41.5 -61.5s-38.167 -31.5 -61.5 -41.5s-48.333 -15 -75 -15s-51.834 5.16699 -75.501 15.5s-44.167 24.166 -61.5 41.499s-31.166 37.666 -41.499 60.999s-15.5 48.333 -15.5 75z" />
    <glyph glyph-name="perthousand" unicode="&#x2030;" horiz-adv-x="1346" 
d="M637 178c0 -14.667 5.33105 -27.334 15.998 -38.001s23.334 -16 38.001 -16c15.333 0 28.333 5.33301 39 16s16 23.334 16 38.001c0 15.333 -5.16699 28.333 -15.5 39s-23.5 16 -39.5 16c-15.333 0 -28.166 -5.33301 -38.499 -16s-15.5 -23.667 -15.5 -39zM497.998 178
c0 26.667 5 51.6689 15 75.002s23.833 43.833 41.5 61.5s38.167 31.5 61.5 41.5s48.333 15 75 15c27.333 0 52.666 -5 75.999 -15s43.833 -23.833 61.5 -41.5s31.5 -38.167 41.5 -61.5s15 -48.333 15 -75s-5 -51.667 -15 -75s-23.833 -43.833 -41.5 -61.5
s-38.167 -31.5 -61.5 -41.5s-48.666 -15 -75.999 -15c-26.667 0 -51.667 5.16699 -75 15.5s-43.833 24.166 -61.5 41.499s-31.5 37.666 -41.5 60.999s-15 48.333 -15 75zM21.998 538.002c0 26.667 5 51.833 15 75.5s23.667 44.167 41 61.5s37.666 31.166 60.999 41.499
s48.333 15.5 75 15.5s51.667 -5.16699 75 -15.5s43.666 -24.166 60.999 -41.499s30.833 -37.833 40.5 -61.5s14.5 -48.834 14.5 -75.501s-4.83301 -51.667 -14.5 -75s-23.167 -43.666 -40.5 -60.999s-37.666 -31.166 -60.999 -41.499s-48.333 -15.5 -75 -15.5
s-51.667 5.16699 -75 15.5s-43.666 24.166 -60.999 41.499s-31 37.833 -41 61.5s-15 48.5 -15 74.5zM158.998 538.001c0 -14.667 5.5 -27.667 16.5 -39s23.833 -17 38.5 -17c15.333 0 28.333 5.66699 39 17s16 24.333 16 39c0 16 -5.16699 29.333 -15.5 40
s-23.5 16 -39.5 16c-15.333 0 -28.333 -5.5 -39 -16.5s-16 -24.167 -16 -39.5zM254.998 0.000976562h-106l500 720h106zM1076 178.001c0 -14.667 5.33301 -27.334 16 -38.001s23.667 -16 39 -16s28.333 5.33301 39 16s16 23.334 16 38.001c0 15.333 -5.33301 28.333 -16 39
s-23.667 16 -39 16s-28.333 -5.33301 -39 -16s-16 -23.667 -16 -39zM936.998 178.001c0 26.667 5.16699 51.6689 15.5 75.002s24.166 43.833 41.499 61.5s37.833 31.5 61.5 41.5s48.834 15 75.501 15s51.667 -5 75 -15s43.833 -23.833 61.5 -41.5s31.5 -38.167 41.5 -61.5
s15 -48.333 15 -75s-5 -51.667 -15 -75s-23.833 -43.833 -41.5 -61.5s-38.167 -31.5 -61.5 -41.5s-48.333 -15 -75 -15s-51.834 5.16699 -75.501 15.5s-44.167 24.166 -61.5 41.499s-31.166 37.666 -41.499 60.999s-15.5 48.333 -15.5 75z" />
    <glyph glyph-name="quoteleft" horiz-adv-x="288" 
d="M115 737l119.001 -0.000976562c-28.667 -51.333 -46.334 -88.666 -53.001 -111.999c48.667 -22.667 73 -57 73 -103c0 -30.667 -10.667 -56.667 -32 -78s-47.333 -32 -78 -32s-56.5 10.5 -77.5 31.5s-31.5 46.167 -31.5 75.5c0 32 7.5 67.167 22.5 105.5
s34.167 75.833 57.5 112.5z" />
    <glyph glyph-name="quoteleft" unicode="&#x2018;" horiz-adv-x="288" 
d="M115 737l119.001 -0.000976562c-28.667 -51.333 -46.334 -88.666 -53.001 -111.999c48.667 -22.667 73 -57 73 -103c0 -30.667 -10.667 -56.667 -32 -78s-47.333 -32 -78 -32s-56.5 10.5 -77.5 31.5s-31.5 46.167 -31.5 75.5c0 32 7.5 67.167 22.5 105.5
s34.167 75.833 57.5 112.5z" />
    <glyph glyph-name="quoteright" horiz-adv-x="287" 
d="M173 412h-118.999c28 49.333 46 86.666 54 111.999c-49.333 22.667 -74 57 -74 103c0 30.667 10.667 56.667 32 78s47.666 32 78.999 32c30 0 55.5 -10.667 76.5 -32s31.5 -46.666 31.5 -75.999c0 -31.333 -7.33301 -66 -22 -104s-34 -75.667 -58 -113z" />
    <glyph glyph-name="quoteright" unicode="&#x2019;" horiz-adv-x="287" 
d="M173 412h-118.999c28 49.333 46 86.666 54 111.999c-49.333 22.667 -74 57 -74 103c0 30.667 10.667 56.667 32 78s47.666 32 78.999 32c30 0 55.5 -10.667 76.5 -32s31.5 -46.666 31.5 -75.999c0 -31.333 -7.33301 -66 -22 -104s-34 -75.667 -58 -113z" />
    <glyph glyph-name="quotedblleft" horiz-adv-x="541" 
d="M115 737l119.001 -0.000976562c-28.667 -51.333 -46.334 -88.666 -53.001 -111.999c48.667 -22.667 73 -57 73 -103c0 -30.667 -10.667 -56.667 -32 -78s-47.333 -32 -78 -32s-56.5 10.5 -77.5 31.5s-31.5 46.167 -31.5 75.5c0 32 7.5 67.167 22.5 105.5
s34.167 75.833 57.5 112.5zM367.001 736.999l120.001 -0.000976562c-29.333 -50 -47.333 -87.333 -54 -112c49.333 -23.333 74 -57.666 74 -102.999c0 -30.667 -10.833 -56.667 -32.5 -78s-47.834 -32 -78.501 -32c-30 0 -55.667 10.5 -77 31.5s-32 46.167 -32 75.5
c0 32 7.5 67.167 22.5 105.5s34.167 75.833 57.5 112.5z" />
    <glyph glyph-name="quotedblleft" unicode="&#x201c;" horiz-adv-x="541" 
d="M115 737l119.001 -0.000976562c-28.667 -51.333 -46.334 -88.666 -53.001 -111.999c48.667 -22.667 73 -57 73 -103c0 -30.667 -10.667 -56.667 -32 -78s-47.333 -32 -78 -32s-56.5 10.5 -77.5 31.5s-31.5 46.167 -31.5 75.5c0 32 7.5 67.167 22.5 105.5
s34.167 75.833 57.5 112.5zM367.001 736.999l120.001 -0.000976562c-29.333 -50 -47.333 -87.333 -54 -112c49.333 -23.333 74 -57.666 74 -102.999c0 -30.667 -10.833 -56.667 -32.5 -78s-47.834 -32 -78.501 -32c-30 0 -55.667 10.5 -77 31.5s-32 46.167 -32 75.5
c0 32 7.5 67.167 22.5 105.5s34.167 75.833 57.5 112.5z" />
    <glyph glyph-name="quotedblright" horiz-adv-x="541" 
d="M425 412h-119.001c29.333 49.333 47.333 86.666 54 111.999c-49.333 22.667 -74 57 -74 103c0 30.667 10.833 56.667 32.5 78s47.834 32 78.501 32c30 0 55.667 -10.667 77 -32s32 -46.666 32 -75.999c0 -31.333 -7.5 -66 -22.5 -104s-34.5 -75.667 -58.5 -113z
M172.999 412h-118.999c28 49.333 46 86.666 54 111.999c-49.333 22.667 -74 57 -74 103c0 30.667 10.667 56.667 32 78s47.666 32 78.999 32c30 0 55.5 -10.667 76.5 -32s31.5 -46.666 31.5 -75.999c0 -31.333 -7.33301 -66 -22 -104s-34 -75.667 -58 -113z" />
    <glyph glyph-name="quotedblright" unicode="&#x201d;" horiz-adv-x="541" 
d="M425 412h-119.001c29.333 49.333 47.333 86.666 54 111.999c-49.333 22.667 -74 57 -74 103c0 30.667 10.833 56.667 32.5 78s47.834 32 78.501 32c30 0 55.667 -10.667 77 -32s32 -46.666 32 -75.999c0 -31.333 -7.5 -66 -22.5 -104s-34.5 -75.667 -58.5 -113z
M172.999 412h-118.999c28 49.333 46 86.666 54 111.999c-49.333 22.667 -74 57 -74 103c0 30.667 10.667 56.667 32 78s47.666 32 78.999 32c30 0 55.5 -10.667 76.5 -32s31.5 -46.666 31.5 -75.999c0 -31.333 -7.33301 -66 -22 -104s-34 -75.667 -58 -113z" />
    <glyph glyph-name="bullet" horiz-adv-x="720" 
d="M361 210c-20.667 0 -40.0049 3.99902 -58.0049 11.999s-33.833 18.833 -47.5 32.5s-24.5 29.5 -32.5 47.5s-12 37 -12 57c0 20.667 4 40.334 12 59.001s18.833 34.667 32.5 48s29.834 24 48.501 32s38.334 12 59.001 12c20 0 39 -4 57 -12s33.833 -19 47.5 -33
s24.334 -30 32.001 -48s11.5 -37 11.5 -57s-3.83301 -39.167 -11.5 -57.5s-18.167 -34.333 -31.5 -48s-29.166 -24.5 -47.499 -32.5s-38.166 -12 -59.499 -12z" />
    <glyph glyph-name="bullet" unicode="&#x2022;" horiz-adv-x="720" 
d="M361 210c-20.667 0 -40.0049 3.99902 -58.0049 11.999s-33.833 18.833 -47.5 32.5s-24.5 29.5 -32.5 47.5s-12 37 -12 57c0 20.667 4 40.334 12 59.001s18.833 34.667 32.5 48s29.834 24 48.501 32s38.334 12 59.001 12c20 0 39 -4 57 -12s33.833 -19 47.5 -33
s24.334 -30 32.001 -48s11.5 -37 11.5 -57s-3.83301 -39.167 -11.5 -57.5s-18.167 -34.333 -31.5 -48s-29.166 -24.5 -47.499 -32.5s-38.166 -12 -59.499 -12z" />
    <glyph glyph-name="endash" horiz-adv-x="512" 
d="M481 462v-177h-450v177h450z" />
    <glyph glyph-name="endash" unicode="&#x2013;" horiz-adv-x="512" 
d="M481 462v-177h-450v177h450z" />
    <glyph glyph-name="emdash" horiz-adv-x="739" 
d="M700 462v-177h-661v177h661z" />
    <glyph glyph-name="emdash" unicode="&#x2014;" horiz-adv-x="739" 
d="M700 462v-177h-661v177h661z" />
    <glyph glyph-name="trademark" horiz-adv-x="927" 
d="M240 310h-133v280h-92v130h318v-130h-93v-280zM897 310l-133 0.000976562v209c0 35.333 -2.66699 57.666 -8 66.999s-14.666 14 -27.999 14s-22.5 -4.83301 -27.5 -14.5s-7.5 -33.167 -7.5 -70.5v-205h-133v212c0 34 -2.83301 55.833 -8.5 65.5
s-14.834 14.5 -27.501 14.5c-14.667 0 -24.334 -4.83301 -29.001 -14.5s-7 -31.5 -7 -65.5v-212h-131v233c0 60 13.5 106.333 40.5 139s67.167 49 120.5 49c32.667 0 68.334 -10.667 107.001 -32c34.667 21.333 68.667 32 102 32c60 0 103.333 -18.333 130 -55
s40 -91 40 -163v-203z" />
    <glyph glyph-name="trademark" unicode="&#x2122;" horiz-adv-x="927" 
d="M240 310h-133v280h-92v130h318v-130h-93v-280zM897 310l-133 0.000976562v209c0 35.333 -2.66699 57.666 -8 66.999s-14.666 14 -27.999 14s-22.5 -4.83301 -27.5 -14.5s-7.5 -33.167 -7.5 -70.5v-205h-133v212c0 34 -2.83301 55.833 -8.5 65.5
s-14.834 14.5 -27.501 14.5c-14.667 0 -24.334 -4.83301 -29.001 -14.5s-7 -31.5 -7 -65.5v-212h-131v233c0 60 13.5 106.333 40.5 139s67.167 49 120.5 49c32.667 0 68.334 -10.667 107.001 -32c34.667 21.333 68.667 32 102 32c60 0 103.333 -18.333 130 -55
s40 -91 40 -163v-203z" />
    <glyph glyph-name="currency" unicode="&#xa4;" 
d="M523 187l42.999 -43.001l-34 -33l-42 43c-51.333 -40.667 -108.333 -61 -171 -61c-65.333 0 -123 21 -173 63l-47 -45l-30 30l45 46c-42.667 51.333 -64 109.333 -64 174c0 62.667 20.667 119.667 62 171l-43 42l32 34l44 -43c51.333 42 109.333 63 174 63
c62.667 0 120.334 -20.667 173.001 -62l42 42l32 -32l-42 -42c42 -50 63 -107.333 63 -172c0 -65.333 -21.333 -123.666 -64 -174.999zM318.999 432.999c-20.667 0 -38.166 -7.16504 -52.499 -21.498s-21.5 -31.5 -21.5 -51.5c0 -20.667 7.33301 -38.334 22 -53.001
s32 -22 52 -22s37 7.33301 51 22s21 31.667 21 51c0 21.333 -6.83301 39.166 -20.5 53.499s-30.834 21.5 -51.501 21.5z" />
    <glyph glyph-name="brokenbar" unicode="&#xa6;" horiz-adv-x="434" 
d="M329 -105h-224v390h224v-390zM329 435h-224v390h224v-390z" />
    <glyph glyph-name="section" unicode="&#xa7;" horiz-adv-x="562" 
d="M281 226c36 10 54 25 54 45c0 12 -6.33301 24.5 -19 37.5l-39 39.5c-33.333 -8 -50 -23.333 -50 -46c0 -16.667 4.83301 -29.667 14.5 -39zM395 737l61.001 -176.997h-21c-49.333 0 -74 -11.667 -74 -35c0 -14 8.66699 -27.667 26 -41s36.166 -29.166 56.499 -47.499
s39.166 -40.5 56.499 -66.5s26 -58.667 26 -98c0 -36 -12 -68.833 -36 -98.5s-53.333 -54.167 -88 -73.5c5.33301 -6.66699 9.33301 -14.334 12 -23.001s4 -16.334 4 -23.001c0 -33.333 -7.33301 -63.5 -22 -90.5s-34.167 -49.833 -58.5 -68.5s-52.666 -33 -84.999 -43
s-66.5 -15 -102.5 -15l-63 177c42 0 71 2.33301 87 7s24 13.667 24 27c0 12.667 -8.5 26 -25.5 40s-35.5 30.833 -55.5 50.5s-38.5 43.334 -55.5 71.001s-25.5 61.167 -25.5 100.5c0 35.333 12 67.666 36 96.999s54 53.666 90 72.999c-6 7.33301 -10.667 15.666 -14 24.999
s-5 17.333 -5 24c0 36.667 10 70.667 30 102c47.333 70.667 121.333 106 222 106z" />
    <glyph glyph-name="afii10023" unicode="&#xa8;" horiz-adv-x="539" 
d="M186 940c21.333 0 39.668 -7.83301 55.001 -23.5s23 -34.834 23 -57.501c0 -20.667 -7.66699 -39.167 -23 -55.5s-34.333 -24.5 -57 -24.5s-41.834 7.83301 -57.501 23.5s-23.5 34.834 -23.5 57.501s8.16699 41.667 24.5 57s35.833 23 58.5 23zM412.002 940
c21.333 0 39.832 -7.83301 55.499 -23.5s23.5 -34.834 23.5 -57.501c0 -20.667 -7.66699 -39.167 -23 -55.5s-34.333 -24.5 -57 -24.5s-41.667 7.83301 -57 23.5s-23 34.834 -23 57.501s7.83301 41.667 23.5 57s34.834 23 57.501 23zM507.001 439l-0.00292969 -129.005h-190
c-19.333 0 -35.333 -4.16699 -48 -12.5s-19 -20.166 -19 -35.499c0 -35.333 30.667 -53 92 -53h165v-209h-197c-93.333 0 -164.166 18.833 -212.499 56.5s-72.5 95.5 -72.5 173.5c0 28 3 53 9 75s20 45.667 42 71c-17.333 18.667 -30.166 38.334 -38.499 59.001
s-12.5 40.667 -12.5 60c0 42 7.5 77.333 22.5 106s35.333 51.834 61 69.501s55.834 30.334 90.501 38.001s71.667 11.5 111 11.5h197v-207h-187c-26 0 -44.167 -2.66699 -54.5 -8s-15.5 -14.666 -15.5 -27.999s5.5 -23 16.5 -29s29.167 -9 54.5 -9h186z" />
    <glyph glyph-name="afii10023" unicode="&#x401;" horiz-adv-x="539" 
d="M186 940c21.333 0 39.668 -7.83301 55.001 -23.5s23 -34.834 23 -57.501c0 -20.667 -7.66699 -39.167 -23 -55.5s-34.333 -24.5 -57 -24.5s-41.834 7.83301 -57.501 23.5s-23.5 34.834 -23.5 57.501s8.16699 41.667 24.5 57s35.833 23 58.5 23zM412.002 940
c21.333 0 39.832 -7.83301 55.499 -23.5s23.5 -34.834 23.5 -57.501c0 -20.667 -7.66699 -39.167 -23 -55.5s-34.333 -24.5 -57 -24.5s-41.667 7.83301 -57 23.5s-23 34.834 -23 57.501s7.83301 41.667 23.5 57s34.834 23 57.501 23zM507.001 439l-0.00292969 -129.005h-190
c-19.333 0 -35.333 -4.16699 -48 -12.5s-19 -20.166 -19 -35.499c0 -35.333 30.667 -53 92 -53h165v-209h-197c-93.333 0 -164.166 18.833 -212.499 56.5s-72.5 95.5 -72.5 173.5c0 28 3 53 9 75s20 45.667 42 71c-17.333 18.667 -30.166 38.334 -38.499 59.001
s-12.5 40.667 -12.5 60c0 42 7.5 77.333 22.5 106s35.333 51.834 61 69.501s55.834 30.334 90.501 38.001s71.667 11.5 111 11.5h197v-207h-187c-26 0 -44.167 -2.66699 -54.5 -8s-15.5 -14.666 -15.5 -27.999s5.5 -23 16.5 -29s29.167 -9 54.5 -9h186z" />
    <glyph glyph-name="copyright" unicode="&#xa9;" horiz-adv-x="816" 
d="M402 -41c-51.333 0 -100.167 10.333 -146.5 31s-87.166 48.667 -122.499 84s-63.333 76.5 -84 123.5s-31 97.167 -31 150.5c0 52.667 10 102.5 30 149.5s47.5 88.167 82.5 123.5s76.167 63.5 123.5 84.5s98 31.5 152 31.5c50.667 0 99.5 -9.66699 146.5 -29
s88.5 -46.166 124.5 -80.499s64.833 -75.333 86.5 -123s32.5 -99.834 32.5 -156.501c0 -54 -10.333 -104.667 -31 -152s-48.834 -88.5 -84.501 -123.5s-77.5 -62.667 -125.5 -83s-99 -30.5 -153 -30.5zM401.999 0c48 0 93.498 9 136.498 27s80.667 42.833 113 74.5
s57.833 68.667 76.5 111s28 87.5 28 135.5c0 46.667 -9.16699 91.167 -27.5 133.5s-43.166 79.333 -74.499 111s-68.333 56.834 -111 75.501s-88.334 28 -137.001 28c-44.667 0 -88 -8.66699 -130 -26s-79.167 -41.5 -111.5 -72.5s-58.166 -67.833 -77.499 -110.5
s-29 -89 -29 -139c0 -46.667 9.16699 -91.167 27.5 -133.5s43.333 -79.333 75 -111s68.334 -56.834 110.001 -75.501s85.5 -28 131.5 -28zM493.997 267l0.00195312 -132.997c-20 -6.66699 -44.333 -10 -73 -10c-30.667 0 -59.167 5.66699 -85.5 17s-49.333 27 -69 47
s-35.167 43.833 -46.5 71.5s-17 57.5 -17 89.5c0 31.333 5.83301 60.666 17.5 87.999s27.834 51.166 48.501 71.499s45.167 36.5 73.5 48.5s59.166 18 92.499 18c21.333 0 41 -3.33301 59 -10v-131c-20.667 9.33301 -41.334 14 -62.001 14
c-28.667 0 -51.334 -9.33301 -68.001 -28s-25 -42.334 -25 -71.001s8.16699 -52.167 24.5 -70.5s37.833 -27.5 64.5 -27.5c9.33301 0 19.333 1 30 3s22.667 6.33301 36 13z" />
    <glyph glyph-name="guillemotleft" unicode="&#xab;" horiz-adv-x="456" 
d="M19 360l84 197h129l-82 -197l82 -192h-129zM220 360l84 197h127l-81 -197l81 -192h-127z" />
    <glyph glyph-name="logicalnot" unicode="&#xac;" horiz-adv-x="541" 
d="M505 169h-46v252h-423v41h469v-293z" />
    <glyph glyph-name="registered" unicode="&#xae;" horiz-adv-x="816" 
d="M402 -41c-51.333 0 -100.167 10.333 -146.5 31s-87.166 48.667 -122.499 84s-63.333 76.5 -84 123.5s-31 97.167 -31 150.5c0 52.667 10 102.5 30 149.5s47.5 88.167 82.5 123.5s76.167 63.5 123.5 84.5s98 31.5 152 31.5c50.667 0 99.5 -9.66699 146.5 -29
s88.5 -46.166 124.5 -80.499s64.833 -75.333 86.5 -123s32.5 -99.834 32.5 -156.501c0 -54 -10.333 -104.667 -31 -152s-48.834 -88.5 -84.501 -123.5s-77.5 -62.667 -125.5 -83s-99 -30.5 -153 -30.5zM401.999 0c48 0 93.498 9 136.498 27s80.667 42.833 113 74.5
s57.833 68.667 76.5 111s28 87.5 28 135.5c0 46.667 -9.16699 91.167 -27.5 133.5s-43.166 79.333 -74.499 111s-68.333 56.834 -111 75.501s-88.334 28 -137.001 28c-44.667 0 -88 -8.66699 -130 -26s-79.167 -41.5 -111.5 -72.5s-58.166 -67.833 -77.499 -110.5
s-29 -89 -29 -139c0 -46.667 9.16699 -91.167 27.5 -133.5s43.333 -79.333 75 -111s68.334 -56.834 110.001 -75.501s85.5 -28 131.5 -28zM382.997 113l-148.001 -0.000976562v475h174c27.333 0 53.333 -2.66699 78 -8s46.167 -14.166 64.5 -26.499s32.833 -28.333 43.5 -48
s16 -43.5 16 -71.5c0 -18.667 -3.16699 -37.667 -9.5 -57s-17.833 -35 -34.5 -47c19.333 -14.667 31.833 -31 37.5 -49s8.5 -41 8.5 -69v-99h-150v99c0 21.333 -3.16699 36 -9.5 44s-17.5 12 -33.5 12h-11v106h11c14.667 0 24.834 3 30.501 9s8.5 15.667 8.5 29
s-3.16699 23 -9.5 29s-19.833 9 -40.5 9h-26v-337z" />
    <glyph glyph-name="degree" unicode="&#xb0;" horiz-adv-x="437" 
d="M164 545c0 -15.333 5.33301 -28.333 16 -39s23.667 -16 39 -16s28.166 5.33301 38.499 16s15.5 23.667 15.5 39s-5.16699 28.333 -15.5 39s-23.166 16 -38.499 16s-28.333 -5.33301 -39 -16s-16 -23.667 -16 -39zM25 545c0 26.667 5.16699 51.665 15.5 74.998
s24.166 43.666 41.499 60.999s37.833 31 61.5 41s48.834 15 75.501 15s51.667 -5 75 -15s43.833 -23.667 61.5 -41s31.5 -37.666 41.5 -60.999s15 -48.333 15 -75c0 -27.333 -5 -52.666 -15 -75.999s-23.833 -43.666 -41.5 -60.999s-38.167 -31 -61.5 -41
s-48.333 -15 -75 -15s-51.834 5 -75.501 15s-44.167 23.833 -61.5 41.5s-31.166 38.167 -41.499 61.5s-15.5 48.333 -15.5 75z" />
    <glyph glyph-name="plusminus" unicode="&#xb1;" 
d="M428 386v-124h-217v124h-151v209h151v125h217v-125h151v-209h-151zM579 209v-209h-519v209h519z" />
    <glyph glyph-name="mu" unicode="&#xb5;" horiz-adv-x="541" 
d="M81 419l163 -0.000976562l-33 -237c-1.33301 -9.33301 -2 -18 -2 -26c0 -17.333 4 -29.166 12 -35.499s20.333 -9.5 37 -9.5c39.333 0 63 27 71 81l32 227h162l-62 -419h-123l-11 51c-18 -34 -42.333 -51 -73 -51c-32 -0 -54.333 15.333 -67 46l-28 -209h-159z" />
    <glyph glyph-name="paragraph" unicode="&#xb6;" horiz-adv-x="541" 
d="M498 703l-0.000976562 -69h-48v-634h-95v634h-67v-634h-96v373c-51.333 2 -92.666 18 -123.999 48s-47 68.333 -47 115c0 50.667 17 91.167 51 121.5s79 45.5 135 45.5h291z" />
    <glyph glyph-name="periodcentered" unicode="&#xb7;" horiz-adv-x="291" 
d="M144 249c-30 0 -55.832 11 -77.499 33s-32.5 48 -32.5 78c0 30.667 10.833 56.667 32.5 78s48.167 32 79.5 32c29.333 0 54.666 -10.833 75.999 -32.5s32 -47.5 32 -77.5s-10.667 -56 -32 -78s-47.333 -33 -78 -33z" />
    <glyph glyph-name="periodcentered" unicode="&#x2219;" horiz-adv-x="291" 
d="M144 249c-30 0 -55.832 11 -77.499 33s-32.5 48 -32.5 78c0 30.667 10.833 56.667 32.5 78s48.167 32 79.5 32c29.333 0 54.666 -10.833 75.999 -32.5s32 -47.5 32 -77.5s-10.667 -56 -32 -78s-47.333 -33 -78 -33z" />
    <glyph glyph-name="afii10071" unicode="&#xb8;" horiz-adv-x="420" 
d="M145 733c16.667 0 31 -6.16699 43 -18.5s18 -27.166 18 -44.499c0 -16.667 -6 -31.167 -18 -43.5s-26.667 -18.5 -44 -18.5c-18 0 -33.167 6.16699 -45.5 18.5s-18.5 27.166 -18.5 44.499s6.33301 32 19 44s28 18 46 18zM321 733c16.667 0 31.168 -6.16699 43.501 -18.5
s18.5 -27.166 18.5 -44.499c0 -16.667 -6 -31.167 -18 -43.5s-26.667 -18.5 -44 -18.5c-18 0 -33 6.16699 -45 18.5s-18 27.166 -18 44.499s6.16699 32 18.5 44s27.166 18 44.499 18zM395.001 342l-0.000976562 -100h-148c-14.667 0 -27 -3.16699 -37 -9.5
s-15 -15.833 -15 -28.5c0 -27.333 24 -41 72 -41h128v-163h-153c-72.667 0 -127.834 14.667 -165.501 44s-56.5 74.333 -56.5 135c0 22 2.33301 41.5 7 58.5s15.334 35.5 32.001 55.5c-13.333 14.667 -23.166 30.167 -29.499 46.5s-9.5 31.833 -9.5 46.5
c0 32.667 5.83301 60.167 17.5 82.5s27.5 40.5 47.5 54.5s43.5 24 70.5 30s55.833 9 86.5 9h153v-162h-145c-20.667 0 -35 -2 -43 -6s-12 -11.333 -12 -22c0 -20 18.333 -30 55 -30h145z" />
    <glyph glyph-name="afii10071" unicode="&#x451;" horiz-adv-x="420" 
d="M145 733c16.667 0 31 -6.16699 43 -18.5s18 -27.166 18 -44.499c0 -16.667 -6 -31.167 -18 -43.5s-26.667 -18.5 -44 -18.5c-18 0 -33.167 6.16699 -45.5 18.5s-18.5 27.166 -18.5 44.499s6.33301 32 19 44s28 18 46 18zM321 733c16.667 0 31.168 -6.16699 43.501 -18.5
s18.5 -27.166 18.5 -44.499c0 -16.667 -6 -31.167 -18 -43.5s-26.667 -18.5 -44 -18.5c-18 0 -33 6.16699 -45 18.5s-18 27.166 -18 44.499s6.16699 32 18.5 44s27.166 18 44.499 18zM395.001 342l-0.000976562 -100h-148c-14.667 0 -27 -3.16699 -37 -9.5
s-15 -15.833 -15 -28.5c0 -27.333 24 -41 72 -41h128v-163h-153c-72.667 0 -127.834 14.667 -165.501 44s-56.5 74.333 -56.5 135c0 22 2.33301 41.5 7 58.5s15.334 35.5 32.001 55.5c-13.333 14.667 -23.166 30.167 -29.499 46.5s-9.5 31.833 -9.5 46.5
c0 32.667 5.83301 60.167 17.5 82.5s27.5 40.5 47.5 54.5s43.5 24 70.5 30s55.833 9 86.5 9h153v-162h-145c-20.667 0 -35 -2 -43 -6s-12 -11.333 -12 -22c0 -20 18.333 -30 55 -30h145z" />
    <glyph glyph-name="afii61352" unicode="&#xb9;" horiz-adv-x="1028" 
d="M264 0l-225 -0.000976562v720h337c45.333 0 84.166 -4.16699 116.499 -12.5s58.833 -22.666 79.5 -42.999s35.834 -47.333 45.501 -81s14.5 -75.5 14.5 -125.5v-458h-224v422c0 38 -4.66699 62.333 -14 73s-26.333 16 -51 16h-79v-511zM989 151.999v-152h-289v152h289z
M803 366.999c0 -11.333 4.16797 -21 12.501 -29s18.166 -12 29.499 -12s21 4 29 12s12 17.667 12 29c0 12 -4 22 -12 30s-17.667 12 -29 12c-12 0 -22 -4 -30 -12s-12 -18 -12 -30zM700.001 366.999c0 40.667 14 74.833 42 102.5s62.333 41.5 103 41.5
c20 0 38.833 -3.66699 56.5 -11s32.834 -17.5 45.501 -30.5s22.834 -28.333 30.501 -46s11.5 -36.5 11.5 -56.5s-3.83301 -38.833 -11.5 -56.5s-17.834 -33 -30.501 -46s-27.834 -23.333 -45.501 -31s-36.5 -11.5 -56.5 -11.5s-38.833 3.83301 -56.5 11.5s-33 18 -46 31
s-23.333 28.333 -31 46s-11.5 36.5 -11.5 56.5z" />
    <glyph glyph-name="afii61352" unicode="&#x2116;" horiz-adv-x="1028" 
d="M264 0l-225 -0.000976562v720h337c45.333 0 84.166 -4.16699 116.499 -12.5s58.833 -22.666 79.5 -42.999s35.834 -47.333 45.501 -81s14.5 -75.5 14.5 -125.5v-458h-224v422c0 38 -4.66699 62.333 -14 73s-26.333 16 -51 16h-79v-511zM989 151.999v-152h-289v152h289z
M803 366.999c0 -11.333 4.16797 -21 12.501 -29s18.166 -12 29.499 -12s21 4 29 12s12 17.667 12 29c0 12 -4 22 -12 30s-17.667 12 -29 12c-12 0 -22 -4 -30 -12s-12 -18 -12 -30zM700.001 366.999c0 40.667 14 74.833 42 102.5s62.333 41.5 103 41.5
c20 0 38.833 -3.66699 56.5 -11s32.834 -17.5 45.501 -30.5s22.834 -28.333 30.501 -46s11.5 -36.5 11.5 -56.5s-3.83301 -38.833 -11.5 -56.5s-17.834 -33 -30.501 -46s-27.834 -23.333 -45.501 -31s-36.5 -11.5 -56.5 -11.5s-38.833 3.83301 -56.5 11.5s-33 18 -46 31
s-23.333 28.333 -31 46s-11.5 36.5 -11.5 56.5z" />
    <glyph glyph-name="guillemotright" unicode="&#xbb;" horiz-adv-x="456" 
d="M437 360l-84 -192h-129l82 192l-82 197h129zM236 360l-84 -192h-127l81 192l-81 197h127z" />
    <glyph glyph-name="afii10017" unicode="&#xc0;" horiz-adv-x="667" 
d="M632 0l-220.999 0.000976562v159h-154v-159h-222v410c0 45.333 7 87.833 21 127.5s34 74.167 60 103.5s57.667 52.666 95 69.999s79.666 26 126.999 26s89.333 -8.33301 126 -25s67.5 -39.834 92.5 -69.501s43.833 -64.667 56.5 -105s19 -84.166 19 -131.499v-406z
M257.001 349.001l153.999 -0.000976562v64c0 32.667 -5.33301 57.167 -16 73.5s-29.667 24.5 -57 24.5c-25.333 0 -45.166 -8.16699 -59.499 -24.5s-21.5 -41.166 -21.5 -74.499v-63z" />
    <glyph glyph-name="afii10017" unicode="&#x410;" horiz-adv-x="667" 
d="M632 0l-220.999 0.000976562v159h-154v-159h-222v410c0 45.333 7 87.833 21 127.5s34 74.167 60 103.5s57.667 52.666 95 69.999s79.666 26 126.999 26s89.333 -8.33301 126 -25s67.5 -39.834 92.5 -69.501s43.833 -64.667 56.5 -105s19 -84.166 19 -131.499v-406z
M257.001 349.001l153.999 -0.000976562v64c0 32.667 -5.33301 57.167 -16 73.5s-29.667 24.5 -57 24.5c-25.333 0 -45.166 -8.16699 -59.499 -24.5s-21.5 -41.166 -21.5 -74.499v-63z" />
    <glyph glyph-name="afii10018" unicode="&#xc1;" horiz-adv-x="658" 
d="M39 0l-0.00390625 720h546v-206h-321v-308h36c22.667 0 40.834 1.16699 54.501 3.5s24.334 5.66602 32.001 9.99902s12.834 9.5 15.501 15.5s4 12.667 4 20c0 15.333 -5.66699 28 -17 38s-35.666 15 -72.999 15h-16v128h16c109.333 0 190.5 -15.833 243.5 -47.5
s79.5 -84.167 79.5 -157.5c0 -81.333 -27.833 -140.166 -83.5 -176.499s-137.167 -54.5 -244.5 -54.5h-272z" />
    <glyph glyph-name="afii10018" unicode="&#x411;" horiz-adv-x="658" 
d="M39 0l-0.00390625 720h546v-206h-321v-308h36c22.667 0 40.834 1.16699 54.501 3.5s24.334 5.66602 32.001 9.99902s12.834 9.5 15.501 15.5s4 12.667 4 20c0 15.333 -5.66699 28 -17 38s-35.666 15 -72.999 15h-16v128h16c109.333 0 190.5 -15.833 243.5 -47.5
s79.5 -84.167 79.5 -157.5c0 -81.333 -27.833 -140.166 -83.5 -176.499s-137.167 -54.5 -244.5 -54.5h-272z" />
    <glyph glyph-name="afii10019" unicode="&#xc2;" horiz-adv-x="661" 
d="M300 308l-0.00390625 128.001h16c29.333 0 49 3.33301 59 10s15 15.334 15 26.001c0 13.333 -5 23.666 -15 30.999s-29.667 11 -59 11h-52v-308h36c22.667 0 40.834 1.16699 54.501 3.5s24.334 5.66602 32.001 9.99902s12.834 9.5 15.501 15.5s4 12.667 4 20
c0 15.333 -5.66699 28 -17 38s-35.666 15 -72.999 15h-16zM38.9961 0.000976562v720h290c94 0 165.667 -19 215 -57s74 -92.333 74 -163c0 -22 -3.83301 -43.333 -11.5 -64s-20.834 -40 -39.501 -58c20.667 -16.667 37.834 -38.834 51.501 -66.501s20.5 -54.5 20.5 -80.5
c0 -81.333 -27.833 -140.166 -83.5 -176.499s-137.167 -54.5 -244.5 -54.5h-272z" />
    <glyph glyph-name="afii10019" unicode="&#x412;" horiz-adv-x="661" 
d="M300 308l-0.00390625 128.001h16c29.333 0 49 3.33301 59 10s15 15.334 15 26.001c0 13.333 -5 23.666 -15 30.999s-29.667 11 -59 11h-52v-308h36c22.667 0 40.834 1.16699 54.501 3.5s24.334 5.66602 32.001 9.99902s12.834 9.5 15.501 15.5s4 12.667 4 20
c0 15.333 -5.66699 28 -17 38s-35.666 15 -72.999 15h-16zM38.9961 0.000976562v720h290c94 0 165.667 -19 215 -57s74 -92.333 74 -163c0 -22 -3.83301 -43.333 -11.5 -64s-20.834 -40 -39.501 -58c20.667 -16.667 37.834 -38.834 51.501 -66.501s20.5 -54.5 20.5 -80.5
c0 -81.333 -27.833 -140.166 -83.5 -176.499s-137.167 -54.5 -244.5 -54.5h-272z" />
    <glyph glyph-name="afii10020" unicode="&#xc3;" horiz-adv-x="391" 
d="M257 0l-225 -0.000976562v443c0 52 4.5 95.833 13.5 131.5s24 64.167 45 85.5s48.5 36.666 82.5 45.999s76.333 14 127 14h84v-206h-43c-17.333 0 -31.5 -1.16699 -42.5 -3.5s-19.5 -6.66602 -25.5 -12.999s-10.167 -15.666 -12.5 -27.999s-3.5 -28.5 -3.5 -48.5v-421z
" />
    <glyph glyph-name="afii10020" unicode="&#x413;" horiz-adv-x="391" 
d="M257 0l-225 -0.000976562v443c0 52 4.5 95.833 13.5 131.5s24 64.167 45 85.5s48.5 36.666 82.5 45.999s76.333 14 127 14h84v-206h-43c-17.333 0 -31.5 -1.16699 -42.5 -3.5s-19.5 -6.66602 -25.5 -12.999s-10.167 -15.666 -12.5 -27.999s-3.5 -28.5 -3.5 -48.5v-421z
" />
    <glyph glyph-name="afii10021" unicode="&#xc4;" horiz-adv-x="666" 
d="M260 390v-181h143v181c0 28 -1.33301 50.833 -4 68.5s-7 31.5 -13 41.5s-13.5 16.667 -22.5 20s-19.833 5 -32.5 5c-12 0 -22.5 -1.66699 -31.5 -5s-16.5 -10 -22.5 -20s-10.333 -23.833 -13 -41.5s-4 -40.5 -4 -68.5zM676 0l-685.997 0.000976562v209h48v188
c0 49.333 6.66699 94.833 20 136.5s32.666 77.5 57.999 107.5s56.5 53.5 93.5 70.5s79.167 25.5 126.5 25.5c48.667 0 91.167 -9.33301 127.5 -28s66.666 -43.834 90.999 -75.501s42.666 -68 54.999 -109s18.5 -83.833 18.5 -128.5v-187h48v-209z" />
    <glyph glyph-name="afii10021" unicode="&#x414;" horiz-adv-x="666" 
d="M260 390v-181h143v181c0 28 -1.33301 50.833 -4 68.5s-7 31.5 -13 41.5s-13.5 16.667 -22.5 20s-19.833 5 -32.5 5c-12 0 -22.5 -1.66699 -31.5 -5s-16.5 -10 -22.5 -20s-10.333 -23.833 -13 -41.5s-4 -40.5 -4 -68.5zM676 0l-685.997 0.000976562v209h48v188
c0 49.333 6.66699 94.833 20 136.5s32.666 77.5 57.999 107.5s56.5 53.5 93.5 70.5s79.167 25.5 126.5 25.5c48.667 0 91.167 -9.33301 127.5 -28s66.666 -43.834 90.999 -75.501s42.666 -68 54.999 -109s18.5 -83.833 18.5 -128.5v-187h48v-209z" />
    <glyph glyph-name="afii10022" unicode="&#xc5;" horiz-adv-x="539" 
d="M507 439l-0.00292969 -129.005h-190c-19.333 0 -35.333 -4.16699 -48 -12.5s-19 -20.166 -19 -35.499c0 -35.333 30.667 -53 92 -53h165v-209h-197c-93.333 0 -164.166 18.833 -212.499 56.5s-72.5 95.5 -72.5 173.5c0 28 3 53 9 75s20 45.667 42 71
c-17.333 18.667 -30.166 38.334 -38.499 59.001s-12.5 40.667 -12.5 60c0 42 7.5 77.333 22.5 106s35.333 51.834 61 69.501s55.834 30.334 90.501 38.001s71.667 11.5 111 11.5h197v-207h-187c-26 0 -44.167 -2.66699 -54.5 -8s-15.5 -14.666 -15.5 -27.999
s5.5 -23 16.5 -29s29.167 -9 54.5 -9h186z" />
    <glyph glyph-name="afii10022" unicode="&#x415;" horiz-adv-x="539" 
d="M507 439l-0.00292969 -129.005h-190c-19.333 0 -35.333 -4.16699 -48 -12.5s-19 -20.166 -19 -35.499c0 -35.333 30.667 -53 92 -53h165v-209h-197c-93.333 0 -164.166 18.833 -212.499 56.5s-72.5 95.5 -72.5 173.5c0 28 3 53 9 75s20 45.667 42 71
c-17.333 18.667 -30.166 38.334 -38.499 59.001s-12.5 40.667 -12.5 60c0 42 7.5 77.333 22.5 106s35.333 51.834 61 69.501s55.834 30.334 90.501 38.001s71.667 11.5 111 11.5h197v-207h-187c-26 0 -44.167 -2.66699 -54.5 -8s-15.5 -14.666 -15.5 -27.999
s5.5 -23 16.5 -29s29.167 -9 54.5 -9h186z" />
    <glyph glyph-name="afii10024" unicode="&#xc6;" horiz-adv-x="1018" 
d="M263 720l-0.00390625 -167c0 -40 5.66699 -68.167 17 -84.5s36 -24.5 74 -24.5h44v276h222v-276h44c38 0 62.667 8.16699 74 24.5s17 44.5 17 84.5v167h222v-177c0 -40.667 -5 -73.334 -15 -98.001s-27.333 -47.334 -52 -68.001
c28.667 -18.667 48.334 -41.5 59.001 -68.5s16 -64.167 16 -111.5v-197h-222v185c0 21.333 -1.66699 38.666 -5 51.999s-8.66602 23.5 -15.999 30.5s-17.166 11.667 -29.499 14s-27.5 3.5 -45.5 3.5h-47v-285h-222v285h-48c-18 0 -33 -1.16699 -45 -3.5
s-21.833 -7 -29.5 -14s-13.167 -17.167 -16.5 -30.5s-5 -30.666 -5 -51.999v-185h-221v197c0 47.333 5.33301 84.5 16 111.5s30.334 49.833 59.001 68.5c-24.667 20.667 -42 43.334 -52 68.001s-15 57.334 -15 98.001v177h222z" />
    <glyph glyph-name="afii10024" unicode="&#x416;" horiz-adv-x="1018" 
d="M263 720l-0.00390625 -167c0 -40 5.66699 -68.167 17 -84.5s36 -24.5 74 -24.5h44v276h222v-276h44c38 0 62.667 8.16699 74 24.5s17 44.5 17 84.5v167h222v-177c0 -40.667 -5 -73.334 -15 -98.001s-27.333 -47.334 -52 -68.001
c28.667 -18.667 48.334 -41.5 59.001 -68.5s16 -64.167 16 -111.5v-197h-222v185c0 21.333 -1.66699 38.666 -5 51.999s-8.66602 23.5 -15.999 30.5s-17.166 11.667 -29.499 14s-27.5 3.5 -45.5 3.5h-47v-285h-222v285h-48c-18 0 -33 -1.16699 -45 -3.5
s-21.833 -7 -29.5 -14s-13.167 -17.167 -16.5 -30.5s-5 -30.666 -5 -51.999v-185h-221v197c0 47.333 5.33301 84.5 16 111.5s30.334 49.833 59.001 68.5c-24.667 20.667 -42 43.334 -52 68.001s-15 57.334 -15 98.001v177h222z" />
    <glyph glyph-name="afii10025" unicode="&#xc7;" horiz-adv-x="493" 
d="M33 0l0.000976562 223.002c11.333 -6.66699 27.333 -13 48 -19s44.334 -9 71.001 -9c36.667 0 61 6.16699 73 18.5s18 26.166 18 41.499s-5.83301 28 -17.5 38s-36.167 15 -73.5 15h-16v128h16c37.333 0 61.833 3.33301 73.5 10s17.5 16.667 17.5 30
c0 17.333 -5.83301 30.833 -17.5 40.5s-36.167 14.5 -73.5 14.5c-26.667 0 -49.834 -1.5 -69.501 -4.5s-36.167 -7.16699 -49.5 -12.5v206c6.66699 2 16 4 28 6s24.833 3.83301 38.5 5.5s27.167 3 40.5 4s24.333 1.5 33 1.5c42.667 0 82 -4 118 -12s67.167 -21.333 93.5 -40
s46.833 -43.167 61.5 -73.5s22 -67.5 22 -111.5c0 -22 -5.66699 -43.5 -17 -64.5s-27.333 -40.167 -48 -57.5c21.333 -16 37.5 -34.833 48.5 -56.5s16.5 -51.834 16.5 -90.501c0 -81.333 -23.167 -143 -69.5 -185s-121.5 -63 -225.5 -63c-7.33301 0 -17.5 0.5 -30.5 1.5
s-26.333 2.16699 -40 3.5s-26.834 3 -39.501 5s-22.667 4.33301 -30 7z" />
    <glyph glyph-name="afii10025" unicode="&#x417;" horiz-adv-x="493" 
d="M33 0l0.000976562 223.002c11.333 -6.66699 27.333 -13 48 -19s44.334 -9 71.001 -9c36.667 0 61 6.16699 73 18.5s18 26.166 18 41.499s-5.83301 28 -17.5 38s-36.167 15 -73.5 15h-16v128h16c37.333 0 61.833 3.33301 73.5 10s17.5 16.667 17.5 30
c0 17.333 -5.83301 30.833 -17.5 40.5s-36.167 14.5 -73.5 14.5c-26.667 0 -49.834 -1.5 -69.501 -4.5s-36.167 -7.16699 -49.5 -12.5v206c6.66699 2 16 4 28 6s24.833 3.83301 38.5 5.5s27.167 3 40.5 4s24.333 1.5 33 1.5c42.667 0 82 -4 118 -12s67.167 -21.333 93.5 -40
s46.833 -43.167 61.5 -73.5s22 -67.5 22 -111.5c0 -22 -5.66699 -43.5 -17 -64.5s-27.333 -40.167 -48 -57.5c21.333 -16 37.5 -34.833 48.5 -56.5s16.5 -51.834 16.5 -90.501c0 -81.333 -23.167 -143 -69.5 -185s-121.5 -63 -225.5 -63c-7.33301 0 -17.5 0.5 -30.5 1.5
s-26.333 2.16699 -40 3.5s-26.834 3 -39.501 5s-22.667 4.33301 -30 7z" />
    <glyph glyph-name="afii10026" unicode="&#xc8;" horiz-adv-x="667" 
d="M403 720l225 0.000976562v-720h-337c-45.333 0 -84.166 4.16699 -116.499 12.5s-58.833 22.666 -79.5 42.999s-35.834 47.333 -45.501 81s-14.5 75.5 -14.5 125.5v458h225v-422c0 -38 4.66699 -62.333 14 -73s26 -16 50 -16h79v511z" />
    <glyph glyph-name="afii10026" unicode="&#x418;" horiz-adv-x="667" 
d="M403 720l225 0.000976562v-720h-337c-45.333 0 -84.166 4.16699 -116.499 12.5s-58.833 22.666 -79.5 42.999s-35.834 47.333 -45.501 81s-14.5 75.5 -14.5 125.5v458h225v-422c0 -38 4.66699 -62.333 14 -73s26 -16 50 -16h79v511z" />
    <glyph glyph-name="afii10027" unicode="&#xc9;" horiz-adv-x="667" 
d="M403 720l225 0.000976562v-720h-337c-45.333 0 -84.166 4.16699 -116.499 12.5s-58.833 22.666 -79.5 42.999s-35.834 47.333 -45.501 81s-14.5 75.5 -14.5 125.5v458h225v-422c0 -38 4.66699 -62.333 14 -73s26 -16 50 -16h79v511zM390 888.001h115.998
c-6.66699 -47.333 -26.167 -84.333 -58.5 -111s-70.166 -40 -113.499 -40s-81.166 13.333 -113.499 40s-51.833 63.667 -58.5 111h116c5.33301 -15.333 12 -25.5 20 -30.5s20 -7.5 36 -7.5c15.333 0 27 2.5 35 7.5s15 15.167 21 30.5z" />
    <glyph glyph-name="afii10027" unicode="&#x419;" horiz-adv-x="667" 
d="M403 720l225 0.000976562v-720h-337c-45.333 0 -84.166 4.16699 -116.499 12.5s-58.833 22.666 -79.5 42.999s-35.834 47.333 -45.501 81s-14.5 75.5 -14.5 125.5v458h225v-422c0 -38 4.66699 -62.333 14 -73s26 -16 50 -16h79v511zM390 888.001h115.998
c-6.66699 -47.333 -26.167 -84.333 -58.5 -111s-70.166 -40 -113.499 -40s-81.166 13.333 -113.499 40s-51.833 63.667 -58.5 111h116c5.33301 -15.333 12 -25.5 20 -30.5s20 -7.5 36 -7.5c15.333 0 27 2.5 35 7.5s15 15.167 21 30.5z" />
    <glyph glyph-name="afii10028" unicode="&#xca;" horiz-adv-x="659" 
d="M396 720l221.997 0.00292969v-177c0 -40.667 -5 -73.334 -15 -98.001s-27.333 -47.334 -52 -68.001c28.667 -18.667 48.334 -41.5 59.001 -68.5s16 -64.167 16 -111.5v-197h-222v185c0 21.333 -1.66699 38.666 -5 51.999s-8.66602 23.5 -15.999 30.5
s-17.166 11.667 -29.499 14s-27.5 3.5 -45.5 3.5h-47v-285h-222v720h222v-276h44c38 0 62.667 8.16699 74 24.5s17 44.5 17 84.5v167z" />
    <glyph glyph-name="afii10028" unicode="&#x41a;" horiz-adv-x="659" 
d="M396 720l221.997 0.00292969v-177c0 -40.667 -5 -73.334 -15 -98.001s-27.333 -47.334 -52 -68.001c28.667 -18.667 48.334 -41.5 59.001 -68.5s16 -64.167 16 -111.5v-197h-222v185c0 21.333 -1.66699 38.666 -5 51.999s-8.66602 23.5 -15.999 30.5
s-17.166 11.667 -29.499 14s-27.5 3.5 -45.5 3.5h-47v-285h-222v720h222v-276h44c38 0 62.667 8.16699 74 24.5s17 44.5 17 84.5v167z" />
    <glyph glyph-name="afii10029" unicode="&#xcb;" horiz-adv-x="665" 
d="M262 0l-261.998 0.000976562v209h43v188c0 49.333 6.5 94.833 19.5 136.5s32 77.5 57 107.5s55.833 53.5 92.5 70.5s78.667 25.5 126 25.5c48.667 0 91.167 -9.33301 127.5 -28s66.666 -43.834 90.999 -75.501s42.666 -68 54.999 -109s18.5 -83.833 18.5 -128.5v-396
h-225v390c0 28 -1.33301 50.833 -4 68.5s-7 31.5 -13 41.5s-13.5 16.667 -22.5 20s-19.5 5 -31.5 5c-12.667 0 -23.5 -1.66699 -32.5 -5s-16.5 -10 -22.5 -20s-10.333 -23.833 -13 -41.5s-4 -40.5 -4 -68.5v-390z" />
    <glyph glyph-name="afii10029" unicode="&#x41b;" horiz-adv-x="665" 
d="M262 0l-261.998 0.000976562v209h43v188c0 49.333 6.5 94.833 19.5 136.5s32 77.5 57 107.5s55.833 53.5 92.5 70.5s78.667 25.5 126 25.5c48.667 0 91.167 -9.33301 127.5 -28s66.666 -43.834 90.999 -75.501s42.666 -68 54.999 -109s18.5 -83.833 18.5 -128.5v-396
h-225v390c0 28 -1.33301 50.833 -4 68.5s-7 31.5 -13 41.5s-13.5 16.667 -22.5 20s-19.5 5 -31.5 5c-12.667 0 -23.5 -1.66699 -32.5 -5s-16.5 -10 -22.5 -20s-10.333 -23.833 -13 -41.5s-4 -40.5 -4 -68.5v-390z" />
    <glyph glyph-name="afii10030" unicode="&#xcc;" horiz-adv-x="987" 
d="M32 0l-0.00195312 396c0 44.667 5.66699 87.5 17 128.5s28.5 77.333 51.5 109s52.333 56.834 88 75.501s77.834 28 126.501 28c36 0 68.833 -5.16699 98.5 -15.5s56.167 -24.833 79.5 -43.5c47.333 39.333 107 59 179 59c48.667 0 90.834 -9.33301 126.501 -28
s65 -43.834 88 -75.501s40.167 -68 51.5 -109s17 -83.833 17 -128.5v-396h-224v390c0 28 -1 50.833 -3 68.5s-5.33301 31.5 -10 41.5s-11 16.667 -19 20s-18.333 5 -31 5c-12 0 -21.833 -1.66699 -29.5 -5s-14 -9.66602 -19 -18.999s-8.5 -22.333 -10.5 -39
s-3 -38.334 -3 -65.001v-397h-225v397c0 26.667 -1.16699 48.334 -3.5 65.001s-6 29.667 -11 39s-11.333 15.666 -19 18.999s-17.167 5 -28.5 5c-12 0 -21.833 -1.66699 -29.5 -5s-14 -10 -19 -20s-8.5 -23.833 -10.5 -41.5s-3 -40.5 -3 -68.5v-390h-225z" />
    <glyph glyph-name="afii10030" unicode="&#x41c;" horiz-adv-x="987" 
d="M32 0l-0.00195312 396c0 44.667 5.66699 87.5 17 128.5s28.5 77.333 51.5 109s52.333 56.834 88 75.501s77.834 28 126.501 28c36 0 68.833 -5.16699 98.5 -15.5s56.167 -24.833 79.5 -43.5c47.333 39.333 107 59 179 59c48.667 0 90.834 -9.33301 126.501 -28
s65 -43.834 88 -75.501s40.167 -68 51.5 -109s17 -83.833 17 -128.5v-396h-224v390c0 28 -1 50.833 -3 68.5s-5.33301 31.5 -10 41.5s-11 16.667 -19 20s-18.333 5 -31 5c-12 0 -21.833 -1.66699 -29.5 -5s-14 -9.66602 -19 -18.999s-8.5 -22.333 -10.5 -39
s-3 -38.334 -3 -65.001v-397h-225v397c0 26.667 -1.16699 48.334 -3.5 65.001s-6 29.667 -11 39s-11.333 15.666 -19 18.999s-17.167 5 -28.5 5c-12 0 -21.833 -1.66699 -29.5 -5s-14 -10 -19 -20s-8.5 -23.833 -10.5 -41.5s-3 -40.5 -3 -68.5v-390h-225z" />
    <glyph glyph-name="afii10031" unicode="&#xcd;" horiz-adv-x="676" 
d="M412 720h225v-720h-225v285h-148v-285h-225v720h225v-258h148v258z" />
    <glyph glyph-name="afii10031" unicode="&#x41d;" horiz-adv-x="676" 
d="M412 720h225v-720h-225v285h-148v-285h-225v720h225v-258h148v258z" />
    <glyph glyph-name="afii10032" unicode="&#xce;" horiz-adv-x="788" 
d="M394 -17c-50 0 -97.833 9.66797 -143.5 29.001s-85.667 46 -120 80s-61.833 73.833 -82.5 119.5s-31 94.834 -31 147.501c0 52 10.333 101 31 147s48.167 86 82.5 120s74.333 61 120 81s93.5 30 143.5 30c52 0 101 -10 147 -30s86 -47.167 120 -81.5
s60.833 -74.833 80.5 -121.5s29.5 -96.334 29.5 -149.001c0 -51.333 -9.83301 -99.5 -29.5 -144.5s-46.5 -84.333 -80.5 -118s-74 -60.334 -120 -80.001s-95 -29.5 -147 -29.5zM393 195.001c20 0 39 4.16699 57 12.5s34 19.666 48 33.999s25 31.5 33 51.5s12 42 12 66
s-3.83301 46 -11.5 66s-18.334 37.5 -32.001 52.5s-29.5 26.667 -47.5 35s-37.333 12.5 -58 12.5c-21.333 0 -41 -4.16699 -59 -12.5s-33.667 -20 -47 -35s-23.833 -32.5 -31.5 -52.5s-11.5 -42 -11.5 -66s3.83301 -46 11.5 -66s18.334 -37.167 32.001 -51.5
s29.5 -25.666 47.5 -33.999s37 -12.5 57 -12.5z" />
    <glyph glyph-name="afii10032" unicode="&#x41e;" horiz-adv-x="788" 
d="M394 -17c-50 0 -97.833 9.66797 -143.5 29.001s-85.667 46 -120 80s-61.833 73.833 -82.5 119.5s-31 94.834 -31 147.501c0 52 10.333 101 31 147s48.167 86 82.5 120s74.333 61 120 81s93.5 30 143.5 30c52 0 101 -10 147 -30s86 -47.167 120 -81.5
s60.833 -74.833 80.5 -121.5s29.5 -96.334 29.5 -149.001c0 -51.333 -9.83301 -99.5 -29.5 -144.5s-46.5 -84.333 -80.5 -118s-74 -60.334 -120 -80.001s-95 -29.5 -147 -29.5zM393 195.001c20 0 39 4.16699 57 12.5s34 19.666 48 33.999s25 31.5 33 51.5s12 42 12 66
s-3.83301 46 -11.5 66s-18.334 37.5 -32.001 52.5s-29.5 26.667 -47.5 35s-37.333 12.5 -58 12.5c-21.333 0 -41 -4.16699 -59 -12.5s-33.667 -20 -47 -35s-23.833 -32.5 -31.5 -52.5s-11.5 -42 -11.5 -66s3.83301 -46 11.5 -66s18.334 -37.167 32.001 -51.5
s29.5 -25.666 47.5 -33.999s37 -12.5 57 -12.5z" />
    <glyph glyph-name="afii10033" unicode="&#xcf;" horiz-adv-x="657" 
d="M257 0l-224.998 0.000976562v397c0 49.333 6.83301 94.833 20.5 136.5s33.334 77.5 59.001 107.5s57.167 53.5 94.5 70.5s79.666 25.5 126.999 25.5c48.667 0 91.167 -9.33301 127.5 -28s66.666 -43.834 90.999 -75.501s42.666 -68 54.999 -109s18.5 -83.833 18.5 -128.5
v-396h-225v390c0 28 -1.33301 50.833 -4 68.5s-7 31.5 -13 41.5s-13.5 16.667 -22.5 20s-19.833 5 -32.5 5c-12 0 -22.5 -1.66699 -31.5 -5s-16.5 -10 -22.5 -20s-10.333 -23.833 -13 -41.5s-4 -40.5 -4 -68.5v-390z" />
    <glyph glyph-name="afii10033" unicode="&#x41f;" horiz-adv-x="657" 
d="M257 0l-224.998 0.000976562v397c0 49.333 6.83301 94.833 20.5 136.5s33.334 77.5 59.001 107.5s57.167 53.5 94.5 70.5s79.666 25.5 126.999 25.5c48.667 0 91.167 -9.33301 127.5 -28s66.666 -43.834 90.999 -75.501s42.666 -68 54.999 -109s18.5 -83.833 18.5 -128.5
v-396h-225v390c0 28 -1.33301 50.833 -4 68.5s-7 31.5 -13 41.5s-13.5 16.667 -22.5 20s-19.833 5 -32.5 5c-12 0 -22.5 -1.66699 -31.5 -5s-16.5 -10 -22.5 -20s-10.333 -23.833 -13 -41.5s-4 -40.5 -4 -68.5v-390z" />
    <glyph glyph-name="afii10034" unicode="&#xd0;" horiz-adv-x="621" 
d="M303 203v208.997c21.333 0 38.833 3.33301 52.5 10s20.5 19.334 20.5 38.001c0 14.667 -6 26.834 -18 36.501s-30.333 14.5 -55 14.5h-39v-511h-225v720h268c44 0 84.5 -5.5 121.5 -16.5s69 -27.333 96 -49s48.167 -48.167 63.5 -79.5s23 -67.666 23 -108.999
c0 -90.667 -27.167 -157.167 -81.5 -199.5s-129.833 -63.5 -226.5 -63.5z" />
    <glyph glyph-name="afii10034" unicode="&#x420;" horiz-adv-x="621" 
d="M303 203v208.997c21.333 0 38.833 3.33301 52.5 10s20.5 19.334 20.5 38.001c0 14.667 -6 26.834 -18 36.501s-30.333 14.5 -55 14.5h-39v-511h-225v720h268c44 0 84.5 -5.5 121.5 -16.5s69 -27.333 96 -49s48.167 -48.167 63.5 -79.5s23 -67.666 23 -108.999
c0 -90.667 -27.167 -157.167 -81.5 -199.5s-129.833 -63.5 -226.5 -63.5z" />
    <glyph glyph-name="afii10035" unicode="&#xd1;" horiz-adv-x="528" 
d="M503 224v-222.002c-16.667 -6.66699 -35.334 -11.334 -56.001 -14.001s-42.667 -4 -66 -4c-51.333 0 -99 9.5 -143 28.5s-82.5 45.333 -115.5 79s-58.833 73.334 -77.5 119.001s-28 95.5 -28 149.5c0 52 9.83301 100.833 29.5 146.5s46.834 85.5 81.501 119.5
s75.667 61 123 81s98.333 30 153 30c39.333 0 72.333 -5.66699 99 -17v-219c-18 8.66699 -35.667 14.834 -53 18.501s-34.333 5.5 -51 5.5c-47.333 0 -84.833 -15.667 -112.5 -47s-41.5 -70.666 -41.5 -117.999s13.667 -86.5 41 -117.5s62.666 -46.5 105.999 -46.5
c14.667 0 31.334 2 50.001 6s39 11.333 61 22z" />
    <glyph glyph-name="afii10035" unicode="&#x421;" horiz-adv-x="528" 
d="M503 224v-222.002c-16.667 -6.66699 -35.334 -11.334 -56.001 -14.001s-42.667 -4 -66 -4c-51.333 0 -99 9.5 -143 28.5s-82.5 45.333 -115.5 79s-58.833 73.334 -77.5 119.001s-28 95.5 -28 149.5c0 52 9.83301 100.833 29.5 146.5s46.834 85.5 81.501 119.5
s75.667 61 123 81s98.333 30 153 30c39.333 0 72.333 -5.66699 99 -17v-219c-18 8.66699 -35.667 14.834 -53 18.501s-34.333 5.5 -51 5.5c-47.333 0 -84.833 -15.667 -112.5 -47s-41.5 -70.666 -41.5 -117.999s13.667 -86.5 41 -117.5s62.666 -46.5 105.999 -46.5
c14.667 0 31.334 2 50.001 6s39 11.333 61 22z" />
    <glyph glyph-name="afii10036" unicode="&#xd2;" horiz-adv-x="551" 
d="M544 720v-209h-156v-511h-225v511h-156v209h537z" />
    <glyph glyph-name="afii10036" unicode="&#x422;" horiz-adv-x="551" 
d="M544 720v-209h-156v-511h-225v511h-156v209h537z" />
    <glyph glyph-name="afii10037" unicode="&#xd3;" horiz-adv-x="619" 
d="M29 720h220.999v-178c0 -17.333 4.33301 -32.333 13 -45s24.334 -19 47.001 -19h52v242h222v-463c0 -47.333 -6.5 -87.333 -19.5 -120s-32 -59.167 -57 -79.5s-55.667 -35 -92 -44s-77.833 -13.5 -124.5 -13.5h-219v209h198c61.333 0 92 17.667 92 53v39h-83
c-88 0 -151.667 16.667 -191 50s-59 91.333 -59 174v195z" />
    <glyph glyph-name="afii10037" unicode="&#x423;" horiz-adv-x="619" 
d="M29 720h220.999v-178c0 -17.333 4.33301 -32.333 13 -45s24.334 -19 47.001 -19h52v242h222v-463c0 -47.333 -6.5 -87.333 -19.5 -120s-32 -59.167 -57 -79.5s-55.667 -35 -92 -44s-77.833 -13.5 -124.5 -13.5h-219v209h198c61.333 0 92 17.667 92 53v39h-83
c-88 0 -151.667 16.667 -191 50s-59 91.333 -59 174v195z" />
    <glyph glyph-name="afii10038" unicode="&#xd4;" horiz-adv-x="912" 
d="M307 109c-95.333 0 -168.667 23.167 -220 69.5s-77 110.833 -77 193.5c0 82 26.833 145 80.5 189s124.5 66 212.5 66h42v93h222v-93h42c88 0 159 -22 213 -66s81 -107 81 -189c0 -82.667 -25.833 -147.167 -77.5 -193.5s-125.167 -69.5 -220.5 -69.5v209
c20.667 0 38 3 52 9s21 18.667 21 38c0 15.333 -6.33301 28 -19 38s-28.667 15 -48 15h-44v-418h-222v418h-44c-19.333 0 -35.333 -5 -48 -15s-19 -22.667 -19 -38c0 -19.333 7 -32 21 -38s31.333 -9 52 -9v-209z" />
    <glyph glyph-name="afii10038" unicode="&#x424;" horiz-adv-x="912" 
d="M307 109c-95.333 0 -168.667 23.167 -220 69.5s-77 110.833 -77 193.5c0 82 26.833 145 80.5 189s124.5 66 212.5 66h42v93h222v-93h42c88 0 159 -22 213 -66s81 -107 81 -189c0 -82.667 -25.833 -147.167 -77.5 -193.5s-125.167 -69.5 -220.5 -69.5v209
c20.667 0 38 3 52 9s21 18.667 21 38c0 15.333 -6.33301 28 -19 38s-28.667 15 -48 15h-44v-418h-222v418h-44c-19.333 0 -35.333 -5 -48 -15s-19 -22.667 -19 -38c0 -19.333 7 -32 21 -38s31.333 -9 52 -9v-209z" />
    <glyph glyph-name="afii10039" unicode="&#xd5;" horiz-adv-x="663" 
d="M331 441c26 0 45 6.66699 57 20s18 39.333 18 78v181h222v-183c0 -24 -1.33301 -43.833 -4 -59.5s-7 -29 -13 -40s-13.833 -21 -23.5 -30s-21.5 -19.167 -35.5 -30.5c27.333 -23.333 46.833 -48 58.5 -74s17.5 -60.333 17.5 -103v-200h-222v200
c0 31.333 -6 53.333 -18 66s-31 19 -57 19c-25.333 0 -44 -6.33301 -56 -19s-18 -34.667 -18 -66v-200h-222v200c0 42.667 5.83301 77 17.5 103s31.167 50.667 58.5 74c-14 11.333 -25.833 21.5 -35.5 30.5s-17.5 19 -23.5 30s-10.333 24.333 -13 40s-4 35.5 -4 59.5v183
h222v-181c0 -38.667 6 -64.667 18 -78s30.667 -20 56 -20z" />
    <glyph glyph-name="afii10039" unicode="&#x425;" horiz-adv-x="663" 
d="M331 441c26 0 45 6.66699 57 20s18 39.333 18 78v181h222v-183c0 -24 -1.33301 -43.833 -4 -59.5s-7 -29 -13 -40s-13.833 -21 -23.5 -30s-21.5 -19.167 -35.5 -30.5c27.333 -23.333 46.833 -48 58.5 -74s17.5 -60.333 17.5 -103v-200h-222v200
c0 31.333 -6 53.333 -18 66s-31 19 -57 19c-25.333 0 -44 -6.33301 -56 -19s-18 -34.667 -18 -66v-200h-222v200c0 42.667 5.83301 77 17.5 103s31.167 50.667 58.5 74c-14 11.333 -25.833 21.5 -35.5 30.5s-17.5 19 -23.5 30s-10.333 24.333 -13 40s-4 35.5 -4 59.5v183
h222v-181c0 -38.667 6 -64.667 18 -78s30.667 -20 56 -20z" />
    <glyph glyph-name="afii10040" unicode="&#xd6;" horiz-adv-x="666" 
d="M400 720l225 0.000976562v-511h51v-209h-385c-45.333 0 -84.166 4.16699 -116.499 12.5s-58.833 22.666 -79.5 42.999s-35.834 47.333 -45.501 81s-14.5 75.5 -14.5 125.5v458h222v-422c0 -38 5.16699 -62.333 15.5 -73s27.5 -16 51.5 -16h76v511z" />
    <glyph glyph-name="afii10040" unicode="&#x426;" horiz-adv-x="666" 
d="M400 720l225 0.000976562v-511h51v-209h-385c-45.333 0 -84.166 4.16699 -116.499 12.5s-58.833 22.666 -79.5 42.999s-35.834 47.333 -45.501 81s-14.5 75.5 -14.5 125.5v458h222v-422c0 -38 5.16699 -62.333 15.5 -73s27.5 -16 51.5 -16h76v511z" />
    <glyph glyph-name="afii10041" unicode="&#xd7;" horiz-adv-x="623" 
d="M584 720v-720.001h-225v203h-39c-97.333 0 -170.833 21.167 -220.5 63.5s-74.5 108.833 -74.5 199.5v254h222v-245c0 -17.333 5 -32.166 15 -44.499s29.333 -18.5 58 -18.5h39v308h225z" />
    <glyph glyph-name="afii10041" unicode="&#x427;" horiz-adv-x="623" 
d="M584 720v-720.001h-225v203h-39c-97.333 0 -170.833 21.167 -220.5 63.5s-74.5 108.833 -74.5 199.5v254h222v-245c0 -17.333 5 -32.166 15 -44.499s29.333 -18.5 58 -18.5h39v308h225z" />
    <glyph glyph-name="afii10042" unicode="&#xd8;" horiz-adv-x="1009" 
d="M35 720h221.999v-422c0 -38 5.16699 -62.333 15.5 -73s27.5 -16 51.5 -16h76v511h209v-511h76c24.667 0 42.167 5.33301 52.5 16s15.5 35 15.5 73v422h221v-458c0 -50 -4.83301 -91.833 -14.5 -125.5s-24.667 -60.667 -45 -81s-46.666 -34.666 -78.999 -42.999
s-71.5 -12.5 -117.5 -12.5h-427c-45.333 0 -84.166 4.16699 -116.499 12.5s-58.833 22.666 -79.5 42.999s-35.834 47.333 -45.501 81s-14.5 75.5 -14.5 125.5v458z" />
    <glyph glyph-name="afii10042" unicode="&#x428;" horiz-adv-x="1009" 
d="M35 720h221.999v-422c0 -38 5.16699 -62.333 15.5 -73s27.5 -16 51.5 -16h76v511h209v-511h76c24.667 0 42.167 5.33301 52.5 16s15.5 35 15.5 73v422h221v-458c0 -50 -4.83301 -91.833 -14.5 -125.5s-24.667 -60.667 -45 -81s-46.666 -34.666 -78.999 -42.999
s-71.5 -12.5 -117.5 -12.5h-427c-45.333 0 -84.166 4.16699 -116.499 12.5s-58.833 22.666 -79.5 42.999s-35.834 47.333 -45.501 81s-14.5 75.5 -14.5 125.5v458z" />
    <glyph glyph-name="afii10043" unicode="&#xd9;" horiz-adv-x="1016" 
d="M35 720l222 0.000976562v-422c0 -38 5.16699 -62.333 15.5 -73s27.5 -16 51.5 -16h76v511h209v-511h144v511h221v-511h51v-209h-734c-45.333 0 -84.166 4.16699 -116.499 12.5s-58.833 22.666 -79.5 42.999s-35.834 47.333 -45.501 81s-14.5 75.5 -14.5 125.5v458z" />
    <glyph glyph-name="afii10043" unicode="&#x429;" horiz-adv-x="1016" 
d="M35 720l222 0.000976562v-422c0 -38 5.16699 -62.333 15.5 -73s27.5 -16 51.5 -16h76v511h209v-511h144v511h221v-511h51v-209h-734c-45.333 0 -84.166 4.16699 -116.499 12.5s-58.833 22.666 -79.5 42.999s-35.834 47.333 -45.501 81s-14.5 75.5 -14.5 125.5v458z" />
    <glyph glyph-name="afii10044" unicode="&#xda;" horiz-adv-x="675" 
d="M93 0v510.999h-83v209h308v-511h39c48.667 0 73 16.667 73 50c0 19.333 -6.83301 32.333 -20.5 39s-31.167 10 -52.5 10v203c98 0 173.833 -21.167 227.5 -63.5s80.5 -106.833 80.5 -193.5c0 -41.333 -7.66699 -77.666 -23 -108.999s-36.5 -57.833 -63.5 -79.5
s-59 -38 -96 -49s-77.5 -16.5 -121.5 -16.5h-268z" />
    <glyph glyph-name="afii10044" unicode="&#x42a;" horiz-adv-x="675" 
d="M93 0v510.999h-83v209h308v-511h39c48.667 0 73 16.667 73 50c0 19.333 -6.83301 32.333 -20.5 39s-31.167 10 -52.5 10v203c98 0 173.833 -21.167 227.5 -63.5s80.5 -106.833 80.5 -193.5c0 -41.333 -7.66699 -77.666 -23 -108.999s-36.5 -57.833 -63.5 -79.5
s-59 -38 -96 -49s-77.5 -16.5 -121.5 -16.5h-268z" />
    <glyph glyph-name="afii10045" unicode="&#xdb;" horiz-adv-x="916" 
d="M652 720h225v-720h-225v720zM39 0v719.999h225v-511h39c48.667 0 73 16.667 73 50c0 19.333 -6.83301 32.333 -20.5 39s-31.167 10 -52.5 10v203c98 0 173.833 -21.167 227.5 -63.5s80.5 -106.833 80.5 -193.5c0 -41.333 -7.66699 -77.666 -23 -108.999
s-36.5 -57.833 -63.5 -79.5s-59 -38 -96 -49s-77.5 -16.5 -121.5 -16.5h-268z" />
    <glyph glyph-name="afii10045" unicode="&#x42b;" horiz-adv-x="916" 
d="M652 720h225v-720h-225v720zM39 0v719.999h225v-511h39c48.667 0 73 16.667 73 50c0 19.333 -6.83301 32.333 -20.5 39s-31.167 10 -52.5 10v203c98 0 173.833 -21.167 227.5 -63.5s80.5 -106.833 80.5 -193.5c0 -41.333 -7.66699 -77.666 -23 -108.999
s-36.5 -57.833 -63.5 -79.5s-59 -38 -96 -49s-77.5 -16.5 -121.5 -16.5h-268z" />
    <glyph glyph-name="afii10046" unicode="&#xdc;" horiz-adv-x="621" 
d="M39 0v719.999h225v-511h39c48.667 0 73 16.667 73 50c0 19.333 -6.83301 32.333 -20.5 39s-31.167 10 -52.5 10v203c98 0 173.833 -21.167 227.5 -63.5s80.5 -106.833 80.5 -193.5c0 -41.333 -7.66699 -77.666 -23 -108.999s-36.5 -57.833 -63.5 -79.5s-59 -38 -96 -49
s-77.5 -16.5 -121.5 -16.5h-268z" />
    <glyph glyph-name="afii10046" unicode="&#x42c;" horiz-adv-x="621" 
d="M39 0v719.999h225v-511h39c48.667 0 73 16.667 73 50c0 19.333 -6.83301 32.333 -20.5 39s-31.167 10 -52.5 10v203c98 0 173.833 -21.167 227.5 -63.5s80.5 -106.833 80.5 -193.5c0 -41.333 -7.66699 -77.666 -23 -108.999s-36.5 -57.833 -63.5 -79.5s-59 -38 -96 -49
s-77.5 -16.5 -121.5 -16.5h-268z" />
    <glyph glyph-name="afii10047" unicode="&#xdd;" horiz-adv-x="528" 
d="M25 224c22 -10.667 42.333 -17.999 61 -21.999s35.334 -6 50.001 -6c38 0 69.167 9.16699 93.5 27.5s40.166 46.166 47.499 83.499h-148v124h141c-9.33301 27.333 -25.833 49.833 -49.5 67.5s-54.167 26.5 -91.5 26.5c-16.667 0 -33.667 -1.83301 -51 -5.5
s-35 -9.83398 -53 -18.501v219c12.667 5.33301 28.334 9.5 47.001 12.5s37.667 4.5 57 4.5c56 0 107.333 -9.33301 154 -28s87 -44.834 121 -78.501s60.333 -73.5 79 -119.5s28 -96.333 28 -151c0 -63.333 -9.5 -118.5 -28.5 -165.5s-44.833 -86.167 -77.5 -117.5
s-71.167 -54.666 -115.5 -69.999s-91.833 -23 -142.5 -23c-23.333 0 -45.333 1.33301 -66 4s-39.334 7.33398 -56.001 14.001v222z" />
    <glyph glyph-name="afii10047" unicode="&#x42d;" horiz-adv-x="528" 
d="M25 224c22 -10.667 42.333 -17.999 61 -21.999s35.334 -6 50.001 -6c38 0 69.167 9.16699 93.5 27.5s40.166 46.166 47.499 83.499h-148v124h141c-9.33301 27.333 -25.833 49.833 -49.5 67.5s-54.167 26.5 -91.5 26.5c-16.667 0 -33.667 -1.83301 -51 -5.5
s-35 -9.83398 -53 -18.501v219c12.667 5.33301 28.334 9.5 47.001 12.5s37.667 4.5 57 4.5c56 0 107.333 -9.33301 154 -28s87 -44.834 121 -78.501s60.333 -73.5 79 -119.5s28 -96.333 28 -151c0 -63.333 -9.5 -118.5 -28.5 -165.5s-44.833 -86.167 -77.5 -117.5
s-71.167 -54.666 -115.5 -69.999s-91.833 -23 -142.5 -23c-23.333 0 -45.333 1.33301 -66 4s-39.334 7.33398 -56.001 14.001v222z" />
    <glyph glyph-name="afii10048" unicode="&#xde;" horiz-adv-x="932" 
d="M688 288v144c0 19.333 -7.5 36.333 -22.5 51s-32.167 22 -51.5 22s-36.333 -7.33301 -51 -22s-22 -31.667 -22 -51v-144c0 -19.333 7.33301 -36.333 22 -51s31.667 -22 51 -22s36.5 7.33301 51.5 22s22.5 31.667 22.5 51zM39 720h222v-285h58c0 42 7.5 81.333 22.5 118
s35.667 68.667 62 96s57.5 48.833 93.5 64.5s75 23.5 117 23.5s81.167 -7.83301 117.5 -23.5s67.666 -37.167 93.999 -64.5s47 -59.333 62 -96s22.5 -76 22.5 -118v-150c0 -42 -7.5 -81.333 -22.5 -118s-35.667 -68.667 -62 -96s-57.666 -48.833 -93.999 -64.5
s-75.5 -23.5 -117.5 -23.5s-81 7.83301 -117 23.5s-67.167 37.167 -93.5 64.5s-47 59.333 -62 96s-22.5 76 -22.5 118h-58v-285h-222v720z" />
    <glyph glyph-name="afii10048" unicode="&#x42e;" horiz-adv-x="932" 
d="M688 288v144c0 19.333 -7.5 36.333 -22.5 51s-32.167 22 -51.5 22s-36.333 -7.33301 -51 -22s-22 -31.667 -22 -51v-144c0 -19.333 7.33301 -36.333 22 -51s31.667 -22 51 -22s36.5 7.33301 51.5 22s22.5 31.667 22.5 51zM39 720h222v-285h58c0 42 7.5 81.333 22.5 118
s35.667 68.667 62 96s57.5 48.833 93.5 64.5s75 23.5 117 23.5s81.167 -7.83301 117.5 -23.5s67.666 -37.167 93.999 -64.5s47 -59.333 62 -96s22.5 -76 22.5 -118v-150c0 -42 -7.5 -81.333 -22.5 -118s-35.667 -68.667 -62 -96s-57.666 -48.833 -93.999 -64.5
s-75.5 -23.5 -117.5 -23.5s-81 7.83301 -117 23.5s-67.167 37.167 -93.5 64.5s-47 59.333 -62 96s-22.5 76 -22.5 118h-58v-285h-222v720z" />
    <glyph glyph-name="afii10049" unicode="&#xdf;" horiz-adv-x="642" 
d="M380 0l0.000976562 509.998h-39c-31.333 0 -52 -4.5 -62 -13.5s-15 -23.5 -15 -43.5c0 -19.333 4.5 -33.833 13.5 -43.5s24.5 -14.5 46.5 -14.5h17v-161h-17c-24 0 -40.833 -6 -50.5 -18s-14.5 -33.667 -14.5 -65v-151h-228v151c0 41.333 4.33301 75.833 13 103.5
s27.667 52.5 57 74.5c-24.667 18 -41.834 41.5 -51.501 70.5s-14.5 57.833 -14.5 86.5c0 42.667 8 78.834 24 108.501s38 53.834 66 72.501s60.5 32.167 97.5 40.5s76.5 12.5 118.5 12.5h262v-720h-223z" />
    <glyph glyph-name="afii10049" unicode="&#x42f;" horiz-adv-x="642" 
d="M380 0l0.000976562 509.998h-39c-31.333 0 -52 -4.5 -62 -13.5s-15 -23.5 -15 -43.5c0 -19.333 4.5 -33.833 13.5 -43.5s24.5 -14.5 46.5 -14.5h17v-161h-17c-24 0 -40.833 -6 -50.5 -18s-14.5 -33.667 -14.5 -65v-151h-228v151c0 41.333 4.33301 75.833 13 103.5
s27.667 52.5 57 74.5c-24.667 18 -41.834 41.5 -51.501 70.5s-14.5 57.833 -14.5 86.5c0 42.667 8 78.834 24 108.501s38 53.834 66 72.501s60.5 32.167 97.5 40.5s76.5 12.5 118.5 12.5h262v-720h-223z" />
    <glyph glyph-name="afii10065" unicode="&#xe0;" horiz-adv-x="667" 
d="M632 0l-220.999 0.000976562v159h-154v-159h-222v410c0 45.333 7 87.833 21 127.5s34 74.167 60 103.5s57.667 52.666 95 69.999s79.666 26 126.999 26s89.333 -8.33301 126 -25s67.5 -39.834 92.5 -69.501s43.833 -64.667 56.5 -105s19 -84.166 19 -131.499v-406z
M257.001 349.001l153.999 -0.000976562v64c0 32.667 -5.33301 57.167 -16 73.5s-29.667 24.5 -57 24.5c-25.333 0 -45.166 -8.16699 -59.499 -24.5s-21.5 -41.166 -21.5 -74.499v-63z" />
    <glyph glyph-name="afii10065" unicode="&#x430;" horiz-adv-x="667" 
d="M632 0l-220.999 0.000976562v159h-154v-159h-222v410c0 45.333 7 87.833 21 127.5s34 74.167 60 103.5s57.667 52.666 95 69.999s79.666 26 126.999 26s89.333 -8.33301 126 -25s67.5 -39.834 92.5 -69.501s43.833 -64.667 56.5 -105s19 -84.166 19 -131.499v-406z
M257.001 349.001l153.999 -0.000976562v64c0 32.667 -5.33301 57.167 -16 73.5s-29.667 24.5 -57 24.5c-25.333 0 -45.166 -8.16699 -59.499 -24.5s-21.5 -41.166 -21.5 -74.499v-63z" />
    <glyph glyph-name="afii10066" unicode="&#xe1;" horiz-adv-x="658" 
d="M39 0l-0.00390625 720h546v-206h-321v-308h36c22.667 0 40.834 1.16699 54.501 3.5s24.334 5.66602 32.001 9.99902s12.834 9.5 15.501 15.5s4 12.667 4 20c0 15.333 -5.66699 28 -17 38s-35.666 15 -72.999 15h-16v128h16c109.333 0 190.5 -15.833 243.5 -47.5
s79.5 -84.167 79.5 -157.5c0 -81.333 -27.833 -140.166 -83.5 -176.499s-137.167 -54.5 -244.5 -54.5h-272z" />
    <glyph glyph-name="afii10066" unicode="&#x431;" horiz-adv-x="658" 
d="M39 0l-0.00390625 720h546v-206h-321v-308h36c22.667 0 40.834 1.16699 54.501 3.5s24.334 5.66602 32.001 9.99902s12.834 9.5 15.501 15.5s4 12.667 4 20c0 15.333 -5.66699 28 -17 38s-35.666 15 -72.999 15h-16v128h16c109.333 0 190.5 -15.833 243.5 -47.5
s79.5 -84.167 79.5 -157.5c0 -81.333 -27.833 -140.166 -83.5 -176.499s-137.167 -54.5 -244.5 -54.5h-272z" />
    <glyph glyph-name="afii10067" unicode="&#xe2;" horiz-adv-x="661" 
d="M300 308l-0.00390625 128.001h16c29.333 0 49 3.33301 59 10s15 15.334 15 26.001c0 13.333 -5 23.666 -15 30.999s-29.667 11 -59 11h-52v-308h36c22.667 0 40.834 1.16699 54.501 3.5s24.334 5.66602 32.001 9.99902s12.834 9.5 15.501 15.5s4 12.667 4 20
c0 15.333 -5.66699 28 -17 38s-35.666 15 -72.999 15h-16zM38.9961 0.000976562v720h290c94 0 165.667 -19 215 -57s74 -92.333 74 -163c0 -22 -3.83301 -43.333 -11.5 -64s-20.834 -40 -39.501 -58c20.667 -16.667 37.834 -38.834 51.501 -66.501s20.5 -54.5 20.5 -80.5
c0 -81.333 -27.833 -140.166 -83.5 -176.499s-137.167 -54.5 -244.5 -54.5h-272z" />
    <glyph glyph-name="afii10067" unicode="&#x432;" horiz-adv-x="661" 
d="M300 308l-0.00390625 128.001h16c29.333 0 49 3.33301 59 10s15 15.334 15 26.001c0 13.333 -5 23.666 -15 30.999s-29.667 11 -59 11h-52v-308h36c22.667 0 40.834 1.16699 54.501 3.5s24.334 5.66602 32.001 9.99902s12.834 9.5 15.501 15.5s4 12.667 4 20
c0 15.333 -5.66699 28 -17 38s-35.666 15 -72.999 15h-16zM38.9961 0.000976562v720h290c94 0 165.667 -19 215 -57s74 -92.333 74 -163c0 -22 -3.83301 -43.333 -11.5 -64s-20.834 -40 -39.501 -58c20.667 -16.667 37.834 -38.834 51.501 -66.501s20.5 -54.5 20.5 -80.5
c0 -81.333 -27.833 -140.166 -83.5 -176.499s-137.167 -54.5 -244.5 -54.5h-272z" />
    <glyph glyph-name="afii10068" unicode="&#xe3;" horiz-adv-x="391" 
d="M257 0l-225 -0.000976562v443c0 52 4.5 95.833 13.5 131.5s24 64.167 45 85.5s48.5 36.666 82.5 45.999s76.333 14 127 14h84v-206h-43c-17.333 0 -31.5 -1.16699 -42.5 -3.5s-19.5 -6.66602 -25.5 -12.999s-10.167 -15.666 -12.5 -27.999s-3.5 -28.5 -3.5 -48.5v-421z
" />
    <glyph glyph-name="afii10068" unicode="&#x433;" horiz-adv-x="391" 
d="M257 0l-225 -0.000976562v443c0 52 4.5 95.833 13.5 131.5s24 64.167 45 85.5s48.5 36.666 82.5 45.999s76.333 14 127 14h84v-206h-43c-17.333 0 -31.5 -1.16699 -42.5 -3.5s-19.5 -6.66602 -25.5 -12.999s-10.167 -15.666 -12.5 -27.999s-3.5 -28.5 -3.5 -48.5v-421z
" />
    <glyph glyph-name="afii10069" unicode="&#xe4;" horiz-adv-x="666" 
d="M260 390v-181h143v181c0 28 -1.33301 50.833 -4 68.5s-7 31.5 -13 41.5s-13.5 16.667 -22.5 20s-19.833 5 -32.5 5c-12 0 -22.5 -1.66699 -31.5 -5s-16.5 -10 -22.5 -20s-10.333 -23.833 -13 -41.5s-4 -40.5 -4 -68.5zM676 0l-685.997 0.000976562v209h48v188
c0 49.333 6.66699 94.833 20 136.5s32.666 77.5 57.999 107.5s56.5 53.5 93.5 70.5s79.167 25.5 126.5 25.5c48.667 0 91.167 -9.33301 127.5 -28s66.666 -43.834 90.999 -75.501s42.666 -68 54.999 -109s18.5 -83.833 18.5 -128.5v-187h48v-209z" />
    <glyph glyph-name="afii10069" unicode="&#x434;" horiz-adv-x="666" 
d="M260 390v-181h143v181c0 28 -1.33301 50.833 -4 68.5s-7 31.5 -13 41.5s-13.5 16.667 -22.5 20s-19.833 5 -32.5 5c-12 0 -22.5 -1.66699 -31.5 -5s-16.5 -10 -22.5 -20s-10.333 -23.833 -13 -41.5s-4 -40.5 -4 -68.5zM676 0l-685.997 0.000976562v209h48v188
c0 49.333 6.66699 94.833 20 136.5s32.666 77.5 57.999 107.5s56.5 53.5 93.5 70.5s79.167 25.5 126.5 25.5c48.667 0 91.167 -9.33301 127.5 -28s66.666 -43.834 90.999 -75.501s42.666 -68 54.999 -109s18.5 -83.833 18.5 -128.5v-187h48v-209z" />
    <glyph glyph-name="afii10070" unicode="&#xe5;" horiz-adv-x="539" 
d="M507 439l-0.00292969 -129.005h-190c-19.333 0 -35.333 -4.16699 -48 -12.5s-19 -20.166 -19 -35.499c0 -35.333 30.667 -53 92 -53h165v-209h-197c-93.333 0 -164.166 18.833 -212.499 56.5s-72.5 95.5 -72.5 173.5c0 28 3 53 9 75s20 45.667 42 71
c-17.333 18.667 -30.166 38.334 -38.499 59.001s-12.5 40.667 -12.5 60c0 42 7.5 77.333 22.5 106s35.333 51.834 61 69.501s55.834 30.334 90.501 38.001s71.667 11.5 111 11.5h197v-207h-187c-26 0 -44.167 -2.66699 -54.5 -8s-15.5 -14.666 -15.5 -27.999
s5.5 -23 16.5 -29s29.167 -9 54.5 -9h186z" />
    <glyph glyph-name="afii10070" unicode="&#x435;" horiz-adv-x="539" 
d="M507 439l-0.00292969 -129.005h-190c-19.333 0 -35.333 -4.16699 -48 -12.5s-19 -20.166 -19 -35.499c0 -35.333 30.667 -53 92 -53h165v-209h-197c-93.333 0 -164.166 18.833 -212.499 56.5s-72.5 95.5 -72.5 173.5c0 28 3 53 9 75s20 45.667 42 71
c-17.333 18.667 -30.166 38.334 -38.499 59.001s-12.5 40.667 -12.5 60c0 42 7.5 77.333 22.5 106s35.333 51.834 61 69.501s55.834 30.334 90.501 38.001s71.667 11.5 111 11.5h197v-207h-187c-26 0 -44.167 -2.66699 -54.5 -8s-15.5 -14.666 -15.5 -27.999
s5.5 -23 16.5 -29s29.167 -9 54.5 -9h186z" />
    <glyph glyph-name="afii10072" unicode="&#xe6;" horiz-adv-x="1018" 
d="M263 720l-0.00390625 -167c0 -40 5.66699 -68.167 17 -84.5s36 -24.5 74 -24.5h44v276h222v-276h44c38 0 62.667 8.16699 74 24.5s17 44.5 17 84.5v167h222v-177c0 -40.667 -5 -73.334 -15 -98.001s-27.333 -47.334 -52 -68.001
c28.667 -18.667 48.334 -41.5 59.001 -68.5s16 -64.167 16 -111.5v-197h-222v185c0 21.333 -1.66699 38.666 -5 51.999s-8.66602 23.5 -15.999 30.5s-17.166 11.667 -29.499 14s-27.5 3.5 -45.5 3.5h-47v-285h-222v285h-48c-18 0 -33 -1.16699 -45 -3.5
s-21.833 -7 -29.5 -14s-13.167 -17.167 -16.5 -30.5s-5 -30.666 -5 -51.999v-185h-221v197c0 47.333 5.33301 84.5 16 111.5s30.334 49.833 59.001 68.5c-24.667 20.667 -42 43.334 -52 68.001s-15 57.334 -15 98.001v177h222z" />
    <glyph glyph-name="afii10072" unicode="&#x436;" horiz-adv-x="1018" 
d="M263 720l-0.00390625 -167c0 -40 5.66699 -68.167 17 -84.5s36 -24.5 74 -24.5h44v276h222v-276h44c38 0 62.667 8.16699 74 24.5s17 44.5 17 84.5v167h222v-177c0 -40.667 -5 -73.334 -15 -98.001s-27.333 -47.334 -52 -68.001
c28.667 -18.667 48.334 -41.5 59.001 -68.5s16 -64.167 16 -111.5v-197h-222v185c0 21.333 -1.66699 38.666 -5 51.999s-8.66602 23.5 -15.999 30.5s-17.166 11.667 -29.499 14s-27.5 3.5 -45.5 3.5h-47v-285h-222v285h-48c-18 0 -33 -1.16699 -45 -3.5
s-21.833 -7 -29.5 -14s-13.167 -17.167 -16.5 -30.5s-5 -30.666 -5 -51.999v-185h-221v197c0 47.333 5.33301 84.5 16 111.5s30.334 49.833 59.001 68.5c-24.667 20.667 -42 43.334 -52 68.001s-15 57.334 -15 98.001v177h222z" />
    <glyph glyph-name="afii10073" unicode="&#xe7;" horiz-adv-x="493" 
d="M33 0l0.000976562 223.002c11.333 -6.66699 27.333 -13 48 -19s44.334 -9 71.001 -9c36.667 0 61 6.16699 73 18.5s18 26.166 18 41.499s-5.83301 28 -17.5 38s-36.167 15 -73.5 15h-16v128h16c37.333 0 61.833 3.33301 73.5 10s17.5 16.667 17.5 30
c0 17.333 -5.83301 30.833 -17.5 40.5s-36.167 14.5 -73.5 14.5c-26.667 0 -49.834 -1.5 -69.501 -4.5s-36.167 -7.16699 -49.5 -12.5v206c6.66699 2 16 4 28 6s24.833 3.83301 38.5 5.5s27.167 3 40.5 4s24.333 1.5 33 1.5c42.667 0 82 -4 118 -12s67.167 -21.333 93.5 -40
s46.833 -43.167 61.5 -73.5s22 -67.5 22 -111.5c0 -22 -5.66699 -43.5 -17 -64.5s-27.333 -40.167 -48 -57.5c21.333 -16 37.5 -34.833 48.5 -56.5s16.5 -51.834 16.5 -90.501c0 -81.333 -23.167 -143 -69.5 -185s-121.5 -63 -225.5 -63c-7.33301 0 -17.5 0.5 -30.5 1.5
s-26.333 2.16699 -40 3.5s-26.834 3 -39.501 5s-22.667 4.33301 -30 7z" />
    <glyph glyph-name="afii10073" unicode="&#x437;" horiz-adv-x="493" 
d="M33 0l0.000976562 223.002c11.333 -6.66699 27.333 -13 48 -19s44.334 -9 71.001 -9c36.667 0 61 6.16699 73 18.5s18 26.166 18 41.499s-5.83301 28 -17.5 38s-36.167 15 -73.5 15h-16v128h16c37.333 0 61.833 3.33301 73.5 10s17.5 16.667 17.5 30
c0 17.333 -5.83301 30.833 -17.5 40.5s-36.167 14.5 -73.5 14.5c-26.667 0 -49.834 -1.5 -69.501 -4.5s-36.167 -7.16699 -49.5 -12.5v206c6.66699 2 16 4 28 6s24.833 3.83301 38.5 5.5s27.167 3 40.5 4s24.333 1.5 33 1.5c42.667 0 82 -4 118 -12s67.167 -21.333 93.5 -40
s46.833 -43.167 61.5 -73.5s22 -67.5 22 -111.5c0 -22 -5.66699 -43.5 -17 -64.5s-27.333 -40.167 -48 -57.5c21.333 -16 37.5 -34.833 48.5 -56.5s16.5 -51.834 16.5 -90.501c0 -81.333 -23.167 -143 -69.5 -185s-121.5 -63 -225.5 -63c-7.33301 0 -17.5 0.5 -30.5 1.5
s-26.333 2.16699 -40 3.5s-26.834 3 -39.501 5s-22.667 4.33301 -30 7z" />
    <glyph glyph-name="afii10074" unicode="&#xe8;" horiz-adv-x="667" 
d="M403 720l225 0.000976562v-720h-337c-45.333 0 -84.166 4.16699 -116.499 12.5s-58.833 22.666 -79.5 42.999s-35.834 47.333 -45.501 81s-14.5 75.5 -14.5 125.5v458h225v-422c0 -38 4.66699 -62.333 14 -73s26 -16 50 -16h79v511z" />
    <glyph glyph-name="afii10074" unicode="&#x438;" horiz-adv-x="667" 
d="M403 720l225 0.000976562v-720h-337c-45.333 0 -84.166 4.16699 -116.499 12.5s-58.833 22.666 -79.5 42.999s-35.834 47.333 -45.501 81s-14.5 75.5 -14.5 125.5v458h225v-422c0 -38 4.66699 -62.333 14 -73s26 -16 50 -16h79v511z" />
    <glyph glyph-name="afii10075" unicode="&#xe9;" horiz-adv-x="667" 
d="M403 720l225 0.000976562v-720h-337c-45.333 0 -84.166 4.16699 -116.499 12.5s-58.833 22.666 -79.5 42.999s-35.834 47.333 -45.501 81s-14.5 75.5 -14.5 125.5v458h225v-422c0 -38 4.66699 -62.333 14 -73s26 -16 50 -16h79v511zM390 888.001h115.998
c-6.66699 -47.333 -26.167 -84.333 -58.5 -111s-70.166 -40 -113.499 -40s-81.166 13.333 -113.499 40s-51.833 63.667 -58.5 111h116c5.33301 -15.333 12 -25.5 20 -30.5s20 -7.5 36 -7.5c15.333 0 27 2.5 35 7.5s15 15.167 21 30.5z" />
    <glyph glyph-name="afii10075" unicode="&#x439;" horiz-adv-x="667" 
d="M403 720l225 0.000976562v-720h-337c-45.333 0 -84.166 4.16699 -116.499 12.5s-58.833 22.666 -79.5 42.999s-35.834 47.333 -45.501 81s-14.5 75.5 -14.5 125.5v458h225v-422c0 -38 4.66699 -62.333 14 -73s26 -16 50 -16h79v511zM390 888.001h115.998
c-6.66699 -47.333 -26.167 -84.333 -58.5 -111s-70.166 -40 -113.499 -40s-81.166 13.333 -113.499 40s-51.833 63.667 -58.5 111h116c5.33301 -15.333 12 -25.5 20 -30.5s20 -7.5 36 -7.5c15.333 0 27 2.5 35 7.5s15 15.167 21 30.5z" />
    <glyph glyph-name="afii10076" unicode="&#xea;" horiz-adv-x="659" 
d="M396 720l221.997 0.00292969v-177c0 -40.667 -5 -73.334 -15 -98.001s-27.333 -47.334 -52 -68.001c28.667 -18.667 48.334 -41.5 59.001 -68.5s16 -64.167 16 -111.5v-197h-222v185c0 21.333 -1.66699 38.666 -5 51.999s-8.66602 23.5 -15.999 30.5
s-17.166 11.667 -29.499 14s-27.5 3.5 -45.5 3.5h-47v-285h-222v720h222v-276h44c38 0 62.667 8.16699 74 24.5s17 44.5 17 84.5v167z" />
    <glyph glyph-name="afii10076" unicode="&#x43a;" horiz-adv-x="659" 
d="M396 720l221.997 0.00292969v-177c0 -40.667 -5 -73.334 -15 -98.001s-27.333 -47.334 -52 -68.001c28.667 -18.667 48.334 -41.5 59.001 -68.5s16 -64.167 16 -111.5v-197h-222v185c0 21.333 -1.66699 38.666 -5 51.999s-8.66602 23.5 -15.999 30.5
s-17.166 11.667 -29.499 14s-27.5 3.5 -45.5 3.5h-47v-285h-222v720h222v-276h44c38 0 62.667 8.16699 74 24.5s17 44.5 17 84.5v167z" />
    <glyph glyph-name="afii10077" unicode="&#xeb;" horiz-adv-x="665" 
d="M262 0l-261.998 0.000976562v209h43v188c0 49.333 6.5 94.833 19.5 136.5s32 77.5 57 107.5s55.833 53.5 92.5 70.5s78.667 25.5 126 25.5c48.667 0 91.167 -9.33301 127.5 -28s66.666 -43.834 90.999 -75.501s42.666 -68 54.999 -109s18.5 -83.833 18.5 -128.5v-396
h-225v390c0 28 -1.33301 50.833 -4 68.5s-7 31.5 -13 41.5s-13.5 16.667 -22.5 20s-19.5 5 -31.5 5c-12.667 0 -23.5 -1.66699 -32.5 -5s-16.5 -10 -22.5 -20s-10.333 -23.833 -13 -41.5s-4 -40.5 -4 -68.5v-390z" />
    <glyph glyph-name="afii10077" unicode="&#x43b;" horiz-adv-x="665" 
d="M262 0l-261.998 0.000976562v209h43v188c0 49.333 6.5 94.833 19.5 136.5s32 77.5 57 107.5s55.833 53.5 92.5 70.5s78.667 25.5 126 25.5c48.667 0 91.167 -9.33301 127.5 -28s66.666 -43.834 90.999 -75.501s42.666 -68 54.999 -109s18.5 -83.833 18.5 -128.5v-396
h-225v390c0 28 -1.33301 50.833 -4 68.5s-7 31.5 -13 41.5s-13.5 16.667 -22.5 20s-19.5 5 -31.5 5c-12.667 0 -23.5 -1.66699 -32.5 -5s-16.5 -10 -22.5 -20s-10.333 -23.833 -13 -41.5s-4 -40.5 -4 -68.5v-390z" />
    <glyph glyph-name="afii10078" unicode="&#xec;" horiz-adv-x="987" 
d="M32 0l-0.00195312 396c0 44.667 5.66699 87.5 17 128.5s28.5 77.333 51.5 109s52.333 56.834 88 75.501s77.834 28 126.501 28c36 0 68.833 -5.16699 98.5 -15.5s56.167 -24.833 79.5 -43.5c47.333 39.333 107 59 179 59c48.667 0 90.834 -9.33301 126.501 -28
s65 -43.834 88 -75.501s40.167 -68 51.5 -109s17 -83.833 17 -128.5v-396h-224v390c0 28 -1 50.833 -3 68.5s-5.33301 31.5 -10 41.5s-11 16.667 -19 20s-18.333 5 -31 5c-12 0 -21.833 -1.66699 -29.5 -5s-14 -9.66602 -19 -18.999s-8.5 -22.333 -10.5 -39
s-3 -38.334 -3 -65.001v-397h-225v397c0 26.667 -1.16699 48.334 -3.5 65.001s-6 29.667 -11 39s-11.333 15.666 -19 18.999s-17.167 5 -28.5 5c-12 0 -21.833 -1.66699 -29.5 -5s-14 -10 -19 -20s-8.5 -23.833 -10.5 -41.5s-3 -40.5 -3 -68.5v-390h-225z" />
    <glyph glyph-name="afii10078" unicode="&#x43c;" horiz-adv-x="987" 
d="M32 0l-0.00195312 396c0 44.667 5.66699 87.5 17 128.5s28.5 77.333 51.5 109s52.333 56.834 88 75.501s77.834 28 126.501 28c36 0 68.833 -5.16699 98.5 -15.5s56.167 -24.833 79.5 -43.5c47.333 39.333 107 59 179 59c48.667 0 90.834 -9.33301 126.501 -28
s65 -43.834 88 -75.501s40.167 -68 51.5 -109s17 -83.833 17 -128.5v-396h-224v390c0 28 -1 50.833 -3 68.5s-5.33301 31.5 -10 41.5s-11 16.667 -19 20s-18.333 5 -31 5c-12 0 -21.833 -1.66699 -29.5 -5s-14 -9.66602 -19 -18.999s-8.5 -22.333 -10.5 -39
s-3 -38.334 -3 -65.001v-397h-225v397c0 26.667 -1.16699 48.334 -3.5 65.001s-6 29.667 -11 39s-11.333 15.666 -19 18.999s-17.167 5 -28.5 5c-12 0 -21.833 -1.66699 -29.5 -5s-14 -10 -19 -20s-8.5 -23.833 -10.5 -41.5s-3 -40.5 -3 -68.5v-390h-225z" />
    <glyph glyph-name="afii10079" unicode="&#xed;" horiz-adv-x="676" 
d="M412 720h225v-720h-225v285h-148v-285h-225v720h225v-258h148v258z" />
    <glyph glyph-name="afii10079" unicode="&#x43d;" horiz-adv-x="676" 
d="M412 720h225v-720h-225v285h-148v-285h-225v720h225v-258h148v258z" />
    <glyph glyph-name="afii10080" unicode="&#xee;" horiz-adv-x="788" 
d="M394 -17c-50 0 -97.833 9.66797 -143.5 29.001s-85.667 46 -120 80s-61.833 73.833 -82.5 119.5s-31 94.834 -31 147.501c0 52 10.333 101 31 147s48.167 86 82.5 120s74.333 61 120 81s93.5 30 143.5 30c52 0 101 -10 147 -30s86 -47.167 120 -81.5
s60.833 -74.833 80.5 -121.5s29.5 -96.334 29.5 -149.001c0 -51.333 -9.83301 -99.5 -29.5 -144.5s-46.5 -84.333 -80.5 -118s-74 -60.334 -120 -80.001s-95 -29.5 -147 -29.5zM393 195.001c20 0 39 4.16699 57 12.5s34 19.666 48 33.999s25 31.5 33 51.5s12 42 12 66
s-3.83301 46 -11.5 66s-18.334 37.5 -32.001 52.5s-29.5 26.667 -47.5 35s-37.333 12.5 -58 12.5c-21.333 0 -41 -4.16699 -59 -12.5s-33.667 -20 -47 -35s-23.833 -32.5 -31.5 -52.5s-11.5 -42 -11.5 -66s3.83301 -46 11.5 -66s18.334 -37.167 32.001 -51.5
s29.5 -25.666 47.5 -33.999s37 -12.5 57 -12.5z" />
    <glyph glyph-name="afii10080" unicode="&#x43e;" horiz-adv-x="788" 
d="M394 -17c-50 0 -97.833 9.66797 -143.5 29.001s-85.667 46 -120 80s-61.833 73.833 -82.5 119.5s-31 94.834 -31 147.501c0 52 10.333 101 31 147s48.167 86 82.5 120s74.333 61 120 81s93.5 30 143.5 30c52 0 101 -10 147 -30s86 -47.167 120 -81.5
s60.833 -74.833 80.5 -121.5s29.5 -96.334 29.5 -149.001c0 -51.333 -9.83301 -99.5 -29.5 -144.5s-46.5 -84.333 -80.5 -118s-74 -60.334 -120 -80.001s-95 -29.5 -147 -29.5zM393 195.001c20 0 39 4.16699 57 12.5s34 19.666 48 33.999s25 31.5 33 51.5s12 42 12 66
s-3.83301 46 -11.5 66s-18.334 37.5 -32.001 52.5s-29.5 26.667 -47.5 35s-37.333 12.5 -58 12.5c-21.333 0 -41 -4.16699 -59 -12.5s-33.667 -20 -47 -35s-23.833 -32.5 -31.5 -52.5s-11.5 -42 -11.5 -66s3.83301 -46 11.5 -66s18.334 -37.167 32.001 -51.5
s29.5 -25.666 47.5 -33.999s37 -12.5 57 -12.5z" />
    <glyph glyph-name="afii10081" unicode="&#xef;" horiz-adv-x="657" 
d="M257 0l-224.998 0.000976562v397c0 49.333 6.83301 94.833 20.5 136.5s33.334 77.5 59.001 107.5s57.167 53.5 94.5 70.5s79.666 25.5 126.999 25.5c48.667 0 91.167 -9.33301 127.5 -28s66.666 -43.834 90.999 -75.501s42.666 -68 54.999 -109s18.5 -83.833 18.5 -128.5
v-396h-225v390c0 28 -1.33301 50.833 -4 68.5s-7 31.5 -13 41.5s-13.5 16.667 -22.5 20s-19.833 5 -32.5 5c-12 0 -22.5 -1.66699 -31.5 -5s-16.5 -10 -22.5 -20s-10.333 -23.833 -13 -41.5s-4 -40.5 -4 -68.5v-390z" />
    <glyph glyph-name="afii10081" unicode="&#x43f;" horiz-adv-x="657" 
d="M257 0l-224.998 0.000976562v397c0 49.333 6.83301 94.833 20.5 136.5s33.334 77.5 59.001 107.5s57.167 53.5 94.5 70.5s79.666 25.5 126.999 25.5c48.667 0 91.167 -9.33301 127.5 -28s66.666 -43.834 90.999 -75.501s42.666 -68 54.999 -109s18.5 -83.833 18.5 -128.5
v-396h-225v390c0 28 -1.33301 50.833 -4 68.5s-7 31.5 -13 41.5s-13.5 16.667 -22.5 20s-19.833 5 -32.5 5c-12 0 -22.5 -1.66699 -31.5 -5s-16.5 -10 -22.5 -20s-10.333 -23.833 -13 -41.5s-4 -40.5 -4 -68.5v-390z" />
    <glyph glyph-name="afii10082" unicode="&#xf0;" horiz-adv-x="621" 
d="M303 203v208.997c21.333 0 38.833 3.33301 52.5 10s20.5 19.334 20.5 38.001c0 14.667 -6 26.834 -18 36.501s-30.333 14.5 -55 14.5h-39v-511h-225v720h268c44 0 84.5 -5.5 121.5 -16.5s69 -27.333 96 -49s48.167 -48.167 63.5 -79.5s23 -67.666 23 -108.999
c0 -90.667 -27.167 -157.167 -81.5 -199.5s-129.833 -63.5 -226.5 -63.5z" />
    <glyph glyph-name="afii10082" unicode="&#x440;" horiz-adv-x="621" 
d="M303 203v208.997c21.333 0 38.833 3.33301 52.5 10s20.5 19.334 20.5 38.001c0 14.667 -6 26.834 -18 36.501s-30.333 14.5 -55 14.5h-39v-511h-225v720h268c44 0 84.5 -5.5 121.5 -16.5s69 -27.333 96 -49s48.167 -48.167 63.5 -79.5s23 -67.666 23 -108.999
c0 -90.667 -27.167 -157.167 -81.5 -199.5s-129.833 -63.5 -226.5 -63.5z" />
    <glyph glyph-name="afii10083" unicode="&#xf1;" horiz-adv-x="528" 
d="M503 224v-222.002c-16.667 -6.66699 -35.334 -11.334 -56.001 -14.001s-42.667 -4 -66 -4c-51.333 0 -99 9.5 -143 28.5s-82.5 45.333 -115.5 79s-58.833 73.334 -77.5 119.001s-28 95.5 -28 149.5c0 52 9.83301 100.833 29.5 146.5s46.834 85.5 81.501 119.5
s75.667 61 123 81s98.333 30 153 30c39.333 0 72.333 -5.66699 99 -17v-219c-18 8.66699 -35.667 14.834 -53 18.501s-34.333 5.5 -51 5.5c-47.333 0 -84.833 -15.667 -112.5 -47s-41.5 -70.666 -41.5 -117.999s13.667 -86.5 41 -117.5s62.666 -46.5 105.999 -46.5
c14.667 0 31.334 2 50.001 6s39 11.333 61 22z" />
    <glyph glyph-name="afii10083" unicode="&#x441;" horiz-adv-x="528" 
d="M503 224v-222.002c-16.667 -6.66699 -35.334 -11.334 -56.001 -14.001s-42.667 -4 -66 -4c-51.333 0 -99 9.5 -143 28.5s-82.5 45.333 -115.5 79s-58.833 73.334 -77.5 119.001s-28 95.5 -28 149.5c0 52 9.83301 100.833 29.5 146.5s46.834 85.5 81.501 119.5
s75.667 61 123 81s98.333 30 153 30c39.333 0 72.333 -5.66699 99 -17v-219c-18 8.66699 -35.667 14.834 -53 18.501s-34.333 5.5 -51 5.5c-47.333 0 -84.833 -15.667 -112.5 -47s-41.5 -70.666 -41.5 -117.999s13.667 -86.5 41 -117.5s62.666 -46.5 105.999 -46.5
c14.667 0 31.334 2 50.001 6s39 11.333 61 22z" />
    <glyph glyph-name="afii10084" unicode="&#xf2;" horiz-adv-x="551" 
d="M544 720v-209h-156v-511h-225v511h-156v209h537z" />
    <glyph glyph-name="afii10084" unicode="&#x442;" horiz-adv-x="551" 
d="M544 720v-209h-156v-511h-225v511h-156v209h537z" />
    <glyph glyph-name="afii10085" unicode="&#xf3;" horiz-adv-x="619" 
d="M29 720h220.999v-178c0 -17.333 4.33301 -32.333 13 -45s24.334 -19 47.001 -19h52v242h222v-463c0 -47.333 -6.5 -87.333 -19.5 -120s-32 -59.167 -57 -79.5s-55.667 -35 -92 -44s-77.833 -13.5 -124.5 -13.5h-219v209h198c61.333 0 92 17.667 92 53v39h-83
c-88 0 -151.667 16.667 -191 50s-59 91.333 -59 174v195z" />
    <glyph glyph-name="afii10085" unicode="&#x443;" horiz-adv-x="619" 
d="M29 720h220.999v-178c0 -17.333 4.33301 -32.333 13 -45s24.334 -19 47.001 -19h52v242h222v-463c0 -47.333 -6.5 -87.333 -19.5 -120s-32 -59.167 -57 -79.5s-55.667 -35 -92 -44s-77.833 -13.5 -124.5 -13.5h-219v209h198c61.333 0 92 17.667 92 53v39h-83
c-88 0 -151.667 16.667 -191 50s-59 91.333 -59 174v195z" />
    <glyph glyph-name="afii10086" unicode="&#xf4;" horiz-adv-x="912" 
d="M307 109c-95.333 0 -168.667 23.167 -220 69.5s-77 110.833 -77 193.5c0 82 26.833 145 80.5 189s124.5 66 212.5 66h42v93h222v-93h42c88 0 159 -22 213 -66s81 -107 81 -189c0 -82.667 -25.833 -147.167 -77.5 -193.5s-125.167 -69.5 -220.5 -69.5v209
c20.667 0 38 3 52 9s21 18.667 21 38c0 15.333 -6.33301 28 -19 38s-28.667 15 -48 15h-44v-418h-222v418h-44c-19.333 0 -35.333 -5 -48 -15s-19 -22.667 -19 -38c0 -19.333 7 -32 21 -38s31.333 -9 52 -9v-209z" />
    <glyph glyph-name="afii10086" unicode="&#x444;" horiz-adv-x="912" 
d="M307 109c-95.333 0 -168.667 23.167 -220 69.5s-77 110.833 -77 193.5c0 82 26.833 145 80.5 189s124.5 66 212.5 66h42v93h222v-93h42c88 0 159 -22 213 -66s81 -107 81 -189c0 -82.667 -25.833 -147.167 -77.5 -193.5s-125.167 -69.5 -220.5 -69.5v209
c20.667 0 38 3 52 9s21 18.667 21 38c0 15.333 -6.33301 28 -19 38s-28.667 15 -48 15h-44v-418h-222v418h-44c-19.333 0 -35.333 -5 -48 -15s-19 -22.667 -19 -38c0 -19.333 7 -32 21 -38s31.333 -9 52 -9v-209z" />
    <glyph glyph-name="afii10087" unicode="&#xf5;" horiz-adv-x="663" 
d="M331 441c26 0 45 6.66699 57 20s18 39.333 18 78v181h222v-183c0 -24 -1.33301 -43.833 -4 -59.5s-7 -29 -13 -40s-13.833 -21 -23.5 -30s-21.5 -19.167 -35.5 -30.5c27.333 -23.333 46.833 -48 58.5 -74s17.5 -60.333 17.5 -103v-200h-222v200
c0 31.333 -6 53.333 -18 66s-31 19 -57 19c-25.333 0 -44 -6.33301 -56 -19s-18 -34.667 -18 -66v-200h-222v200c0 42.667 5.83301 77 17.5 103s31.167 50.667 58.5 74c-14 11.333 -25.833 21.5 -35.5 30.5s-17.5 19 -23.5 30s-10.333 24.333 -13 40s-4 35.5 -4 59.5v183
h222v-181c0 -38.667 6 -64.667 18 -78s30.667 -20 56 -20z" />
    <glyph glyph-name="afii10087" unicode="&#x445;" horiz-adv-x="663" 
d="M331 441c26 0 45 6.66699 57 20s18 39.333 18 78v181h222v-183c0 -24 -1.33301 -43.833 -4 -59.5s-7 -29 -13 -40s-13.833 -21 -23.5 -30s-21.5 -19.167 -35.5 -30.5c27.333 -23.333 46.833 -48 58.5 -74s17.5 -60.333 17.5 -103v-200h-222v200
c0 31.333 -6 53.333 -18 66s-31 19 -57 19c-25.333 0 -44 -6.33301 -56 -19s-18 -34.667 -18 -66v-200h-222v200c0 42.667 5.83301 77 17.5 103s31.167 50.667 58.5 74c-14 11.333 -25.833 21.5 -35.5 30.5s-17.5 19 -23.5 30s-10.333 24.333 -13 40s-4 35.5 -4 59.5v183
h222v-181c0 -38.667 6 -64.667 18 -78s30.667 -20 56 -20z" />
    <glyph glyph-name="afii10088" unicode="&#xf6;" horiz-adv-x="666" 
d="M400 720l225 0.000976562v-511h51v-209h-385c-45.333 0 -84.166 4.16699 -116.499 12.5s-58.833 22.666 -79.5 42.999s-35.834 47.333 -45.501 81s-14.5 75.5 -14.5 125.5v458h222v-422c0 -38 5.16699 -62.333 15.5 -73s27.5 -16 51.5 -16h76v511z" />
    <glyph glyph-name="afii10088" unicode="&#x446;" horiz-adv-x="666" 
d="M400 720l225 0.000976562v-511h51v-209h-385c-45.333 0 -84.166 4.16699 -116.499 12.5s-58.833 22.666 -79.5 42.999s-35.834 47.333 -45.501 81s-14.5 75.5 -14.5 125.5v458h222v-422c0 -38 5.16699 -62.333 15.5 -73s27.5 -16 51.5 -16h76v511z" />
    <glyph glyph-name="afii10089" unicode="&#xf7;" horiz-adv-x="623" 
d="M584 720v-720.001h-225v203h-39c-97.333 0 -170.833 21.167 -220.5 63.5s-74.5 108.833 -74.5 199.5v254h222v-245c0 -17.333 5 -32.166 15 -44.499s29.333 -18.5 58 -18.5h39v308h225z" />
    <glyph glyph-name="afii10089" unicode="&#x447;" horiz-adv-x="623" 
d="M584 720v-720.001h-225v203h-39c-97.333 0 -170.833 21.167 -220.5 63.5s-74.5 108.833 -74.5 199.5v254h222v-245c0 -17.333 5 -32.166 15 -44.499s29.333 -18.5 58 -18.5h39v308h225z" />
    <glyph glyph-name="afii10090" unicode="&#xf8;" horiz-adv-x="1009" 
d="M35 720h221.999v-422c0 -38 5.16699 -62.333 15.5 -73s27.5 -16 51.5 -16h76v511h209v-511h76c24.667 0 42.167 5.33301 52.5 16s15.5 35 15.5 73v422h221v-458c0 -50 -4.83301 -91.833 -14.5 -125.5s-24.667 -60.667 -45 -81s-46.666 -34.666 -78.999 -42.999
s-71.5 -12.5 -117.5 -12.5h-427c-45.333 0 -84.166 4.16699 -116.499 12.5s-58.833 22.666 -79.5 42.999s-35.834 47.333 -45.501 81s-14.5 75.5 -14.5 125.5v458z" />
    <glyph glyph-name="afii10090" unicode="&#x448;" horiz-adv-x="1009" 
d="M35 720h221.999v-422c0 -38 5.16699 -62.333 15.5 -73s27.5 -16 51.5 -16h76v511h209v-511h76c24.667 0 42.167 5.33301 52.5 16s15.5 35 15.5 73v422h221v-458c0 -50 -4.83301 -91.833 -14.5 -125.5s-24.667 -60.667 -45 -81s-46.666 -34.666 -78.999 -42.999
s-71.5 -12.5 -117.5 -12.5h-427c-45.333 0 -84.166 4.16699 -116.499 12.5s-58.833 22.666 -79.5 42.999s-35.834 47.333 -45.501 81s-14.5 75.5 -14.5 125.5v458z" />
    <glyph glyph-name="afii10091" unicode="&#xf9;" horiz-adv-x="1016" 
d="M35 720l222 0.000976562v-422c0 -38 5.16699 -62.333 15.5 -73s27.5 -16 51.5 -16h76v511h209v-511h144v511h221v-511h51v-209h-734c-45.333 0 -84.166 4.16699 -116.499 12.5s-58.833 22.666 -79.5 42.999s-35.834 47.333 -45.501 81s-14.5 75.5 -14.5 125.5v458z" />
    <glyph glyph-name="afii10091" unicode="&#x449;" horiz-adv-x="1016" 
d="M35 720l222 0.000976562v-422c0 -38 5.16699 -62.333 15.5 -73s27.5 -16 51.5 -16h76v511h209v-511h144v511h221v-511h51v-209h-734c-45.333 0 -84.166 4.16699 -116.499 12.5s-58.833 22.666 -79.5 42.999s-35.834 47.333 -45.501 81s-14.5 75.5 -14.5 125.5v458z" />
    <glyph glyph-name="afii10092" unicode="&#xfa;" horiz-adv-x="675" 
d="M93 0v510.999h-83v209h308v-511h39c48.667 0 73 16.667 73 50c0 19.333 -6.83301 32.333 -20.5 39s-31.167 10 -52.5 10v203c98 0 173.833 -21.167 227.5 -63.5s80.5 -106.833 80.5 -193.5c0 -41.333 -7.66699 -77.666 -23 -108.999s-36.5 -57.833 -63.5 -79.5
s-59 -38 -96 -49s-77.5 -16.5 -121.5 -16.5h-268z" />
    <glyph glyph-name="afii10092" unicode="&#x44a;" horiz-adv-x="675" 
d="M93 0v510.999h-83v209h308v-511h39c48.667 0 73 16.667 73 50c0 19.333 -6.83301 32.333 -20.5 39s-31.167 10 -52.5 10v203c98 0 173.833 -21.167 227.5 -63.5s80.5 -106.833 80.5 -193.5c0 -41.333 -7.66699 -77.666 -23 -108.999s-36.5 -57.833 -63.5 -79.5
s-59 -38 -96 -49s-77.5 -16.5 -121.5 -16.5h-268z" />
    <glyph glyph-name="afii10093" unicode="&#xfb;" horiz-adv-x="916" 
d="M652 720h225v-720h-225v720zM39 0v719.999h225v-511h39c48.667 0 73 16.667 73 50c0 19.333 -6.83301 32.333 -20.5 39s-31.167 10 -52.5 10v203c98 0 173.833 -21.167 227.5 -63.5s80.5 -106.833 80.5 -193.5c0 -41.333 -7.66699 -77.666 -23 -108.999
s-36.5 -57.833 -63.5 -79.5s-59 -38 -96 -49s-77.5 -16.5 -121.5 -16.5h-268z" />
    <glyph glyph-name="afii10093" unicode="&#x44b;" horiz-adv-x="916" 
d="M652 720h225v-720h-225v720zM39 0v719.999h225v-511h39c48.667 0 73 16.667 73 50c0 19.333 -6.83301 32.333 -20.5 39s-31.167 10 -52.5 10v203c98 0 173.833 -21.167 227.5 -63.5s80.5 -106.833 80.5 -193.5c0 -41.333 -7.66699 -77.666 -23 -108.999
s-36.5 -57.833 -63.5 -79.5s-59 -38 -96 -49s-77.5 -16.5 -121.5 -16.5h-268z" />
    <glyph glyph-name="afii10094" unicode="&#xfc;" horiz-adv-x="621" 
d="M39 0v719.999h225v-511h39c48.667 0 73 16.667 73 50c0 19.333 -6.83301 32.333 -20.5 39s-31.167 10 -52.5 10v203c98 0 173.833 -21.167 227.5 -63.5s80.5 -106.833 80.5 -193.5c0 -41.333 -7.66699 -77.666 -23 -108.999s-36.5 -57.833 -63.5 -79.5s-59 -38 -96 -49
s-77.5 -16.5 -121.5 -16.5h-268z" />
    <glyph glyph-name="afii10094" unicode="&#x44c;" horiz-adv-x="621" 
d="M39 0v719.999h225v-511h39c48.667 0 73 16.667 73 50c0 19.333 -6.83301 32.333 -20.5 39s-31.167 10 -52.5 10v203c98 0 173.833 -21.167 227.5 -63.5s80.5 -106.833 80.5 -193.5c0 -41.333 -7.66699 -77.666 -23 -108.999s-36.5 -57.833 -63.5 -79.5s-59 -38 -96 -49
s-77.5 -16.5 -121.5 -16.5h-268z" />
    <glyph glyph-name="afii10095" unicode="&#xfd;" horiz-adv-x="528" 
d="M25 224c22 -10.667 42.333 -17.999 61 -21.999s35.334 -6 50.001 -6c38 0 69.167 9.16699 93.5 27.5s40.166 46.166 47.499 83.499h-148v124h141c-9.33301 27.333 -25.833 49.833 -49.5 67.5s-54.167 26.5 -91.5 26.5c-16.667 0 -33.667 -1.83301 -51 -5.5
s-35 -9.83398 -53 -18.501v219c12.667 5.33301 28.334 9.5 47.001 12.5s37.667 4.5 57 4.5c56 0 107.333 -9.33301 154 -28s87 -44.834 121 -78.501s60.333 -73.5 79 -119.5s28 -96.333 28 -151c0 -63.333 -9.5 -118.5 -28.5 -165.5s-44.833 -86.167 -77.5 -117.5
s-71.167 -54.666 -115.5 -69.999s-91.833 -23 -142.5 -23c-23.333 0 -45.333 1.33301 -66 4s-39.334 7.33398 -56.001 14.001v222z" />
    <glyph glyph-name="afii10095" unicode="&#x44d;" horiz-adv-x="528" 
d="M25 224c22 -10.667 42.333 -17.999 61 -21.999s35.334 -6 50.001 -6c38 0 69.167 9.16699 93.5 27.5s40.166 46.166 47.499 83.499h-148v124h141c-9.33301 27.333 -25.833 49.833 -49.5 67.5s-54.167 26.5 -91.5 26.5c-16.667 0 -33.667 -1.83301 -51 -5.5
s-35 -9.83398 -53 -18.501v219c12.667 5.33301 28.334 9.5 47.001 12.5s37.667 4.5 57 4.5c56 0 107.333 -9.33301 154 -28s87 -44.834 121 -78.501s60.333 -73.5 79 -119.5s28 -96.333 28 -151c0 -63.333 -9.5 -118.5 -28.5 -165.5s-44.833 -86.167 -77.5 -117.5
s-71.167 -54.666 -115.5 -69.999s-91.833 -23 -142.5 -23c-23.333 0 -45.333 1.33301 -66 4s-39.334 7.33398 -56.001 14.001v222z" />
    <glyph glyph-name="afii10096" unicode="&#xfe;" horiz-adv-x="932" 
d="M688 288v144c0 19.333 -7.5 36.333 -22.5 51s-32.167 22 -51.5 22s-36.333 -7.33301 -51 -22s-22 -31.667 -22 -51v-144c0 -19.333 7.33301 -36.333 22 -51s31.667 -22 51 -22s36.5 7.33301 51.5 22s22.5 31.667 22.5 51zM39 720h222v-285h58c0 42 7.5 81.333 22.5 118
s35.667 68.667 62 96s57.5 48.833 93.5 64.5s75 23.5 117 23.5s81.167 -7.83301 117.5 -23.5s67.666 -37.167 93.999 -64.5s47 -59.333 62 -96s22.5 -76 22.5 -118v-150c0 -42 -7.5 -81.333 -22.5 -118s-35.667 -68.667 -62 -96s-57.666 -48.833 -93.999 -64.5
s-75.5 -23.5 -117.5 -23.5s-81 7.83301 -117 23.5s-67.167 37.167 -93.5 64.5s-47 59.333 -62 96s-22.5 76 -22.5 118h-58v-285h-222v720z" />
    <glyph glyph-name="afii10096" unicode="&#x44e;" horiz-adv-x="932" 
d="M688 288v144c0 19.333 -7.5 36.333 -22.5 51s-32.167 22 -51.5 22s-36.333 -7.33301 -51 -22s-22 -31.667 -22 -51v-144c0 -19.333 7.33301 -36.333 22 -51s31.667 -22 51 -22s36.5 7.33301 51.5 22s22.5 31.667 22.5 51zM39 720h222v-285h58c0 42 7.5 81.333 22.5 118
s35.667 68.667 62 96s57.5 48.833 93.5 64.5s75 23.5 117 23.5s81.167 -7.83301 117.5 -23.5s67.666 -37.167 93.999 -64.5s47 -59.333 62 -96s22.5 -76 22.5 -118v-150c0 -42 -7.5 -81.333 -22.5 -118s-35.667 -68.667 -62 -96s-57.666 -48.833 -93.999 -64.5
s-75.5 -23.5 -117.5 -23.5s-81 7.83301 -117 23.5s-67.167 37.167 -93.5 64.5s-47 59.333 -62 96s-22.5 76 -22.5 118h-58v-285h-222v720z" />
    <glyph glyph-name="afii10097" unicode="&#xff;" horiz-adv-x="642" 
d="M380 0l0.000976562 509.998h-39c-31.333 0 -52 -4.5 -62 -13.5s-15 -23.5 -15 -43.5c0 -19.333 4.5 -33.833 13.5 -43.5s24.5 -14.5 46.5 -14.5h17v-161h-17c-24 0 -40.833 -6 -50.5 -18s-14.5 -33.667 -14.5 -65v-151h-228v151c0 41.333 4.33301 75.833 13 103.5
s27.667 52.5 57 74.5c-24.667 18 -41.834 41.5 -51.501 70.5s-14.5 57.833 -14.5 86.5c0 42.667 8 78.834 24 108.501s38 53.834 66 72.501s60.5 32.167 97.5 40.5s76.5 12.5 118.5 12.5h262v-720h-223z" />
    <glyph glyph-name="afii10097" unicode="&#x44f;" horiz-adv-x="642" 
d="M380 0l0.000976562 509.998h-39c-31.333 0 -52 -4.5 -62 -13.5s-15 -23.5 -15 -43.5c0 -19.333 4.5 -33.833 13.5 -43.5s24.5 -14.5 46.5 -14.5h17v-161h-17c-24 0 -40.833 -6 -50.5 -18s-14.5 -33.667 -14.5 -65v-151h-228v151c0 41.333 4.33301 75.833 13 103.5
s27.667 52.5 57 74.5c-24.667 18 -41.834 41.5 -51.501 70.5s-14.5 57.833 -14.5 86.5c0 42.667 8 78.834 24 108.501s38 53.834 66 72.501s60.5 32.167 97.5 40.5s76.5 12.5 118.5 12.5h262v-720h-223z" />
    <glyph glyph-name="quilsinglleft" unicode="&#x2039;" horiz-adv-x="255" 
d="M19 360l84 197h127l-80 -197l80 -192h-127z" />
    <glyph glyph-name="quilsinglright" unicode="&#x203a;" horiz-adv-x="255" 
d="M236 360l-84 -192h-127l81 192l-81 197h127z" />
    </font>
</defs>
</svg>
